<svg version="1.1" viewBox="0 0 414.61 275.2" xml:space="preserve" xmlns="http://www.w3.org/2000/svg"><defs><radialGradient id="radialGradient55" cx="0" cy="0" r="1" gradientTransform="matrix(89.872 -162.13 -253.95 -140.77 369.93 437.82)" gradientUnits="userSpaceOnUse"><stop stop-color="#ef373f" offset="0"/><stop
        stop-color="#ac1e23" offset="1"/></radialGradient><radialGradient id="radialGradient75" cx="0" cy="0" r="1"
                                                                          gradientTransform="matrix(60.825 -51.039 -40.178 -47.882 382.43 413.04)"
                                                                          gradientUnits="userSpaceOnUse"><stop stop-color="#ce3b3d" offset="0"/>
    <stop stop-color="#9a2422" offset="1"/></radialGradient><clipPath id="clipPath85"><path d="M 0,595.275 H 841.89 V 0 H 0 Z"/></clipPath></defs>
    <g transform="matrix(1.3333 0 0 -1.3333 -398.31 630.63)"><g transform="translate(84.281 -1.9909)"><path d="m320.11 437.46-3.633-2.867h-32.83c-5.423 0-9.871-4.44-9.871-9.873 0-5.423 4.442-9.862 9.871-9.862h38.27c5.425 0 9.871-4.441 9.871-9.874 0-5.446-4.437-9.886-9.871-9.886h-18.04c-5.422 0-9.871-4.439-9.871-9.862 0-5.412 4.449-9.874 9.871-9.874h31.883c5.433 0 9.87-4.428 9.87-9.874 0-5.434-4.437-9.874-9.87-9.874h-72.641c-5.419 0-9.869-4.439-9.869-9.862 0-5.433 4.441-9.874 9.869-9.874h97.555c5.427 0 9.872-4.428 9.872-9.874 0-5.434-4.445-9.873-9.872-9.873h-38.928c-5.422 0-9.861-4.451-9.861-9.863 0-5.421 4.427-9.862 9.861-9.862h57.532c11.414-10.475 24.176-19.446 37.844-26.003l3.824-1.838 3.828 1.838c26.227 12.557 49.109 34.073 65.553 57.845 20.827 30.153 32.522 65.197 34.806 101.73l0.284 4.613-3.631 2.867c-28.899 22.801-63.688 37.507-100.84 37.507-37.156 0-71.948-14.706-100.84-37.507m-72.053-42.362c-5.414 0-9.874-4.439-9.874-9.862 0-5.412 4.443-9.874 9.874-9.874h20.352c5.433 0 9.865 4.44 9.865 9.874s-4.457 9.862-9.865 9.862zm-23.732-39.484c-5.421 0-9.869-4.439-9.869-9.862 0-5.411 4.436-9.874 9.869-9.874h3.041c5.424 0 9.872 4.441 9.872 9.874 0 5.434-4.457 9.862-9.872 9.862zm57.895-49.346c0-5.457 4.424-9.862 9.884-9.862 5.452 0 9.872 4.405 9.872 9.862 0 5.446-4.42 9.863-9.872 9.863-5.46 0-9.884-4.417-9.884-9.863" fill="url(#radialGradient55)"/></g>
        <g transform="translate(84.281 -1.9909)"><path d="m389.46 412.67-5.745-61.462 65.737-65.74c15.898 11.885 29.835 26.823 40.869 42.778 9.272 13.434 16.735 27.805 22.36 42.894l-54.512 54.514z" fill="url(#radialGradient75)"/></g>
        <g clip-path="url(#clipPath85)"><g transform="translate(519.2 437.45)"><path d="m0 0c28.089-7.538 44.753-36.408 37.226-64.492-1.53-5.699-3.949-10.96-7.068-15.608l-22.562 22.569c3.119 7.168 2.274 15.041-4.336 21.655-6.619 6.602-17.244 10.221-26.083 8.741l6.711-6.706 3.425-3.434 0.885-0.879 4.301-4.301-1.575-5.873-1.578-5.874-5.874-1.572-5.882-1.596-4.307 4.313-4.304 4.312-6.668 6.683c-1.405-8.833 2.191-19.412 8.775-25.991 6.588-6.578 14.418-7.446 21.563-4.37l22.52-22.511c-12.103-7.897-27.367-10.799-42.412-6.764-28.081 7.515-44.753 36.385-37.227 64.469 7.525 28.084 36.395 44.745 64.47 37.229" fill="#fff" fill-rule="evenodd"/></g></g></g></svg>
