<?xml version="1.0" encoding="UTF-8" standalone="no"?>
<!-- Created with Inkscape (http://www.inkscape.org/) -->
<svg
   xmlns:dc="http://purl.org/dc/elements/1.1/"
   xmlns:cc="http://web.resource.org/cc/"
   xmlns:rdf="http://www.w3.org/1999/02/22-rdf-syntax-ns#"
   xmlns:svg="http://www.w3.org/2000/svg"
   xmlns="http://www.w3.org/2000/svg"
   xmlns:sodipodi="http://sodipodi.sourceforge.net/DTD/sodipodi-0.dtd"
   xmlns:inkscape="http://www.inkscape.org/namespaces/inkscape"
   width="128"
   height="96"
   id="svg1948"
   sodipodi:version="0.32"
   inkscape:version="0.44.1"
   version="1.0"
   sodipodi:docbase="C:\Documents and Settings\Geraint\My Documents\My Pictures\icons"
   sodipodi:docname="calmonth2.svg">
  <defs
     id="defs1950" />
  <sodipodi:namedview
     id="base"
     pagecolor="#ffffff"
     bordercolor="#666666"
     borderopacity="1.0"
     gridtolerance="50"
     guidetolerance="1"
     objecttolerance="1"
     inkscape:pageopacity="0.0"
     inkscape:pageshadow="2"
     inkscape:zoom="5.6"
     inkscape:cx="78.892818"
     inkscape:cy="47.561619"
     inkscape:document-units="px"
     inkscape:current-layer="layer1"
     width="128px"
     height="96px"
     showgrid="true"
     inkscape:object-bbox="false"
     inkscape:object-points="false"
     gridempcolor="#ff3f7a"
     gridempopacity="0.37647059"
     gridoriginx="64px"
     gridoriginy="48px"
     gridempspacing="1"
     inkscape:window-width="1201"
     inkscape:window-height="886"
     inkscape:window-x="13"
     inkscape:window-y="18"
     inkscape:object-paths="false"
     showguides="true"
     inkscape:grid-bbox="false"
     inkscape:guide-bbox="false" />
  <metadata
     id="metadata1953">
    <rdf:RDF>
      <cc:Work
         rdf:about="">
        <dc:format>image/svg+xml</dc:format>
        <dc:type
           rdf:resource="http://purl.org/dc/dcmitype/StillImage" />
      </cc:Work>
    </rdf:RDF>
  </metadata>
  <g
     inkscape:label="Layer 1"
     inkscape:groupmode="layer"
     id="layer1">
    <rect
       style="fill:#5a5a5a;fill-opacity:1;stroke:#5a5a5a;stroke-width:1.63422108;stroke-linecap:round;stroke-miterlimit:4;stroke-dasharray:none;stroke-opacity:1"
       id="rect9979"
       width="118.53711"
       height="86.478424"
       x="6.2599201"
       y="7.3899665"
       rx="4.1937456"
       ry="3.2753041" />
    <rect
       style="fill:#e3e5ce;fill-opacity:1;stroke:black;stroke-width:1.63422084;stroke-linecap:round;stroke-miterlimit:4;stroke-dasharray:none;stroke-opacity:1"
       id="rect1880"
       width="118.53709"
       height="86.478409"
       x="2.654489"
       y="2.3972788"
       rx="4.1937447"
       ry="3.2753036" />
    <path
       id="rect2768"
       d="M 6.8482014,2.386885 L 116.8661,2.386885 C 119.17937,2.386885 121.04168,3.8480866 121.04168,5.6631226 L 121.04168,10.703844 C 121.04168,12.518881 119.17937,13.980084 116.8661,13.980084 L 6.8482014,13.980084 C 4.5349241,13.980084 2.6726101,12.518881 2.6726101,10.703844 L 2.6726101,5.6631226 C 2.6726101,3.8480866 4.5349241,2.386885 6.8482014,2.386885 z "
       style="fill:#3961f5;fill-opacity:1;stroke:black;stroke-width:1.63091278;stroke-linecap:round;stroke-miterlimit:4;stroke-opacity:1" />
    <path
       id="rect3665"
       d="M 6.8872134,13.953466 L 116.9683,13.953466 C 119.2847,13.953466 121.14953,15.4143 121.14953,17.228877 L 121.14953,87.876052 C 121.14953,89.69063 119.2847,91.151463 116.9683,91.151463 L 6.8872134,91.151463 C 4.5708128,91.151463 2.7059859,89.69063 2.7059859,87.876052 L 2.7059859,17.228877 C 2.7059859,15.4143 4.5708128,13.953466 6.8872134,13.953466 z "
       style="opacity:1;fill:#e4ec5e;fill-opacity:1;stroke:black;stroke-width:1.70429957;stroke-linecap:round;stroke-miterlimit:4;stroke-opacity:1" />
    <g
       id="g8540"
       transform="matrix(2.010431,0,0,1.497269,-1.197603,0.382888)">
      <path
         style="fill:#787b4b;fill-opacity:1;stroke:none;stroke-width:1.2668643;stroke-linecap:round;stroke-miterlimit:4;stroke-opacity:1"
         d="M 6.193868,12.078088 L 14.363898,12.078088 C 15.516488,12.078088 16.444385,13.197549 16.444385,14.58809 L 16.444385,22.489998 C 16.444385,23.88054 15.516488,25 14.363898,25 L 6.193868,25 C 5.041278,25 4.113381,23.88054 4.113381,22.489998 L 4.113381,14.58809 C 4.113381,13.197549 5.041278,12.078088 6.193868,12.078088 z "
         id="path5673" />
      <path
         style="fill:#f0f0f0;fill-opacity:1;stroke:black;stroke-width:0.48604509;stroke-linecap:square;stroke-linejoin:round;stroke-miterlimit:4;stroke-dasharray:none;stroke-opacity:1"
         d="M 5.2491734,11.243023 L 13.127285,11.243023 C 14.238693,11.243023 15.133436,12.340065 15.133436,13.70276 L 15.133436,21.446425 C 15.133436,22.80912 14.238693,23.906162 13.127285,23.906162 L 5.2491734,23.906162 C 4.1377659,23.906162 3.2430226,22.80912 3.2430226,21.446425 L 3.2430226,13.70276 C 3.2430226,12.340065 4.1377659,11.243023 5.2491734,11.243023 z "
         id="rect5498" />
    </g>
    <g
       id="g8544"
       transform="matrix(2.010431,0,0,1.497269,26.94843,0.382888)">
      <path
         style="fill:#787b4b;fill-opacity:1;stroke:none;stroke-width:1.2668643;stroke-linecap:round;stroke-miterlimit:4;stroke-opacity:1"
         d="M 6.193868,12.078088 L 14.363898,12.078088 C 15.516488,12.078088 16.444385,13.197549 16.444385,14.58809 L 16.444385,22.489998 C 16.444385,23.88054 15.516488,25 14.363898,25 L 6.193868,25 C 5.041278,25 4.113381,23.88054 4.113381,22.489998 L 4.113381,14.58809 C 4.113381,13.197549 5.041278,12.078088 6.193868,12.078088 z "
         id="path8546" />
      <path
         style="fill:#f0f0f0;fill-opacity:1;stroke:black;stroke-width:0.48604509;stroke-linecap:square;stroke-linejoin:round;stroke-miterlimit:4;stroke-dasharray:none;stroke-opacity:1"
         d="M 5.2491734,11.243023 L 13.127285,11.243023 C 14.238693,11.243023 15.133436,12.340065 15.133436,13.70276 L 15.133436,21.446425 C 15.133436,22.80912 14.238693,23.906162 13.127285,23.906162 L 5.2491734,23.906162 C 4.1377659,23.906162 3.2430226,22.80912 3.2430226,21.446425 L 3.2430226,13.70276 C 3.2430226,12.340065 4.1377659,11.243023 5.2491734,11.243023 z "
         id="path8548" />
    </g>
    <path
       id="path8558"
       d="M 68.460614,18.467035 L 84.885896,18.467035 C 87.203098,18.467035 89.068571,20.143169 89.068571,22.225183 L 89.068571,34.056465 C 89.068571,36.13848 87.203098,37.814613 84.885896,37.814613 L 68.460614,37.814613 C 66.143412,37.814613 64.277939,36.13848 64.277939,34.056465 L 64.277939,22.225183 C 64.277939,20.143169 66.143412,18.467035 68.460614,18.467035 z "
       style="fill:#787b4b;fill-opacity:1;stroke:none;stroke-width:1.2668643;stroke-linecap:round;stroke-miterlimit:4;stroke-opacity:1" />
    <path
       id="path8560"
       d="M 66.561371,17.216718 L 82.399771,17.216718 C 84.63418,17.216718 86.432999,18.859285 86.432999,20.899606 L 86.432999,32.493955 C 86.432999,34.534276 84.63418,36.176843 82.399771,36.176843 L 66.561371,36.176843 C 64.326963,36.176843 62.528143,34.534276 62.528143,32.493955 L 62.528143,20.899606 C 62.528143,18.859285 64.326963,17.216718 66.561371,17.216718 z "
       style="fill:#fc0;fill-opacity:1;stroke:black;stroke-width:0.84327859;stroke-linecap:square;stroke-linejoin:round;stroke-miterlimit:4;stroke-dasharray:none;stroke-opacity:1" />
    <g
       id="g8562"
       transform="matrix(2.010431,0,0,1.497269,84.89375,0.382888)">
      <path
         style="fill:#787b4b;fill-opacity:1;stroke:none;stroke-width:1.2668643;stroke-linecap:round;stroke-miterlimit:4;stroke-opacity:1"
         d="M 6.193868,12.078088 L 14.363898,12.078088 C 15.516488,12.078088 16.444385,13.197549 16.444385,14.58809 L 16.444385,22.489998 C 16.444385,23.88054 15.516488,25 14.363898,25 L 6.193868,25 C 5.041278,25 4.113381,23.88054 4.113381,22.489998 L 4.113381,14.58809 C 4.113381,13.197549 5.041278,12.078088 6.193868,12.078088 z "
         id="path8564" />
      <path
         style="fill:#f0f0f0;fill-opacity:1;stroke:black;stroke-width:0.48604509;stroke-linecap:square;stroke-linejoin:round;stroke-miterlimit:4;stroke-dasharray:none;stroke-opacity:1"
         d="M 5.2491734,11.243023 L 13.127285,11.243023 C 14.238693,11.243023 15.133436,12.340065 15.133436,13.70276 L 15.133436,21.446425 C 15.133436,22.80912 14.238693,23.906162 13.127285,23.906162 L 5.2491734,23.906162 C 4.1377659,23.906162 3.2430226,22.80912 3.2430226,21.446425 L 3.2430226,13.70276 C 3.2430226,12.340065 4.1377659,11.243023 5.2491734,11.243023 z "
         id="path8566" />
    </g>
    <g
       id="g8568"
       transform="matrix(2.010431,0,0,1.497269,-0.304208,24.3392)">
      <path
         style="fill:#787b4b;fill-opacity:1;stroke:none;stroke-width:1.2668643;stroke-linecap:round;stroke-miterlimit:4;stroke-opacity:1"
         d="M 6.193868,12.078088 L 14.363898,12.078088 C 15.516488,12.078088 16.444385,13.197549 16.444385,14.58809 L 16.444385,22.489998 C 16.444385,23.88054 15.516488,25 14.363898,25 L 6.193868,25 C 5.041278,25 4.113381,23.88054 4.113381,22.489998 L 4.113381,14.58809 C 4.113381,13.197549 5.041278,12.078088 6.193868,12.078088 z "
         id="path8570" />
      <path
         style="fill:#f0f0f0;fill-opacity:1;stroke:black;stroke-width:0.48604509;stroke-linecap:square;stroke-linejoin:round;stroke-miterlimit:4;stroke-dasharray:none;stroke-opacity:1"
         d="M 5.2491734,11.243023 L 13.127285,11.243023 C 14.238693,11.243023 15.133436,12.340065 15.133436,13.70276 L 15.133436,21.446425 C 15.133436,22.80912 14.238693,23.906162 13.127285,23.906162 L 5.2491734,23.906162 C 4.1377659,23.906162 3.2430226,22.80912 3.2430226,21.446425 L 3.2430226,13.70276 C 3.2430226,12.340065 4.1377659,11.243023 5.2491734,11.243023 z "
         id="path8572" />
    </g>
    <g
       id="g8574"
       transform="matrix(2.010431,0,0,1.497269,27.84182,24.3392)">
      <path
         style="fill:#787b4b;fill-opacity:1;stroke:none;stroke-width:1.2668643;stroke-linecap:round;stroke-miterlimit:4;stroke-opacity:1"
         d="M 6.193868,12.078088 L 14.363898,12.078088 C 15.516488,12.078088 16.444385,13.197549 16.444385,14.58809 L 16.444385,22.489998 C 16.444385,23.88054 15.516488,25 14.363898,25 L 6.193868,25 C 5.041278,25 4.113381,23.88054 4.113381,22.489998 L 4.113381,14.58809 C 4.113381,13.197549 5.041278,12.078088 6.193868,12.078088 z "
         id="path8576" />
      <path
         style="fill:#f0f0f0;fill-opacity:1;stroke:black;stroke-width:0.48604509;stroke-linecap:square;stroke-linejoin:round;stroke-miterlimit:4;stroke-dasharray:none;stroke-opacity:1"
         d="M 5.2491734,11.243023 L 13.127285,11.243023 C 14.238693,11.243023 15.133436,12.340065 15.133436,13.70276 L 15.133436,21.446425 C 15.133436,22.80912 14.238693,23.906162 13.127285,23.906162 L 5.2491734,23.906162 C 4.1377659,23.906162 3.2430226,22.80912 3.2430226,21.446425 L 3.2430226,13.70276 C 3.2430226,12.340065 4.1377659,11.243023 5.2491734,11.243023 z "
         id="path8578" />
    </g>
    <g
       id="g8580"
       transform="matrix(2.010431,0,0,1.497269,56.90167,24.3392)">
      <path
         style="fill:#787b4b;fill-opacity:1;stroke:none;stroke-width:1.2668643;stroke-linecap:round;stroke-miterlimit:4;stroke-opacity:1"
         d="M 6.193868,12.078088 L 14.363898,12.078088 C 15.516488,12.078088 16.444385,13.197549 16.444385,14.58809 L 16.444385,22.489998 C 16.444385,23.88054 15.516488,25 14.363898,25 L 6.193868,25 C 5.041278,25 4.113381,23.88054 4.113381,22.489998 L 4.113381,14.58809 C 4.113381,13.197549 5.041278,12.078088 6.193868,12.078088 z "
         id="path8582" />
      <path
         style="fill:#f0f0f0;fill-opacity:1;stroke:black;stroke-width:0.48604509;stroke-linecap:square;stroke-linejoin:round;stroke-miterlimit:4;stroke-dasharray:none;stroke-opacity:1"
         d="M 5.2491734,11.243023 L 13.127285,11.243023 C 14.238693,11.243023 15.133436,12.340065 15.133436,13.70276 L 15.133436,21.446425 C 15.133436,22.80912 14.238693,23.906162 13.127285,23.906162 L 5.2491734,23.906162 C 4.1377659,23.906162 3.2430226,22.80912 3.2430226,21.446425 L 3.2430226,13.70276 C 3.2430226,12.340065 4.1377659,11.243023 5.2491734,11.243023 z "
         id="path8584" />
    </g>
    <g
       id="g8586"
       transform="matrix(2.010431,0,0,1.497269,86.14429,24.3392)">
      <path
         style="fill:#787b4b;fill-opacity:1;stroke:none;stroke-width:1.2668643;stroke-linecap:round;stroke-miterlimit:4;stroke-opacity:1"
         d="M 6.193868,12.078088 L 14.363898,12.078088 C 15.516488,12.078088 16.444385,13.197549 16.444385,14.58809 L 16.444385,22.489998 C 16.444385,23.88054 15.516488,25 14.363898,25 L 6.193868,25 C 5.041278,25 4.113381,23.88054 4.113381,22.489998 L 4.113381,14.58809 C 4.113381,13.197549 5.041278,12.078088 6.193868,12.078088 z "
         id="path8588" />
      <path
         style="fill:#f0f0f0;fill-opacity:1;stroke:black;stroke-width:0.48604509;stroke-linecap:square;stroke-linejoin:round;stroke-miterlimit:4;stroke-dasharray:none;stroke-opacity:1"
         d="M 5.2491734,11.243023 L 13.127285,11.243023 C 14.238693,11.243023 15.133436,12.340065 15.133436,13.70276 L 15.133436,21.446425 C 15.133436,22.80912 14.238693,23.906162 13.127285,23.906162 L 5.2491734,23.906162 C 4.1377659,23.906162 3.2430226,22.80912 3.2430226,21.446425 L 3.2430226,13.70276 C 3.2430226,12.340065 4.1377659,11.243023 5.2491734,11.243023 z "
         id="path8590" />
    </g>
    <g
       id="g8616"
       transform="matrix(2.010431,0,0,1.497269,-0.304208,48.97608)">
      <path
         style="fill:#787b4b;fill-opacity:1;stroke:none;stroke-width:1.2668643;stroke-linecap:round;stroke-miterlimit:4;stroke-opacity:1"
         d="M 6.193868,12.078088 L 14.363898,12.078088 C 15.516488,12.078088 16.444385,13.197549 16.444385,14.58809 L 16.444385,22.489998 C 16.444385,23.88054 15.516488,25 14.363898,25 L 6.193868,25 C 5.041278,25 4.113381,23.88054 4.113381,22.489998 L 4.113381,14.58809 C 4.113381,13.197549 5.041278,12.078088 6.193868,12.078088 z "
         id="path8618" />
      <path
         style="fill:#f0f0f0;fill-opacity:1;stroke:black;stroke-width:0.48604509;stroke-linecap:square;stroke-linejoin:round;stroke-miterlimit:4;stroke-dasharray:none;stroke-opacity:1"
         d="M 5.2491734,11.243023 L 13.127285,11.243023 C 14.238693,11.243023 15.133436,12.340065 15.133436,13.70276 L 15.133436,21.446425 C 15.133436,22.80912 14.238693,23.906162 13.127285,23.906162 L 5.2491734,23.906162 C 4.1377659,23.906162 3.2430226,22.80912 3.2430226,21.446425 L 3.2430226,13.70276 C 3.2430226,12.340065 4.1377659,11.243023 5.2491734,11.243023 z "
         id="path8620" />
    </g>
    <g
       id="g8622"
       transform="matrix(2.010431,0,0,1.497269,27.84182,48.97608)">
      <path
         style="fill:#787b4b;fill-opacity:1;stroke:none;stroke-width:1.2668643;stroke-linecap:round;stroke-miterlimit:4;stroke-opacity:1"
         d="M 6.193868,12.078088 L 14.363898,12.078088 C 15.516488,12.078088 16.444385,13.197549 16.444385,14.58809 L 16.444385,22.489998 C 16.444385,23.88054 15.516488,25 14.363898,25 L 6.193868,25 C 5.041278,25 4.113381,23.88054 4.113381,22.489998 L 4.113381,14.58809 C 4.113381,13.197549 5.041278,12.078088 6.193868,12.078088 z "
         id="path8624" />
      <path
         style="fill:#f0f0f0;fill-opacity:1;stroke:black;stroke-width:0.48604509;stroke-linecap:square;stroke-linejoin:round;stroke-miterlimit:4;stroke-dasharray:none;stroke-opacity:1"
         d="M 5.2491734,11.243023 L 13.127285,11.243023 C 14.238693,11.243023 15.133436,12.340065 15.133436,13.70276 L 15.133436,21.446425 C 15.133436,22.80912 14.238693,23.906162 13.127285,23.906162 L 5.2491734,23.906162 C 4.1377659,23.906162 3.2430226,22.80912 3.2430226,21.446425 L 3.2430226,13.70276 C 3.2430226,12.340065 4.1377659,11.243023 5.2491734,11.243023 z "
         id="path8626" />
    </g>
    <g
       id="g8628"
       transform="matrix(2.010431,0,0,1.497269,56.90167,48.97608)">
      <path
         style="fill:#787b4b;fill-opacity:1;stroke:none;stroke-width:1.2668643;stroke-linecap:round;stroke-miterlimit:4;stroke-opacity:1"
         d="M 6.193868,12.078088 L 14.363898,12.078088 C 15.516488,12.078088 16.444385,13.197549 16.444385,14.58809 L 16.444385,22.489998 C 16.444385,23.88054 15.516488,25 14.363898,25 L 6.193868,25 C 5.041278,25 4.113381,23.88054 4.113381,22.489998 L 4.113381,14.58809 C 4.113381,13.197549 5.041278,12.078088 6.193868,12.078088 z "
         id="path8630" />
      <path
         style="fill:#f0f0f0;fill-opacity:1;stroke:black;stroke-width:0.48604509;stroke-linecap:square;stroke-linejoin:round;stroke-miterlimit:4;stroke-dasharray:none;stroke-opacity:1"
         d="M 5.2491734,11.243023 L 13.127285,11.243023 C 14.238693,11.243023 15.133436,12.340065 15.133436,13.70276 L 15.133436,21.446425 C 15.133436,22.80912 14.238693,23.906162 13.127285,23.906162 L 5.2491734,23.906162 C 4.1377659,23.906162 3.2430226,22.80912 3.2430226,21.446425 L 3.2430226,13.70276 C 3.2430226,12.340065 4.1377659,11.243023 5.2491734,11.243023 z "
         id="path8632" />
    </g>
    <g
       id="g8634"
       transform="matrix(2.010431,0,0,1.497269,86.14429,48.97608)">
      <path
         style="fill:#787b4b;fill-opacity:1;stroke:none;stroke-width:1.2668643;stroke-linecap:round;stroke-miterlimit:4;stroke-opacity:1"
         d="M 6.193868,12.078088 L 14.363898,12.078088 C 15.516488,12.078088 16.444385,13.197549 16.444385,14.58809 L 16.444385,22.489998 C 16.444385,23.88054 15.516488,25 14.363898,25 L 6.193868,25 C 5.041278,25 4.113381,23.88054 4.113381,22.489998 L 4.113381,14.58809 C 4.113381,13.197549 5.041278,12.078088 6.193868,12.078088 z "
         id="path8636" />
      <path
         style="fill:#f0f0f0;fill-opacity:1;stroke:black;stroke-width:0.48604509;stroke-linecap:square;stroke-linejoin:round;stroke-miterlimit:4;stroke-dasharray:none;stroke-opacity:1"
         d="M 5.2491734,11.243023 L 13.127285,11.243023 C 14.238693,11.243023 15.133436,12.340065 15.133436,13.70276 L 15.133436,21.446425 C 15.133436,22.80912 14.238693,23.906162 13.127285,23.906162 L 5.2491734,23.906162 C 4.1377659,23.906162 3.2430226,22.80912 3.2430226,21.446425 L 3.2430226,13.70276 C 3.2430226,12.340065 4.1377659,11.243023 5.2491734,11.243023 z "
         id="path8638" />
    </g>
    <text
       xml:space="preserve"
       style="font-size:9.98981667px;font-style:normal;font-variant:normal;font-weight:normal;font-stretch:normal;text-align:start;line-height:125%;writing-mode:lr-tb;text-anchor:start;fill:#f9f9f9;fill-opacity:1;stroke:none;stroke-width:1px;stroke-linecap:butt;stroke-linejoin:miter;stroke-opacity:1;font-family:Bitstream Vera Sans"
       x="32.177395"
       y="14.124946"
       id="text3657"
       transform="scale(1.351782,0.739764)"
       sodipodi:linespacing="125%"><tspan
         sodipodi:role="line"
         id="tspan2050"
         x="32.177395"
         y="14.124946">2006</tspan></text>
  </g>
</svg>
