<?xml version="1.0" encoding="UTF-8"?>
<!DOCTYPE svg PUBLIC "-//W3C//DTD SVG 1.1//EN" "http://www.w3.org/Graphics/SVG/1.1/DTD/svg11.dtd">
<svg version="1.1" id="Layer_1" xmlns="http://www.w3.org/2000/svg" xmlns:xlink="http://www.w3.org/1999/xlink" x="0px" y="0px" width="32px" height="32px" viewBox="0 0 32 32" enable-background="new 0 0 32 32" xml:space="preserve">
  <g id="icon">
    <path d="M28,32H2V0h26v2h4v23h-4V32zM4,30h22V2H4V30zM28,23h2v-5h-2V23zM28,16h2v-5h-2V16zM28,9h2V4h-2V9zM14.486,23.972c-2.389,0,-4.55,-0.804,-6.085,-2.263C6.853,20.237,6,18.157,6,15.853c0,-2.749,0.995,-5.255,2.803,-7.058C10.61,6.993,13.122,6,15.875,6C20.811,6,24,9.041,24,13.747c0,3.811,-2.311,6.171,-4.452,6.171h-0.085l-0.084,-0.014c-0.439,-0.075,-1.239,-0.27,-1.654,-0.725c-0.227,-0.249,-0.503,-0.605,-0.732,-1.062c-0.919,0.931,-2.112,1.616,-3.453,1.616c-2.036,0,-3.458,-1.383,-3.458,-3.364c0,-3.51,2.899,-6.366,6.463,-6.366c1.074,0,1.786,0.181,2.194,0.332l1.068,0.397l-0.977,4.151c-0.054,0.253,-0.135,0.52,-0.242,0.793c-0.19,0.962,0.186,1.662,0.563,2.098c0.096,0.044,0.296,0.103,0.476,0.141c1.017,-0.079,2.373,-1.649,2.373,-4.167C22,10.149,19.71,8,15.875,8C11.312,8,8,11.303,8,15.853c0,3.66,2.606,6.119,6.486,6.119c1.435,0,2.722,-0.25,3.723,-0.723l0.855,1.808C17.797,23.656,16.214,23.972,14.486,23.972zM16.544,12.002c-2.461,0,-4.463,1.958,-4.463,4.366c0,1.187,0.913,1.364,1.458,1.364c1.592,0,3.063,-1.97,3.336,-3.273l0.005,-0.023l0.558,-2.372C17.204,12.028,16.909,12.002,16.544,12.002z" fill="#000000"/>
  </g>
</svg>
