<?xml version="1.0" encoding="UTF-8"?>
<!DOCTYPE svg PUBLIC "-//W3C//DTD SVG 1.1//EN" "http://www.w3.org/Graphics/SVG/1.1/DTD/svg11.dtd">
<svg version="1.1" id="Layer_1" xmlns="http://www.w3.org/2000/svg" xmlns:xlink="http://www.w3.org/1999/xlink" x="0px" y="0px" width="32px" height="32px" viewBox="0 0 32 32" enable-background="new 0 0 32 32" xml:space="preserve">
  <g id="icon">
    <path d="M5.464,31.962L3.81,30.838l2.925,-4.303C3.833,23.963,2,20.206,2,16.028c0,-1.425,0.213,-2.801,0.609,-4.098C0.982,10.68,0,8.724,0,6.65C0,2.983,2.983,0,6.65,0c2.072,0,4.027,0.981,5.277,2.605C13.216,2.212,14.584,2,16,2c1.423,0,2.797,0.214,4.093,0.611C21.342,0.984,23.3,0,25.374,0c3.667,0,6.65,2.983,6.65,6.65c0,2.082,-0.99,4.046,-2.629,5.294c0.393,1.292,0.605,2.664,0.605,4.083c0,4.149,-1.807,7.883,-4.673,10.453l2.961,4.357l-1.654,1.124l-2.89,-4.253c-2.219,1.482,-4.882,2.346,-7.743,2.346c-2.832,0,-5.47,-0.847,-7.676,-2.301L5.464,31.962zM16,4C9.383,4,4,9.396,4,16.028s5.383,12.028,12,12.028c6.617,0,12,-5.396,12,-12.028S22.617,4,16,4zM22.065,3.386c2.861,1.384,5.184,3.715,6.561,6.584c0.88,-0.866,1.398,-2.062,1.398,-3.32c0,-2.564,-2.086,-4.65,-4.65,-4.65C24.122,2,22.93,2.513,22.065,3.386zM6.65,2C4.086,2,2,4.086,2,6.65c0,1.25,0.511,2.44,1.381,3.304c1.38,-2.867,3.706,-5.195,6.569,-6.576C9.087,2.51,7.898,2,6.65,2zM20.793,22.207L15,16.414V7h2v8.586l5.207,5.207L20.793,22.207z" fill="#000000"/>
  </g>
</svg>
