<?xml version="1.0" encoding="UTF-8"?>
<!DOCTYPE svg PUBLIC "-//W3C//DTD SVG 1.1//EN" "http://www.w3.org/Graphics/SVG/1.1/DTD/svg11.dtd">
<svg version="1.1" id="Layer_1" xmlns="http://www.w3.org/2000/svg" xmlns:xlink="http://www.w3.org/1999/xlink" x="0px" y="0px" width="32px" height="32px" viewBox="0 0 32 32" enable-background="new 0 0 32 32" xml:space="preserve">
  <g id="icon">
    <path d="M15.592,32c-2.609,0,-4.654,-1.638,-5.113,-3.945c-1.068,-0.088,-2.16,-0.198,-3.197,-0.328c-5.677,-0.713,-6.797,-1.601,-7.162,-2.455c-0.115,-0.27,-0.308,-0.965,0.337,-1.676c0.313,-0.403,0.654,-0.815,1.015,-1.251c1.947,-2.349,4.37,-5.273,4.37,-9.567c0,-3.946,2.474,-7.441,6.233,-8.916C12.213,1.709,13.957,0,16.082,0c2.177,0,3.955,1.794,4.016,4.023c3.527,1.56,5.848,4.991,5.848,8.755c0,3.687,3.628,8.604,5.546,10.689l0,0c0.715,0.777,0.502,1.524,0.377,1.809c-0.369,0.842,-1.514,1.795,-7.205,2.488c-1.284,0.156,-2.633,0.278,-3.915,0.367C20.254,30.398,18.202,32,15.592,32zM12.602,28.205c0.494,1.182,1.748,1.795,2.99,1.795c1.248,0,2.507,-0.595,3.025,-1.745c-1.019,0.046,-1.926,0.069,-2.63,0.069C15.121,28.324,13.93,28.284,12.602,28.205zM2.218,24.591c0.55,0.264,2.009,0.759,5.704,1.199c2.943,0.35,6.285,0.534,8.065,0.534c1.802,0,5.103,-0.158,8.091,-0.504c3.799,-0.44,5.224,-0.963,5.731,-1.23c-2.275,-2.542,-5.864,-7.647,-5.864,-11.812c0,-3.168,-2.101,-6.042,-5.229,-7.154l-0.79,-0.281l0.138,-0.827c0.023,-0.137,0.034,-0.26,0.034,-0.376c0,-1.18,-0.905,-2.141,-2.017,-2.141c-1.113,0,-2.018,0.96,-2.018,2.141c0,0.084,0.007,0.177,0.022,0.294l0.108,0.835l-0.804,0.249c-3.32,1.029,-5.55,3.946,-5.55,7.259c0,5.015,-2.791,8.384,-4.83,10.843C2.731,23.959,2.464,24.282,2.218,24.591z" fill="#000000"/>
  </g>
</svg>
