<?xml version="1.0" encoding="UTF-8"?>
<!DOCTYPE svg PUBLIC "-//W3C//DTD SVG 1.1//EN" "http://www.w3.org/Graphics/SVG/1.1/DTD/svg11.dtd">
<svg version="1.1" id="Layer_1" xmlns="http://www.w3.org/2000/svg" xmlns:xlink="http://www.w3.org/1999/xlink" x="0px" y="0px" width="32px" height="32px" viewBox="0 0 32 32" enable-background="new 0 0 32 32" xml:space="preserve">
  <g id="icon">
    <path d="M16,32c-6.741,0,-12.268,-5.292,-12.646,-11.94l-1.647,1.647L0.293,20.293l4.04,-4.04l4.04,4.04L6.96,21.707l-1.598,-1.598c0.374,5.19,4.479,9.363,9.639,9.845V14h-3v-2h3V8.55c-1.909,-0.453,-3.333,-2.171,-3.333,-4.217C11.667,1.944,13.611,0,16,0s4.333,1.944,4.333,4.333c0,2.045,-1.424,3.764,-3.333,4.217V12h3v2h-3v15.954c5.16,-0.482,9.264,-4.655,9.639,-9.845l-1.598,1.598l-1.414,-1.414l4.041,-4.04l4.04,4.04l-1.414,1.414l-1.647,-1.647C28.268,26.708,22.741,32,16,32zM16,2c-1.287,0,-2.333,1.047,-2.333,2.333c0,1.287,1.047,2.333,2.333,2.333s2.333,-1.047,2.333,-2.333C18.333,3.047,17.287,2,16,2z" fill="#000000"/>
  </g>
</svg>
