<?xml version="1.0" encoding="UTF-8"?>
<!DOCTYPE svg PUBLIC "-//W3C//DTD SVG 1.1//EN" "http://www.w3.org/Graphics/SVG/1.1/DTD/svg11.dtd">
<svg version="1.1" id="Layer_1" xmlns="http://www.w3.org/2000/svg" xmlns:xlink="http://www.w3.org/1999/xlink" x="0px" y="0px" width="32px" height="32px" viewBox="0 0 32 32" enable-background="new 0 0 32 32" xml:space="preserve">
  <g id="icon">
    <path d="M32,30.402l-16.458,-4.995l-0.084,0.28c-0.348,1.184,-1.144,2.161,-2.24,2.747c-1.079,0.577,-2.358,0.703,-3.508,0.346c-1.185,-0.351,-2.16,-1.146,-2.744,-2.239c-0.577,-1.08,-0.703,-2.359,-0.345,-3.511l0.091,-0.303L4.313,22H0V12h4.315L32,3.702V30.402zM2,20h2.61L30,27.705V6.39L4.608,14H2V20zM8.625,23.309l-0.094,0.313c-0.201,0.644,-0.129,1.365,0.198,1.977c0.331,0.619,0.882,1.068,1.553,1.265l0.016,0.005c0.644,0.201,1.365,0.129,1.977,-0.198c0.619,-0.331,1.068,-0.882,1.265,-1.553l0.087,-0.291L8.625,23.309z" fill="#000000"/>
  </g>
</svg>
