<?xml version="1.0" encoding="UTF-8"?>
<!DOCTYPE svg PUBLIC "-//W3C//DTD SVG 1.1//EN" "http://www.w3.org/Graphics/SVG/1.1/DTD/svg11.dtd">
<svg version="1.1" id="Layer_1" xmlns="http://www.w3.org/2000/svg" xmlns:xlink="http://www.w3.org/1999/xlink" x="0px" y="0px" width="32px" height="32px" viewBox="0 0 32 32" enable-background="new 0 0 32 32" xml:space="preserve">
  <g id="icon">
    <path d="M30,30H2V12H0V2h32v10h-2V30zM4,28h24V12H4V28zM2,10h28V4H2V10zM19,22h-6c-1.654,0,-3,-1.346,-3,-3s1.346,-3,3,-3h6c1.654,0,3,1.346,3,3S20.654,22,19,22zM13,18c-0.551,0,-1,0.449,-1,1s0.449,1,1,1h6c0.551,0,1,-0.449,1,-1s-0.449,-1,-1,-1H13z" fill="#000000"/>
  </g>
</svg>
