<?xml version="1.0" encoding="UTF-8"?>
<!DOCTYPE svg PUBLIC "-//W3C//DTD SVG 1.1//EN" "http://www.w3.org/Graphics/SVG/1.1/DTD/svg11.dtd">
<svg version="1.1" id="Layer_1" xmlns="http://www.w3.org/2000/svg" xmlns:xlink="http://www.w3.org/1999/xlink" x="0px" y="0px" width="32px" height="32px" viewBox="0 0 32 32" enable-background="new 0 0 32 32" xml:space="preserve">
  <g id="icon">
    <path d="M16,31.992c-4.097,0,-8.194,-1.56,-11.314,-4.679c-6.238,-6.238,-6.238,-16.389,0,-22.627c6.238,-6.238,16.389,-6.238,22.627,0c6.238,6.238,6.238,16.389,0,22.627C24.195,30.433,20.097,31.992,16,31.992zM16,2.007c-3.585,0,-7.17,1.365,-9.899,4.094c-5.459,5.459,-5.459,14.34,0,19.799c2.729,2.729,6.315,4.094,9.899,4.094c3.586,0,7.17,-1.364,9.9,-4.094c5.459,-5.459,5.459,-14.34,0,-19.799C23.17,3.371,19.585,2.007,16,2.007zM21.45,22.864l-9.45,-9.45V22h-2V10h12v2h-8.586l9.45,9.45L21.45,22.864z" fill="#000000"/>
  </g>
</svg>
