<?xml version="1.0" encoding="UTF-8"?>
<!DOCTYPE svg PUBLIC "-//W3C//DTD SVG 1.1//EN" "http://www.w3.org/Graphics/SVG/1.1/DTD/svg11.dtd">
<svg version="1.1" id="Layer_1" xmlns="http://www.w3.org/2000/svg" xmlns:xlink="http://www.w3.org/1999/xlink" x="0px" y="0px" width="32px" height="32px" viewBox="0 0 32 32" enable-background="new 0 0 32 32" xml:space="preserve">
  <g id="icon">
    <path d="M15,31.967c-3.86,0,-7,-3.14,-7,-7V5c0,-2.757,2.243,-5,5,-5c2.757,0,5,2.243,5,5v18.633c0,1.654,-1.346,3,-3,3s-3,-1.346,-3,-3V8h2v15.633c0,0.551,0.449,1,1,1s1,-0.449,1,-1V5c0,-1.654,-1.346,-3,-3,-3s-3,1.346,-3,3v19.967c0,2.757,2.243,5,5,5s5,-2.243,5,-5V12h2v12.967C22,28.826,18.86,31.967,15,31.967z" fill="#000000"/>
  </g>
</svg>
