<?xml version="1.0" encoding="UTF-8"?>
<!DOCTYPE svg PUBLIC "-//W3C//DTD SVG 1.1//EN" "http://www.w3.org/Graphics/SVG/1.1/DTD/svg11.dtd">
<svg version="1.1" id="Layer_1" xmlns="http://www.w3.org/2000/svg" xmlns:xlink="http://www.w3.org/1999/xlink" x="0px" y="0px" width="32px" height="32px" viewBox="0 0 32 32" enable-background="new 0 0 32 32" xml:space="preserve">
  <g id="icon">
    <path d="M28,32H5.576C3.471,32,2,30.723,2,28.894V3C2,1.206,3.435,0,5.57,0H28v2h-1c-0.598,0,-1.6,0.13,-1.6,1h-2c0,-0.358,0.058,-0.693,0.167,-1H5.57C4.854,2,4,2.173,4,3c0,0.247,0,1,1.5,1h18.067c-0.11,-0.307,-0.167,-0.642,-0.167,-1h2c0,0.87,1.002,1,1.6,1h1V32zM4,5.769v23.125C4,29.892,5.102,30,5.576,30H26V6H5.5C4.945,6,4.441,5.92,4,5.769z" fill="#000000"/>
    <path d="M22,18H8v-8h14V18zM10,16h10v-4H10V16z" fill="#000000"/>
  </g>
</svg>
