<?xml version="1.0" encoding="UTF-8"?>
<!DOCTYPE svg PUBLIC "-//W3C//DTD SVG 1.1//EN" "http://www.w3.org/Graphics/SVG/1.1/DTD/svg11.dtd">
<svg version="1.1" id="Layer_1" xmlns="http://www.w3.org/2000/svg" xmlns:xlink="http://www.w3.org/1999/xlink" x="0px" y="0px" width="32px" height="32px" viewBox="0 0 32 32" enable-background="new 0 0 32 32" xml:space="preserve">
  <g id="icon">
    <path d="M32,30H0V5h8V3.017C8,1.353,9.353,0,11.017,0h9.967C22.647,0,24,1.353,24,3.017V5h8V30zM2,28h28V16.883c-2.972,0.925,-6.398,1.545,-10,1.807V22h-8v-3.31c-3.605,-0.262,-7.028,-0.882,-10,-1.807V28zM14,20h4v-4h-4V20zM2,14.782c2.92,0.974,6.354,1.627,10,1.902V14h8v2.684c3.643,-0.275,7.081,-0.929,10,-1.902V7H2V14.782zM10,5h12V3.017c0,-0.561,-0.456,-1.017,-1.017,-1.017h-9.967C10.456,2,10,2.456,10,3.017V5z" fill="#000000"/>
  </g>
</svg>
