<?xml version="1.0" encoding="UTF-8"?>
<!DOCTYPE svg PUBLIC "-//W3C//DTD SVG 1.1//EN" "http://www.w3.org/Graphics/SVG/1.1/DTD/svg11.dtd">
<svg version="1.1" id="Layer_1" xmlns="http://www.w3.org/2000/svg" xmlns:xlink="http://www.w3.org/1999/xlink" x="0px" y="0px" width="32px" height="32px" viewBox="0 0 32 32" enable-background="new 0 0 32 32" xml:space="preserve">
  <g id="icon">
    <path d="M17,31h-2v-5.581h2V31zM25.98,27.395l-4.027,-4.027l1.414,-1.414l4.027,4.027L25.98,27.395zM6.02,27.395L4.606,25.98l4.027,-4.027l1.414,1.414L6.02,27.395zM16,24.031c-4.428,0,-8.031,-3.603,-8.031,-8.031c0,-4.428,3.603,-8.031,8.031,-8.031c4.428,0,8.031,3.603,8.031,8.031C24.031,20.428,20.428,24.031,16,24.031zM16,9.969c-3.326,0,-6.031,2.706,-6.031,6.031s2.706,6.031,6.031,6.031s6.031,-2.706,6.031,-6.031S19.326,9.969,16,9.969zM31,17h-5.581v-2H31V17zM6.581,17H1v-2h5.581V17zM23.367,10.047l-1.414,-1.414l4.027,-4.027l1.414,1.414L23.367,10.047zM8.633,10.047L4.606,6.02L6.02,4.606l4.027,4.027L8.633,10.047zM17,6.581h-2V1h2V6.581z" fill="#000000"/>
    <path d="M16,9v14c3.866,0,7,-3.134,7,-7C23,12.134,19.866,9,16,9z" fill="#000000"/>
  </g>
</svg>
