<?xml version="1.0" encoding="UTF-8"?>
<!DOCTYPE svg PUBLIC "-//W3C//DTD SVG 1.1//EN" "http://www.w3.org/Graphics/SVG/1.1/DTD/svg11.dtd">
<svg version="1.1" id="Layer_1" xmlns="http://www.w3.org/2000/svg" xmlns:xlink="http://www.w3.org/1999/xlink" x="0px" y="0px" width="32px" height="32px" viewBox="0 0 32 32" enable-background="new 0 0 32 32" xml:space="preserve">
  <g id="icon">
    <path d="M28,32H4V0h24V32zM6,30h20V2H6V30zM24,28h-4v-2h4V28zM18,28h-4v-2h4V28zM12,28H8v-2h4V28zM24,24h-4v-2h4V24zM18,24h-4v-2h4V24zM12,24H8v-2h4V24zM24,20h-4v-2h4V20zM18,20h-4v-2h4V20zM12,20H8v-2h4V20zM24,16h-4v-2h4V16zM18,16h-4v-2h4V16zM12,16H8v-2h4V16zM24,10H8V4h16V10zM10,8h12V6H10V8z" fill="#000000"/>
  </g>
</svg>
