<?xml version="1.0" encoding="UTF-8"?>
<!DOCTYPE svg PUBLIC "-//W3C//DTD SVG 1.1//EN" "http://www.w3.org/Graphics/SVG/1.1/DTD/svg11.dtd">
<svg version="1.1" id="Layer_1" xmlns="http://www.w3.org/2000/svg" xmlns:xlink="http://www.w3.org/1999/xlink" x="0px" y="0px" width="32px" height="32px" viewBox="0 0 32 32" enable-background="new 0 0 32 32" xml:space="preserve">
  <g id="icon">
    <path d="M32,30H0V2h6V0h2v2h16V0h2v2h6V30zM2,28h28V10H2V28zM2,8h28V4h-4v2h-2V4H8v2H6V4H2V8z" fill="#000000"/>
    <path d="M25.594,22.294c-0.013,0.111,-0.033,0.22,-0.061,0.326c-0.217,0.823,-0.638,1.526,-1.253,2.087c-0.41,0.375,-0.9,0.676,-1.455,0.894c-0.558,0.22,-1.171,0.331,-1.82,0.331c-0.55,0,-1.05,-0.059,-1.484,-0.175c-0.438,-0.117,-0.83,-0.277,-1.165,-0.475c-0.349,-0.206,-0.65,-0.455,-0.896,-0.739c-0.221,-0.257,-0.41,-0.528,-0.56,-0.807c-0.145,-0.268,-0.263,-0.543,-0.35,-0.817c-0.065,-0.201,-0.115,-0.433,-0.155,-0.619c-0.013,-0.06,-0.025,-0.116,-0.036,-0.164l1.903,-0.599l0.033,0.083l-0.371,0.148l0.382,-0.09c0.013,0.058,0.028,0.125,0.044,0.197c0.031,0.144,0.07,0.323,0.105,0.432c0.05,0.157,0.12,0.318,0.207,0.479c0.082,0.151,0.187,0.302,0.313,0.448c0.103,0.119,0.237,0.228,0.399,0.324c0.179,0.106,0.402,0.195,0.664,0.265c0.266,0.071,0.591,0.107,0.967,0.107c0.398,0,0.763,-0.065,1.088,-0.192c0.327,-0.129,0.609,-0.3,0.838,-0.51c0.33,-0.302,0.549,-0.668,0.668,-1.12c0.004,-0.013,0.006,-0.029,0.008,-0.045c0.048,-0.417,0.012,-0.774,-0.109,-1.092c-0.081,-0.213,-0.196,-0.393,-0.35,-0.55c-0.051,-0.052,-0.22,-0.195,-0.706,-0.405c-0.003,-0.001,-0.816,-0.377,-1.643,-0.464v-1.537c0.274,-0.041,1.193,-0.394,1.317,-0.438c0.14,-0.069,0.504,-0.253,0.657,-0.406c0.161,-0.161,0.288,-0.345,0.388,-0.565c0.09,-0.196,0.134,-0.414,0.134,-0.664c0,-0.361,-0.056,-0.661,-0.167,-0.892c-0.111,-0.232,-0.251,-0.412,-0.426,-0.551c-0.194,-0.153,-0.412,-0.264,-0.667,-0.339c-0.283,-0.083,-0.58,-0.125,-0.881,-0.125c-0.341,0,-0.656,0.051,-0.935,0.152c-0.276,0.1,-0.511,0.236,-0.718,0.416c-0.204,0.177,-0.368,0.391,-0.501,0.652c-0.138,0.27,-0.231,0.584,-0.277,0.933l-1.983,-0.26c0.076,-0.577,0.237,-1.11,0.479,-1.584c0.249,-0.486,0.575,-0.907,0.969,-1.25c0.391,-0.341,0.846,-0.606,1.351,-0.788c0.499,-0.18,1.042,-0.271,1.616,-0.271c0.492,0,0.978,0.07,1.445,0.207c0.499,0.147,0.951,0.379,1.344,0.69c0.412,0.326,0.744,0.747,0.986,1.251c0.242,0.505,0.365,1.096,0.365,1.759c0,0.535,-0.106,1.039,-0.315,1.496c-0.199,0.434,-0.465,0.82,-0.792,1.147c-0.022,0.022,-0.044,0.043,-0.067,0.064c0.178,0.119,0.329,0.243,0.457,0.374c0.344,0.352,0.61,0.768,0.788,1.235C25.602,20.877,25.679,21.561,25.594,22.294zM13.486,20.103c0.346,-0.37,0.656,-0.755,0.922,-1.145c0.283,-0.415,0.512,-0.857,0.681,-1.313c0.182,-0.492,0.274,-1.025,0.274,-1.585c0,-0.687,-0.127,-1.298,-0.379,-1.816c-0.248,-0.51,-0.581,-0.94,-0.991,-1.278c-0.401,-0.33,-0.863,-0.576,-1.372,-0.729c-0.477,-0.144,-0.97,-0.217,-1.465,-0.217c-0.574,0,-1.117,0.091,-1.615,0.271c-0.505,0.183,-0.96,0.448,-1.351,0.788c-0.395,0.344,-0.721,0.764,-0.969,1.25c-0.243,0.475,-0.404,1.008,-0.479,1.584l1.983,0.259c0.046,-0.349,0.139,-0.663,0.277,-0.933c0.134,-0.261,0.298,-0.475,0.501,-0.652c0.207,-0.18,0.442,-0.316,0.718,-0.416c0.279,-0.101,0.594,-0.152,0.935,-0.152c0.299,0,0.597,0.044,0.887,0.132c0.259,0.078,0.481,0.196,0.679,0.358c0.189,0.155,0.34,0.354,0.463,0.608c0.118,0.243,0.178,0.56,0.178,0.942c0,0.322,-0.05,0.622,-0.15,0.891c-0.112,0.303,-0.266,0.599,-0.457,0.879c-0.209,0.306,-0.455,0.611,-0.732,0.907c-0.304,0.325,-0.629,0.664,-0.967,1.007L6.6,24.273V26h8.4v-2H9.746l2.742,-2.857C12.836,20.789,13.172,20.439,13.486,20.103z" fill="#000000"/>
  </g>
</svg>
