<?xml version="1.0" encoding="UTF-8"?>
<!DOCTYPE svg PUBLIC "-//W3C//DTD SVG 1.1//EN" "http://www.w3.org/Graphics/SVG/1.1/DTD/svg11.dtd">
<svg version="1.1" id="Layer_1" xmlns="http://www.w3.org/2000/svg" xmlns:xlink="http://www.w3.org/1999/xlink" x="0px" y="0px" width="32px" height="32px" viewBox="0 0 32 32" enable-background="new 0 0 32 32" xml:space="preserve">
  <g id="icon">
    <path d="M32,30H0V2h6V0h2v2h16V0h2v2h6V30zM2,28h28V10H2V28zM2,8h28V4h-4v2h-2V4H8v2H6V4H2V8z" fill="#000000"/>
    <rect x="5" y="14" width="4" height="4" fill="#000000"/>
    <rect x="11" y="14" width="4" height="4" fill="#000000"/>
    <rect x="17" y="14" width="4" height="4" fill="#000000"/>
    <rect x="23" y="14" width="4" height="4" fill="#000000"/>
    <rect x="5" y="20" width="4" height="4" fill="#000000"/>
    <rect x="11" y="20" width="4" height="4" fill="#000000"/>
    <rect x="17" y="20" width="4" height="4" fill="#000000"/>
    <rect x="23" y="20" width="4" height="4" fill="#000000"/>
  </g>
</svg>
