<?xml version="1.0" encoding="UTF-8"?>
<!DOCTYPE svg PUBLIC "-//W3C//DTD SVG 1.1//EN" "http://www.w3.org/Graphics/SVG/1.1/DTD/svg11.dtd">
<svg version="1.1" id="Layer_1" xmlns="http://www.w3.org/2000/svg" xmlns:xlink="http://www.w3.org/1999/xlink" x="0px" y="0px" width="32px" height="32px" viewBox="0 0 32 32" enable-background="new 0 0 32 32" xml:space="preserve">
  <g id="icon">
    <path d="M16.05,21.344c-5.873,0,-10.65,-4.788,-10.65,-10.672C5.4,4.787,10.178,0,16.05,0c5.873,0,10.651,4.787,10.651,10.672C26.701,16.557,21.923,21.344,16.05,21.344zM16.05,2C11.281,2,7.4,5.89,7.4,10.672c0,4.782,3.881,8.672,8.65,8.672c4.77,0,8.651,-3.89,8.651,-8.672C24.701,5.89,20.82,2,16.05,2z" fill="#000000"/>
    <polygon points="18.483,31.894 15.412,20.936 17.338,20.397 19.498,28.106 21.375,26.272 23.999,26.241 20.344,19.704 22.089,18.728 27.386,28.201 22.2,28.262" fill="#000000" stroke-linejoin="miter"/>
    <polygon points="13.612,31.894 9.896,28.262 4.709,28.201 10.006,18.728 11.752,19.704 8.097,26.241 10.721,26.272 12.597,28.106 14.758,20.397 16.683,20.936" fill="#000000" stroke-linejoin="miter"/>
  </g>
</svg>
