<?xml version="1.0" encoding="UTF-8"?>
<!DOCTYPE svg PUBLIC "-//W3C//DTD SVG 1.1//EN" "http://www.w3.org/Graphics/SVG/1.1/DTD/svg11.dtd">
<svg version="1.1" id="Layer_1" xmlns="http://www.w3.org/2000/svg" xmlns:xlink="http://www.w3.org/1999/xlink" x="0px" y="0px" width="32px" height="32px" viewBox="0 0 32 32" enable-background="new 0 0 32 32" xml:space="preserve">
  <g id="icon">
    <path d="M16.855,32.031c-3.061,0,-7.467,-2.391,-9.512,-3.609c-1.929,-1.149,-3.702,-2.41,-4.992,-3.55C0.179,22.954,-0.009,21.926,0.039,21.32c0.051,-0.644,0.454,-1.163,1.107,-1.424c2.938,-1.175,5.003,-3.966,6.972,-6.734l-0.013,-0.009l0.602,-0.818c0.38,-0.516,2.26,-2.871,2.34,-2.971l0.595,-0.745l0.773,0.56c0.01,0.007,1.005,0.725,2.164,1.36c1.726,0.946,2.393,0.943,2.552,0.922c0.732,-1.177,1.177,-2.529,1.648,-3.959c0.306,-0.929,0.623,-1.89,1.027,-2.806c1.533,-3.475,4.119,-5.184,6.917,-4.572c0.991,0.217,1.866,0.603,2.6,1.15c0.768,0.521,1.403,1.2,1.941,2.076c1.498,2.44,0.728,5.441,-2.06,8.028c-0.734,0.681,-1.539,1.295,-2.318,1.888c-1.2,0.914,-2.334,1.779,-3.209,2.855c0.032,0.159,0.25,0.797,1.721,2.137c0.986,0.899,1.998,1.615,2.008,1.623l0.84,0.593l-0.616,0.823c-0.637,0.851,-1.914,2.564,-2.188,2.961l-0.577,0.835l-0.026,-0.019c-1.68,2.247,-4.294,5.351,-6.011,6.464C18.289,31.884,17.613,32.031,16.855,32.031zM2.12,21.657c0.241,0.441,1.031,1.414,3.042,2.917c1.984,1.482,4.51,2.979,6.757,4.003c3.378,1.54,5.246,1.652,5.82,1.281c1.302,-0.844,3.669,-3.536,5.47,-5.945L9.747,14.323C7.743,17.138,5.46,20.225,2.12,21.657zM10.94,12.717l13.45,9.581c0.328,-0.445,0.721,-0.974,1.04,-1.402c-0.359,-0.281,-0.801,-0.642,-1.251,-1.045c-1.537,-1.377,-2.35,-2.512,-2.486,-3.472c-0.078,-0.546,0.053,-1.048,0.377,-1.453c1.035,-1.295,2.341,-2.29,3.604,-3.252c0.775,-0.59,1.507,-1.148,2.17,-1.763c0.977,-0.907,3.101,-3.259,1.716,-5.515c-0.395,-0.644,-0.832,-1.113,-1.374,-1.477l-0.043,-0.03c-0.507,-0.381,-1.128,-0.654,-1.847,-0.811c-2.592,-0.567,-4.122,2.207,-4.66,3.426c-0.365,0.827,-0.653,1.7,-0.957,2.625c-0.496,1.505,-1.009,3.062,-1.895,4.462c-0.279,0.44,-0.713,0.728,-1.255,0.832c-0.948,0.182,-2.278,-0.215,-4.064,-1.213c-0.547,-0.306,-1.046,-0.618,-1.433,-0.871C11.671,11.791,11.269,12.298,10.94,12.717zM1.872,21.761L1.872,21.761C1.872,21.761,1.872,21.761,1.872,21.761zM26.033,7.651c-0.935,0,-1.695,-0.76,-1.695,-1.694s0.761,-1.694,1.695,-1.694c0.935,0,1.695,0.76,1.695,1.694S26.968,7.651,26.033,7.651zM26.033,5.651c-0.168,0,-0.305,0.137,-0.305,0.306s0.137,0.306,0.305,0.306s0.305,-0.137,0.305,-0.306S26.201,5.651,26.033,5.651z" fill="#000000"/>
    <path d="M6.331,26.447c-0.795,-0.231,-1.225,-0.463,-1.987,-1.19c1.556,-0.397,6.324,-3.437,6.324,-3.437S7.424,26.017,6.331,26.447zM16.994,22.977c0,0,-6.722,4.461,-8.278,4.858c0.762,0.727,1.192,0.958,1.987,1.19C11.795,28.595,16.994,22.977,16.994,22.977z" fill="#000000"/>
  </g>
</svg>
