<?xml version="1.0" encoding="UTF-8"?>
<!DOCTYPE svg PUBLIC "-//W3C//DTD SVG 1.1//EN" "http://www.w3.org/Graphics/SVG/1.1/DTD/svg11.dtd">
<svg version="1.1" id="Layer_1" xmlns="http://www.w3.org/2000/svg" xmlns:xlink="http://www.w3.org/1999/xlink" x="0px" y="0px" width="32px" height="32px" viewBox="0 0 32 32" enable-background="new 0 0 32 32" xml:space="preserve">
  <g id="icon">
    <path d="M22.992,31.975c-2.762,0,-5.008,-2.229,-5.008,-4.969s2.247,-4.969,5.008,-4.969S28,24.265,28,27.006S25.753,31.975,22.992,31.975zM22.992,24.036c-1.659,0,-3.008,1.332,-3.008,2.969s1.35,2.969,3.008,2.969S26,28.643,26,27.006S24.65,24.036,22.992,24.036zM8.992,31.975c-2.762,0,-5.008,-2.229,-5.008,-4.969s2.247,-4.969,5.008,-4.969c2.762,0,5.008,2.229,5.008,4.969S11.753,31.975,8.992,31.975zM8.992,24.036c-1.659,0,-3.008,1.332,-3.008,2.969s1.35,2.969,3.008,2.969S12,28.643,12,27.006S10.65,24.036,8.992,24.036z" fill="#000000"/>
    <path d="M24,0v4.589l-5.851,10.21l-1.262,-2.294L24,0zM8,4.589l6.704,11.733l-4.295,7.541l1.721,1.721l3.92,-6.907l3.881,6.792l1.721,-1.606L8,0V4.589z" fill="#000000"/>
  </g>
</svg>
