<?xml version="1.0" encoding="UTF-8"?>
<!DOCTYPE svg PUBLIC "-//W3C//DTD SVG 1.1//EN" "http://www.w3.org/Graphics/SVG/1.1/DTD/svg11.dtd">
<svg version="1.1" id="Layer_1" xmlns="http://www.w3.org/2000/svg" xmlns:xlink="http://www.w3.org/1999/xlink" x="0px" y="0px" width="32px" height="32px" viewBox="0 0 32 32" enable-background="new 0 0 32 32" xml:space="preserve">
  <g id="icon">
    <path d="M32,32H12V10h14.414L32,15.586V32zM14,30h16V16.414L25.586,12H14V30zM27,26H17v-2h10V26zM27,22H17v-2h10V22zM23,18h-6v-2h6V18z" fill="#000000"/>
    <path d="M10,22H0V0h14.414L20,5.586V8h-2V6.414L13.586,2H2v18h8V22zM10,16H5v-2h5V16zM10,12H5v-2h5V12zM10,8H5V6h5V8z" fill="#000000"/>
  </g>
</svg>
