<?xml version="1.0" encoding="UTF-8"?>
<!DOCTYPE svg PUBLIC "-//W3C//DTD SVG 1.1//EN" "http://www.w3.org/Graphics/SVG/1.1/DTD/svg11.dtd">
<svg version="1.1" id="Layer_1" xmlns="http://www.w3.org/2000/svg" xmlns:xlink="http://www.w3.org/1999/xlink" x="0px" y="0px" width="32px" height="32px" viewBox="0 0 32 32" enable-background="new 0 0 32 32" xml:space="preserve">
  <g id="icon">
    <polygon points="28,32 4,32 4,4 11.023,4 11.023,6 6,6 6,30 26,30 26,6 20.977,6 20.977,4 28,4" fill="#000000" stroke-linejoin="miter"/>
    <path d="M22,8H10V2h2.442C13.135,0.962,14.141,0.033,16,0.033S18.865,0.962,19.557,2H22V8zM12,6h8V4h-1.578l-0.289,-0.501c-0.56,-0.972,-1.044,-1.466,-2.133,-1.466c-1.09,0,-1.573,0.494,-2.133,1.466L13.578,4H12V6z" fill="#000000"/>
    <rect x="9" y="12" width="14" height="2" fill="#000000"/>
    <rect x="9" y="16" width="14" height="2" fill="#000000"/>
    <rect x="9" y="20" width="14" height="2" fill="#000000"/>
    <rect x="9" y="24" width="14" height="2" fill="#000000"/>
  </g>
</svg>
