<?xml version="1.0" encoding="UTF-8"?>
<!DOCTYPE svg PUBLIC "-//W3C//DTD SVG 1.1//EN" "http://www.w3.org/Graphics/SVG/1.1/DTD/svg11.dtd">
<svg version="1.1" id="Layer_1" xmlns="http://www.w3.org/2000/svg" xmlns:xlink="http://www.w3.org/1999/xlink" x="0px" y="0px" width="32px" height="32px" viewBox="0 0 32 32" enable-background="new 0 0 32 32" xml:space="preserve">
  <g id="icon">
    <path d="M24.1,26H6.5c-3.584,0,-6.5,-2.916,-6.5,-6.5c0,-2.717,1.694,-5.13,4.192,-6.077C5.07,9.149,8.878,6,13.3,6c3.361,0,6.431,1.81,8.075,4.685c0.87,-0.319,1.796,-0.485,2.725,-0.485c4.356,0,7.9,3.544,7.9,7.9S28.456,26,24.1,26zM13.3,8c-3.64,0,-6.749,2.717,-7.232,6.32l-0.089,0.661l-0.644,0.172C3.371,15.678,2,17.465,2,19.5c0,2.481,2.019,4.5,4.5,4.5h17.6c3.253,0,5.9,-2.647,5.9,-5.9s-2.647,-5.9,-5.9,-5.9c-0.665,0,-1.309,0.108,-1.924,0.321c0.281,0.896,0.424,1.827,0.424,2.779h-2c0,-1.012,-0.204,-1.993,-0.608,-2.917C18.83,9.72,16.203,8,13.3,8z" fill="#000000"/>
  </g>
</svg>
