<?xml version="1.0" encoding="UTF-8"?>
<!DOCTYPE svg PUBLIC "-//W3C//DTD SVG 1.1//EN" "http://www.w3.org/Graphics/SVG/1.1/DTD/svg11.dtd">
<svg version="1.1" id="Layer_1" xmlns="http://www.w3.org/2000/svg" xmlns:xlink="http://www.w3.org/1999/xlink" x="0px" y="0px" width="32px" height="32px" viewBox="0 0 32 32" enable-background="new 0 0 32 32" xml:space="preserve">
  <g id="icon">
    <path d="M19.48,28H5.4c-2.978,0,-5.4,-2.48,-5.4,-5.529c0,-2.271,1.359,-4.293,3.376,-5.127c0.753,-3.557,3.86,-6.167,7.464,-6.167c2.709,0,5.187,1.467,6.555,3.81c0.67,-0.231,1.376,-0.351,2.085,-0.351c3.595,0,6.52,2.998,6.52,6.682S23.075,28,19.48,28zM10.84,13.176c-2.81,0,-5.212,2.17,-5.587,5.048l-0.086,0.659l-0.641,0.176C3.039,19.469,2,20.871,2,22.471C2,24.417,3.525,26,5.4,26h14.08c2.492,0,4.52,-2.1,4.52,-4.682c0,-2.582,-2.028,-4.682,-4.52,-4.682c-0.447,0,-0.882,0.066,-1.3,0.197c0.2,0.705,0.3,1.435,0.3,2.18h-2c0,-0.813,-0.159,-1.6,-0.474,-2.341C15.106,14.548,13.078,13.176,10.84,13.176z" fill="#000000"/>
    <path d="M24.48,12.835h-2c0,-0.812,-0.159,-1.6,-0.474,-2.341C21.106,8.371,19.078,7,16.84,7c-1.803,0,-3.523,0.978,-4.602,2.617l-1.67,-1.1C12.018,6.315,14.363,5,16.84,5c3.043,0,5.793,1.85,7.008,4.713C24.267,10.703,24.48,11.753,24.48,12.835z" fill="#000000"/>
    <path d="M28.242,21.196l-0.865,-1.803c1.594,-0.764,2.623,-2.433,2.623,-4.252c0,-2.582,-2.028,-4.682,-4.52,-4.682c-0.732,0,-1.432,0.177,-2.079,0.525l-0.948,-1.761c0.929,-0.5,1.975,-0.764,3.027,-0.764c3.595,0,6.52,2.998,6.52,6.682C32,17.724,30.525,20.101,28.242,21.196z" fill="#000000"/>
  </g>
</svg>
