<?xml version="1.0" encoding="UTF-8"?>
<!DOCTYPE svg PUBLIC "-//W3C//DTD SVG 1.1//EN" "http://www.w3.org/Graphics/SVG/1.1/DTD/svg11.dtd">
<svg version="1.1" id="Layer_1" xmlns="http://www.w3.org/2000/svg" xmlns:xlink="http://www.w3.org/1999/xlink" x="0px" y="0px" width="32px" height="32px" viewBox="0 0 32 32" enable-background="new 0 0 32 32" xml:space="preserve">
  <g id="icon">
    <path d="M16,32h-2V13.788l-4.798,4.725l-1.403,-1.425L15,9.997l7.202,7.091l-1.403,1.425L16,13.788V32zM24.1,20h-0.667v-2H24.1c3.253,0,5.9,-2.647,5.9,-5.9c0,-3.253,-2.647,-5.9,-5.9,-5.9c-0.665,0,-1.309,0.108,-1.924,0.321C22.458,7.417,22.6,8.348,22.6,9.3h-2c0,-1.012,-0.204,-1.993,-0.608,-2.917C18.83,3.72,16.203,2,13.3,2c-3.64,0,-6.749,2.717,-7.232,6.32l-0.089,0.661l-0.644,0.172C3.371,9.678,2,11.465,2,13.5c0,2.481,2.019,4.5,4.5,4.5v2c-3.584,0,-6.5,-2.916,-6.5,-6.5c0,-2.717,1.694,-5.13,4.192,-6.077C5.07,3.149,8.878,0,13.3,0c3.361,0,6.431,1.81,8.075,4.685C22.245,4.366,23.171,4.2,24.1,4.2c4.356,0,7.9,3.544,7.9,7.9S28.456,20,24.1,20z" fill="#000000"/>
  </g>
</svg>
