<?xml version="1.0" encoding="UTF-8"?>
<!DOCTYPE svg PUBLIC "-//W3C//DTD SVG 1.1//EN" "http://www.w3.org/Graphics/SVG/1.1/DTD/svg11.dtd">
<svg version="1.1" id="Layer_1" xmlns="http://www.w3.org/2000/svg" xmlns:xlink="http://www.w3.org/1999/xlink" x="0px" y="0px" width="32px" height="32px" viewBox="0 0 32 32" enable-background="new 0 0 32 32" xml:space="preserve">
  <g id="icon">
    <path d="M32,32H21.033v-2H30V14h-6v-2h6V8H18V0h14V32zM20,6h10V2H20V6zM18,32H4v-2h6v-2H0V10h22v18H12v2h6V32zM2,26h18V12H2V26zM26,26h-2v-2h2V26zM28,11h-2V9h2V11zM28,5h-2V3h2V5z" fill="#000000"/>
  </g>
</svg>
