<?xml version="1.0" encoding="UTF-8"?>
<!DOCTYPE svg PUBLIC "-//W3C//DTD SVG 1.1//EN" "http://www.w3.org/Graphics/SVG/1.1/DTD/svg11.dtd">
<svg version="1.1" id="Layer_1" xmlns="http://www.w3.org/2000/svg" xmlns:xlink="http://www.w3.org/1999/xlink" x="0px" y="0px" width="32px" height="32px" viewBox="0 0 32 32" enable-background="new 0 0 32 32" xml:space="preserve">
  <g id="icon">
    <path d="M32,30H0V4h32V30zM2,28h28v-6H2V28zM2,20h28v-6H2V20zM2,12h28V6H2V12zM28,26h-2v-2h2V26zM24,26h-2v-2h2V26zM28,18h-2v-2h2V18zM24,18h-2v-2h2V18zM28,10h-2V8h2V10zM24,10h-2V8h2V10z" fill="#000000"/>
  </g>
</svg>
