<?xml version="1.0" encoding="UTF-8"?>
<!DOCTYPE svg PUBLIC "-//W3C//DTD SVG 1.1//EN" "http://www.w3.org/Graphics/SVG/1.1/DTD/svg11.dtd">
<svg version="1.1" id="Layer_1" xmlns="http://www.w3.org/2000/svg" xmlns:xlink="http://www.w3.org/1999/xlink" x="0px" y="0px" width="32px" height="32px" viewBox="0 0 32 32" enable-background="new 0 0 32 32" xml:space="preserve">
  <g id="icon">
    <path d="M26,32H0V6h17v2H2v22h22V15.033h2V32zM9.378,22.564l2.662,-6.983l0.152,-0.151L26.879,0.769C27.9,-0.252,29.563,-0.251,30.584,0.77l0.601,0.601c0.495,0.495,0.768,1.154,0.768,1.854c0,0.701,-0.274,1.359,-0.769,1.854L16.341,19.881L9.378,22.564zM13.757,16.694l-0.911,2.39l2.383,-0.918L26.254,7.171l-1.457,-1.497L13.757,16.694zM26.213,4.26l1.458,1.498l2.1,-2.095c0.117,-0.117,0.182,-0.273,0.182,-0.439c0,-0.166,-0.064,-0.322,-0.182,-0.439l-0.601,-0.601c-0.242,-0.242,-0.636,-0.242,-0.878,0L26.213,4.26z" fill="#000000"/>
  </g>
</svg>
