<?xml version="1.0" encoding="UTF-8"?>
<!DOCTYPE svg PUBLIC "-//W3C//DTD SVG 1.1//EN" "http://www.w3.org/Graphics/SVG/1.1/DTD/svg11.dtd">
<svg version="1.1" id="Layer_1" xmlns="http://www.w3.org/2000/svg" xmlns:xlink="http://www.w3.org/1999/xlink" x="0px" y="0px" width="32px" height="32px" viewBox="0 0 32 32" enable-background="new 0 0 32 32" xml:space="preserve">
  <g id="icon">
    <path d="M23.756,32H8.244l-0.232,-0.134C3.07,29.013,0,23.7,0,18C0,9.178,7.178,2,16,2c8.822,0,16,7.178,16,16c0,5.7,-3.07,11.013,-8.012,13.866L23.756,32zM8.785,30h14.43C27.407,27.473,30,22.9,30,18c0,-7.72,-6.28,-14,-14,-14S2,10.28,2,18C2,22.9,4.593,27.473,8.785,30zM15.926,28c-2.176,0,-3.946,-1.794,-3.946,-4s1.77,-4,3.946,-4c0.572,0,1.115,0.124,1.606,0.346l4.87,-6.733l1.621,1.172l-4.935,6.822c0.493,0.668,0.785,1.496,0.785,2.391C19.873,26.206,18.102,28,15.926,28zM15.926,22c-1.073,0,-1.946,0.897,-1.946,2s0.873,2,1.946,2c1.073,0,1.946,-0.897,1.946,-2S16.999,22,15.926,22zM28,17.966h-2c0,-5.498,-4.474,-9.97,-9.974,-9.97s-9.974,4.473,-9.974,9.97h-2c0,-6.6,5.372,-11.97,11.974,-11.97C22.628,5.996,28,11.366,28,17.966z" fill="#000000"/>
  </g>
</svg>
