<?xml version="1.0" encoding="UTF-8"?>
<!DOCTYPE svg PUBLIC "-//W3C//DTD SVG 1.1//EN" "http://www.w3.org/Graphics/SVG/1.1/DTD/svg11.dtd">
<svg version="1.1" id="Layer_1" xmlns="http://www.w3.org/2000/svg" xmlns:xlink="http://www.w3.org/1999/xlink" x="0px" y="0px" width="32px" height="32px" viewBox="0 0 32 32" enable-background="new 0 0 32 32" xml:space="preserve">
  <g id="icon">
    <path d="M16,24c-3.138,0,-6.03,-0.456,-8.143,-1.283c-2.91,-1.14,-3.721,-2.684,-3.841,-3.883H4v-14h0.061c-0.04,-0.161,-0.061,-0.328,-0.061,-0.5C4,1.356,10.22,0,16,0c5.78,0,12,1.356,12,4.333c0,0.172,-0.021,0.339,-0.061,0.5H28v14h-0.017c-0.119,1.199,-0.93,2.743,-3.841,3.883C22.03,23.544,19.138,24,16,24zM6,18.5c0,1.167,1.621,1.976,2.587,2.354C10.472,21.593,13.105,22,16,22s5.528,-0.407,7.413,-1.146C24.379,20.476,26,19.667,26,18.5v-3.828C23.735,15.92,19.856,16.5,16,16.5s-7.735,-0.58,-10,-1.828V18.5zM6,12c0,0.309,0.671,0.977,2.52,1.555c1.951,0.609,4.607,0.945,7.48,0.945c2.873,0,5.529,-0.336,7.48,-0.945c1.849,-0.578,2.52,-1.246,2.52,-1.555V6.875c-2.3,1.219,-6.243,1.792,-10,1.792S8.3,8.094,6,6.875V12zM16,2c-2.843,0,-5.502,0.331,-7.488,0.933C6.437,3.562,6,4.228,6,4.333s0.437,0.771,2.512,1.4c1.986,0.602,4.646,0.933,7.488,0.933s5.502,-0.331,7.488,-0.933c2.075,-0.629,2.512,-1.295,2.512,-1.4s-0.437,-0.771,-2.512,-1.4C21.502,2.331,18.843,2,16,2z" fill="#000000"/>
    <path d="M20,32h-8v-2H0v-2h12v-2h3v-3h2v3h3v2h12v2H20V32zM14,30h4v-2h-4V30z" fill="#000000"/>
  </g>
</svg>
