<?xml version="1.0" encoding="UTF-8"?>
<!DOCTYPE svg PUBLIC "-//W3C//DTD SVG 1.1//EN" "http://www.w3.org/Graphics/SVG/1.1/DTD/svg11.dtd">
<svg version="1.1" id="Layer_1" xmlns="http://www.w3.org/2000/svg" xmlns:xlink="http://www.w3.org/1999/xlink" x="0px" y="0px" width="32px" height="32px" viewBox="0 0 32 32" enable-background="new 0 0 32 32" xml:space="preserve">
  <g id="icon">
    <path d="M15,8.667c-3.293,0,-6.402,-0.36,-8.753,-1.013C3.429,6.871,2,5.754,2,4.333c0,-1.421,1.429,-2.538,4.247,-3.321C8.598,0.36,11.707,0,15,0c3.293,0,6.402,0.36,8.753,1.013c2.818,0.783,4.247,1.9,4.247,3.321c0,1.421,-1.429,2.538,-4.247,3.321C21.402,8.307,18.293,8.667,15,8.667zM4.002,4.333c0.053,0.167,0.685,0.846,3.02,1.458c2.155,0.564,4.988,0.875,7.979,0.875c2.991,0,5.824,-0.311,7.979,-0.875c2.335,-0.612,2.966,-1.291,3.02,-1.458c-0.053,-0.167,-0.685,-0.846,-3.02,-1.458C20.824,2.311,17.991,2,15,2s-5.824,0.311,-7.979,0.875C4.687,3.487,4.055,4.166,4.002,4.333z" fill="#000000"/>
    <path d="M15,16.5c-3.332,0,-6.443,-0.366,-8.761,-1.029C3.426,14.665,2,13.497,2,12h2c0,0.244,0.682,0.944,2.79,1.548c2.144,0.614,5.059,0.952,8.21,0.952s6.066,-0.338,8.21,-0.952c2.108,-0.604,2.79,-1.304,2.79,-1.548h2c0,1.497,-1.426,2.665,-4.239,3.471C21.443,16.134,18.332,16.5,15,16.5z" fill="#000000"/>
    <path d="M15,24.333c-3.369,0,-6.487,-0.39,-8.78,-1.098C2.732,22.158,2,20.609,2,19.5h2c0,1.017,3.676,2.833,11,2.833c7.324,0,11,-1.816,11,-2.833h2c0,1.109,-0.732,2.658,-4.22,3.735C21.487,23.943,18.369,24.333,15,24.333z" fill="#000000"/>
    <path d="M15,32c-7.411,0,-13,-2.579,-13,-6h2c0,0.879,1.084,1.856,2.899,2.613C9.047,29.507,11.924,30,15,30s5.953,-0.493,8.101,-1.388C24.916,27.856,26,26.879,26,26h2C28,29.421,22.411,32,15,32z" fill="#000000"/>
    <rect x="2" y="4.833" width="2" height="21.5" fill="#000000"/>
    <rect x="26" y="4.833" width="2" height="21.5" fill="#000000"/>
  </g>
</svg>
