<?xml version="1.0" encoding="UTF-8"?>
<!DOCTYPE svg PUBLIC "-//W3C//DTD SVG 1.1//EN" "http://www.w3.org/Graphics/SVG/1.1/DTD/svg11.dtd">
<svg version="1.1" id="Layer_1" xmlns="http://www.w3.org/2000/svg" xmlns:xlink="http://www.w3.org/1999/xlink" x="0px" y="0px" width="32px" height="32px" viewBox="0 0 32 32" enable-background="new 0 0 32 32" xml:space="preserve">
  <g id="icon">
    <path d="M16,32C7.178,32,0,24.822,0,16C0,7.178,7.178,0,16,0c8.822,0,16,7.178,16,16C32,24.822,24.822,32,16,32zM16,2C8.28,2,2,8.28,2,16s6.28,14,14,14s14,-6.28,14,-14S23.72,2,16,2zM23.452,25.033L15,16.408V4h2v11.592l7.881,8.042L23.452,25.033zM25.873,21.292l-1.751,-0.967c0.77,-1.394,1.177,-2.98,1.177,-4.589c0,-4.204,-2.783,-7.926,-6.769,-9.053l0.544,-1.925C23.918,6.127,27.3,10.641,27.3,15.735C27.3,17.681,26.807,19.603,25.873,21.292z" fill="#000000"/>
  </g>
</svg>
