<?xml version="1.0" encoding="UTF-8"?>
<!DOCTYPE svg PUBLIC "-//W3C//DTD SVG 1.1//EN" "http://www.w3.org/Graphics/SVG/1.1/DTD/svg11.dtd">
<svg version="1.1" id="Layer_1" xmlns="http://www.w3.org/2000/svg" xmlns:xlink="http://www.w3.org/1999/xlink" x="0px" y="0px" width="32px" height="32px" viewBox="0 0 32 32" enable-background="new 0 0 32 32" xml:space="preserve">
  <g id="icon">
    <path d="M17.026,32.006c-4.977,0,-9.026,-4.042,-9.026,-9.01l-0.01,-9.928c0,-4.6,3.487,-8.402,7.96,-8.911c-0.158,-0.919,-0.715,-1.608,-1.6,-1.945c-1.299,-0.494,-3.364,-0.151,-4.827,1.768C7.949,6.045,6.335,6.936,4.726,6.629C1.653,6.044,0.208,1.22,0.054,0.671l1.925,-0.544c0.307,1.082,1.541,4.237,3.123,4.537c1,0.189,2.092,-0.927,2.831,-1.896C10.029,0.019,13.023,-0.43,15.06,0.344c1.661,0.631,2.718,2.044,2.906,3.806C22.475,4.625,26,8.443,26,13.068l0.01,9.97C26.01,27.983,21.98,32.006,17.026,32.006zM9.993,16l0.007,6.995c0,3.866,3.152,7.011,7.026,7.011h0c3.851,0,6.984,-3.126,6.984,-6.968L24.003,16H9.993zM18,14h6.001l-0.001,-0.931c0,-3.51,-2.613,-6.421,-6,-6.9V14zM9.991,14H16V6.168c-3.391,0.474,-6.01,3.388,-6.01,6.9L9.991,14z" fill="#000000"/>
  </g>
</svg>
