<?xml version="1.0" encoding="UTF-8"?>
<!DOCTYPE svg PUBLIC "-//W3C//DTD SVG 1.1//EN" "http://www.w3.org/Graphics/SVG/1.1/DTD/svg11.dtd">
<svg version="1.1" id="Layer_1" xmlns="http://www.w3.org/2000/svg" xmlns:xlink="http://www.w3.org/1999/xlink" x="0px" y="0px" width="32px" height="32px" viewBox="0 0 32 32" enable-background="new 0 0 32 32" xml:space="preserve">
  <g id="icon">
    <path d="M32,26H0V8h32V26zM2,24h28V10H2V24zM28,22h-4v-2h4V22zM22,22H10v-2h12V22zM8,22H4v-2h4V22zM28,18h-6v-2h6V18zM20,18h-2v-2h2V18zM16,18h-2v-2h2V18zM12,18h-2v-2h2V18zM8,18H4v-2h4V18zM28,14h-4v-2h4V14zM22,14h-2v-2h2V14zM18,14h-2v-2h2V14zM14,14h-2v-2h2V14zM10,14H8v-2h2V14zM6,14H4v-2h2V14z" fill="#000000"/>
  </g>
</svg>
