<?xml version="1.0" encoding="UTF-8"?>
<!DOCTYPE svg PUBLIC "-//W3C//DTD SVG 1.1//EN" "http://www.w3.org/Graphics/SVG/1.1/DTD/svg11.dtd">
<svg version="1.1" id="Layer_1" xmlns="http://www.w3.org/2000/svg" xmlns:xlink="http://www.w3.org/1999/xlink" x="0px" y="0px" width="32px" height="32px" viewBox="0 0 32 32" enable-background="new 0 0 32 32" xml:space="preserve">
  <g id="icon">
    <path d="M26,32H4V0h22V32zM6,30h18V2H6V30zM15.002,28.977c-4.405,0,-7.988,-3.584,-7.988,-7.988S10.597,13,15.002,13c4.405,0,7.988,3.584,7.988,7.988S19.406,28.977,15.002,28.977zM15.002,15c-3.302,0,-5.988,2.686,-5.988,5.988s2.686,5.988,5.988,5.988s5.988,-2.686,5.988,-5.988S18.304,15,15.002,15zM15.081,12C12.61,12,10.6,9.99,10.6,7.519s2.01,-4.481,4.481,-4.481s4.481,2.01,4.481,4.481S17.552,12,15.081,12zM15.081,5.038c-1.368,0,-2.481,1.113,-2.481,2.481S13.713,10,15.081,10s2.481,-1.113,2.481,-2.481S16.449,5.038,15.081,5.038z" fill="#000000"/>
    <circle cx="15" cy="21" r="2" fill="#000000"/>
  </g>
</svg>
