<?xml version="1.0" encoding="UTF-8"?>
<!DOCTYPE svg PUBLIC "-//W3C//DTD SVG 1.1//EN" "http://www.w3.org/Graphics/SVG/1.1/DTD/svg11.dtd">
<svg version="1.1" id="Layer_1" xmlns="http://www.w3.org/2000/svg" xmlns:xlink="http://www.w3.org/1999/xlink" x="0px" y="0px" width="32px" height="32px" viewBox="0 0 32 32" enable-background="new 0 0 32 32" xml:space="preserve">
  <g id="icon">
    <path d="M16,32C7.178,32,0,24.822,0,16C0,7.178,7.178,0,16,0c8.822,0,16,7.178,16,16C32,24.822,24.822,32,16,32zM16,2C8.28,2,2,8.28,2,16s6.28,14,14,14s14,-6.28,14,-14S23.72,2,16,2zM11.32,26.919c-2.822,-1.211,-5.04,-3.433,-6.247,-6.256l1.839,-0.786c1.003,2.348,2.849,4.197,5.196,5.204L11.32,26.919zM12.491,23.432c-1.717,-0.812,-3.11,-2.205,-3.922,-3.922l1.808,-0.855c0.615,1.3,1.669,2.354,2.969,2.969L12.491,23.432zM16,20c-2.206,0,-4,-1.794,-4,-4s1.794,-4,4,-4s4,1.794,4,4S18.206,20,16,20zM16,14c-1.103,0,-2,0.897,-2,2s0.897,2,2,2s2,-0.897,2,-2S17.103,14,16,14zM21.623,13.347c-0.614,-1.299,-1.669,-2.353,-2.968,-2.968l0.855,-1.808c1.717,0.812,3.11,2.204,3.921,3.921L21.623,13.347zM25.087,12.124c-1.001,-2.343,-2.841,-4.189,-5.182,-5.198l0.792,-1.837c2.814,1.213,5.026,3.432,6.229,6.248L25.087,12.124z" fill="#000000"/>
  </g>
</svg>
