<?xml version="1.0" encoding="UTF-8"?>
<!DOCTYPE svg PUBLIC "-//W3C//DTD SVG 1.1//EN" "http://www.w3.org/Graphics/SVG/1.1/DTD/svg11.dtd">
<svg version="1.1" id="Layer_1" xmlns="http://www.w3.org/2000/svg" xmlns:xlink="http://www.w3.org/1999/xlink" x="0px" y="0px" width="32px" height="32px" viewBox="0 0 32 32" enable-background="new 0 0 32 32" xml:space="preserve">
  <g id="icon">
    <path d="M16.153,31.835l-0.305,-1.977c1.76,-0.272,3.401,-0.918,4.879,-1.92l1.123,1.655C20.124,30.763,18.208,31.517,16.153,31.835zM11.847,31.835c-2.055,-0.317,-3.971,-1.072,-5.696,-2.241l1.123,-1.655c1.478,1.002,3.119,1.648,4.879,1.92L11.847,31.835zM2.998,26.657C1.51,24.769,0.53,22.52,0.165,20.153l1.977,-0.305c0.313,2.027,1.152,3.954,2.427,5.572L2.998,26.657zM25.002,26.657l-1.571,-1.238c0.795,-1.009,1.418,-2.129,1.854,-3.33l1.88,0.682C26.657,24.173,25.929,25.481,25.002,26.657zM28.007,21.007l-1.414,-1.414L28.186,18H19v-2h9.186l-1.593,-1.593l1.414,-1.414L32.014,17L28.007,21.007zM2.141,16.153l-1.977,-0.305c0.317,-2.055,1.071,-3.971,2.241,-5.696l1.655,1.123C3.059,12.751,2.413,14.393,2.141,16.153zM15,16.014l-4.007,-4.007l1.414,-1.414L14,12.186V0h2v12.186l1.593,-1.593l1.414,1.414L15,16.014zM6.58,8.569L5.343,6.998C7.23,5.51,9.48,4.531,11.847,4.165l0.305,1.977C10.125,6.455,8.198,7.294,6.58,8.569z" fill="#000000"/>
  </g>
</svg>
