<?xml version="1.0" encoding="UTF-8"?>
<!DOCTYPE svg PUBLIC "-//W3C//DTD SVG 1.1//EN" "http://www.w3.org/Graphics/SVG/1.1/DTD/svg11.dtd">
<svg version="1.1" id="Layer_1" xmlns="http://www.w3.org/2000/svg" xmlns:xlink="http://www.w3.org/1999/xlink" x="0px" y="0px" width="32px" height="32px" viewBox="0 0 32 32" enable-background="new 0 0 32 32" xml:space="preserve">
  <g id="icon">
    <path d="M0.058,31.873l3.219,-10.11L23.904,1.272c1.63,-1.627,4.283,-1.625,5.912,0.006l0.959,0.96c0.79,0.791,1.225,1.842,1.224,2.96c-0.001,1.118,-0.438,2.168,-1.229,2.958L10.14,28.628L0.058,31.873zM4.915,23.209l-1.773,5.57l5.525,-1.778C7.554,25.197,6.379,24.008,4.915,23.209zM6.224,21.654c1.544,0.922,2.831,2.232,4.003,4.07L26.603,9.472l-4,-4.089L6.224,21.654zM24.023,3.973l4,4.09l1.336,-1.326c0.411,-0.41,0.639,-0.958,0.64,-1.542c0,-0.583,-0.226,-1.132,-0.639,-1.545l-0.959,-0.96c-0.85,-0.851,-2.234,-0.852,-3.086,-0.002L24.023,3.973z" fill="#000000"/>
  </g>
</svg>
