<?xml version="1.0" encoding="UTF-8"?>
<!DOCTYPE svg PUBLIC "-//W3C//DTD SVG 1.1//EN" "http://www.w3.org/Graphics/SVG/1.1/DTD/svg11.dtd">
<svg version="1.1" id="Layer_1" xmlns="http://www.w3.org/2000/svg" xmlns:xlink="http://www.w3.org/1999/xlink" x="0px" y="0px" width="32px" height="32px" viewBox="0 0 32 32" enable-background="new 0 0 32 32" xml:space="preserve">
  <g id="icon">
    <path d="M15.164,30c-3.722,0,-7.081,-1.247,-9.458,-3.512C3.316,24.211,2,20.988,2,17.412c0,-4.306,1.552,-8.228,4.371,-11.045C9.189,3.551,13.114,2,17.423,2c3.765,0,6.93,1.115,9.155,3.226C28.817,7.35,30,10.378,30,13.983c0,2.541,-0.704,4.915,-1.983,6.685C26.763,22.404,25.076,23.4,23.391,23.4h-0.085l-0.084,-0.014c-0.511,-0.088,-1.762,-0.359,-2.332,-0.984c-0.887,-0.973,-2.272,-3.049,-1.583,-6.027l1.948,0.451c-0.479,2.07,0.473,3.521,1.096,4.211c0.151,0.109,0.67,0.276,1.122,0.363c2.159,-0.075,4.527,-3.099,4.527,-7.415C28,7.732,24.046,4,17.423,4C9.645,4,4,9.64,4,17.412C4,23.646,8.591,28,15.164,28c2.423,0,4.607,-0.428,6.316,-1.237l0.856,1.807C20.362,29.506,17.882,30,15.164,30zM22.342,21.029L22.342,21.029z" fill="#000000"/>
    <path d="M13.626,23.098c-2.987,0,-4.994,-1.949,-4.994,-4.849c0,-5.367,4.431,-9.734,9.877,-9.734c1.652,0,2.733,0.273,3.348,0.501l1.218,0.453l-1.462,6.224C20.972,18.724,17.764,23.098,13.626,23.098zM18.51,10.515c-4.344,0,-7.877,3.47,-7.877,7.734c0,1.784,1.119,2.849,2.994,2.849c2.937,0,5.535,-3.451,6.033,-5.827l0.005,-0.023l1.055,-4.494C20.227,10.626,19.51,10.515,18.51,10.515z" fill="#000000"/>
  </g>
</svg>
