<?xml version="1.0" encoding="UTF-8"?>
<!DOCTYPE svg PUBLIC "-//W3C//DTD SVG 1.1//EN" "http://www.w3.org/Graphics/SVG/1.1/DTD/svg11.dtd">
<svg version="1.1" id="Layer_1" xmlns="http://www.w3.org/2000/svg" xmlns:xlink="http://www.w3.org/1999/xlink" x="0px" y="0px" width="32px" height="32px" viewBox="0 0 32 32" enable-background="new 0 0 32 32" xml:space="preserve">
  <g id="icon">
    <path d="M21.673,9.872c-0.988,0,-1.79,0.801,-1.79,1.79s0.801,1.79,1.79,1.79c0.988,0,1.79,-0.801,1.79,-1.79S22.661,9.872,21.673,9.872z" fill="#000000"/>
    <path d="M16,32C7.178,32,0,24.822,0,16C0,7.178,7.178,0,16,0c8.822,0,16,7.178,16,16C32,24.822,24.822,32,16,32zM16,2C8.28,2,2,8.28,2,16s6.28,14,14,14s14,-6.28,14,-14S23.72,2,16,2zM17.851,24.511c-1.055,0,-2.163,-0.157,-3.277,-0.476c-3.046,-0.873,-5.417,-2.753,-6.341,-5.027l-0.376,-0.926l1.853,-0.753l0.376,0.926c0.684,1.684,2.615,3.163,5.039,3.858c2.411,0.691,4.816,0.465,6.275,-0.591l0.81,-0.586l1.173,1.62l-0.81,0.586C21.323,24.045,19.667,24.511,17.851,24.511z" fill="#000000"/>
    <path d="M13.696,12.76h-2c0,-0.368,-0.494,-0.779,-1.202,-0.779s-1.202,0.41,-1.202,0.779h-2c0,-1.532,1.437,-2.779,3.202,-2.779S13.696,11.228,13.696,12.76z" fill="#000000"/>
  </g>
</svg>
