<?xml version="1.0" encoding="UTF-8"?>
<!DOCTYPE svg PUBLIC "-//W3C//DTD SVG 1.1//EN" "http://www.w3.org/Graphics/SVG/1.1/DTD/svg11.dtd">
<svg version="1.1" id="Layer_1" xmlns="http://www.w3.org/2000/svg" xmlns:xlink="http://www.w3.org/1999/xlink" x="0px" y="0px" width="32px" height="32px" viewBox="0 0 32 32" enable-background="new 0 0 32 32" xml:space="preserve">
  <g id="icon">
    <path d="M16,32C7.178,32,0,24.822,0,16C0,7.178,7.178,0,16,0c8.822,0,16,7.178,16,16C32,24.822,24.822,32,16,32zM16,2C8.28,2,2,8.28,2,16s6.28,14,14,14s14,-6.28,14,-14S23.72,2,16,2zM16.008,24.675c-3.168,0,-5.963,-1.153,-7.478,-3.084l-0.617,-0.787l1.573,-1.235l0.617,0.787c1.122,1.43,3.385,2.318,5.905,2.318c0.001,0,0.002,0,0.002,0c2.508,-0.001,4.757,-0.881,5.868,-2.299l0.617,-0.787l1.574,1.234l-0.617,0.787c-1.504,1.918,-4.286,3.064,-7.442,3.065C16.01,24.675,16.009,24.675,16.008,24.675z" fill="#000000"/>
    <path d="M10.474,14.353c-0.062,0.055,-0.156,0.053,-0.216,-0.004c-1.767,-1.691,-2.57,-2.237,-2.57,-3.383c0.017,-1.365,1.72,-2.072,2.592,-0.867c0.041,0.056,0.126,0.056,0.166,-0.001c0.855,-1.207,2.586,-0.497,2.603,0.868C13.05,11.993,10.98,13.903,10.474,14.353zM24.35,10.966c-0.017,-1.365,-1.748,-2.074,-2.603,-0.868c-0.04,0.057,-0.125,0.057,-0.166,0.001c-0.873,-1.205,-2.575,-0.498,-2.592,0.867c0,1.146,0.803,1.693,2.57,3.383c0.06,0.057,0.154,0.059,0.216,0.004C22.28,13.903,24.35,11.993,24.35,10.966z" fill="#000000"/>
  </g>
</svg>
