<?xml version="1.0" encoding="UTF-8"?>
<!DOCTYPE svg PUBLIC "-//W3C//DTD SVG 1.1//EN" "http://www.w3.org/Graphics/SVG/1.1/DTD/svg11.dtd">
<svg version="1.1" id="Layer_1" xmlns="http://www.w3.org/2000/svg" xmlns:xlink="http://www.w3.org/1999/xlink" x="0px" y="0px" width="32px" height="32px" viewBox="0 0 32 32" enable-background="new 0 0 32 32" xml:space="preserve">
  <g id="icon">
    <path d="M12.098,31.999c-1.024,0,-2.03,-0.372,-2.77,-1.114l-8.195,-8.223l-0.019,-0.022c-1.439,-1.625,-1.421,-4.14,0.04,-5.607L17.116,1.156l0.02,-0.018c1.622,-1.447,4.133,-1.429,5.597,0.04l8.174,8.202c1.515,1.52,1.454,4.054,-0.136,5.649L14.947,30.907l-0.022,0.02C14.122,31.642,13.101,31.999,12.098,31.999zM2.593,21.295l8.151,8.179c0.71,0.712,1.999,0.699,2.829,-0.023l15.78,-15.834c0.8,-0.803,0.863,-2.097,0.136,-2.826v0L21.316,2.59c-0.71,-0.712,-2.001,-0.7,-2.831,0.024L2.567,18.45C1.858,19.161,1.871,20.459,2.593,21.295z" fill="#000000"/>
    <rect x="15.08" y="7.375" width="2" height="17.278" fill="#000000"/>
  </g>
</svg>
