<?xml version="1.0" encoding="UTF-8"?>
<!DOCTYPE svg PUBLIC "-//W3C//DTD SVG 1.1//EN" "http://www.w3.org/Graphics/SVG/1.1/DTD/svg11.dtd">
<svg version="1.1" id="Layer_1" xmlns="http://www.w3.org/2000/svg" xmlns:xlink="http://www.w3.org/1999/xlink" x="0px" y="0px" width="32px" height="32px" viewBox="0 0 32 32" enable-background="new 0 0 32 32" xml:space="preserve">
  <g id="icon">
    <path d="M14,32.09L0,28.012V4.196L14,-0.03V32.09zM2,26.512l10,2.913V2.663L2,5.682V26.512z" fill="#000000"/>
    <polygon points="26,11 24,11 24,4 16,4 16,2 26,2" fill="#000000" stroke-linejoin="miter"/>
    <polygon points="26,30 16,30 16,28 24,28 24,21 26,21" fill="#000000" stroke-linejoin="miter"/>
    <rect x="16.7" y="15" width="15.3" height="2" fill="#000000"/>
    <polygon points="20.566,21.237 15.3,15.97 20.566,10.704 21.98,12.118 18.128,15.97 21.98,19.822" fill="#000000" stroke-linejoin="miter"/>
  </g>
</svg>
