<?xml version="1.0" encoding="UTF-8"?>
<!DOCTYPE svg PUBLIC "-//W3C//DTD SVG 1.1//EN" "http://www.w3.org/Graphics/SVG/1.1/DTD/svg11.dtd">
<svg version="1.1" id="Layer_1" xmlns="http://www.w3.org/2000/svg" xmlns:xlink="http://www.w3.org/1999/xlink" x="0px" y="0px" width="32px" height="32px" viewBox="0 0 32 32" enable-background="new 0 0 32 32" xml:space="preserve">
  <g id="icon">
    <path d="M0.528,17.196l-0.522,-0.635l0.522,-0.635C1.7,14.5,3.883,11.845,6.6,9.72C9.757,7.252,12.978,6,16.174,6c1.628,0,3.302,0.383,5.007,1.142l-1.526,1.526C18.467,8.224,17.306,8,16.174,8c-6.102,0,-10.956,5.405,-13.572,8.554c1.304,1.508,2.908,3.084,4.772,4.395L5.94,22.383C3.773,20.809,1.954,18.93,0.528,17.196zM19.955,15.995c0,2.209,-1.774,4.005,-3.955,4.005c-0.104,0,-0.207,-0.005,-0.31,-0.013l-1.671,1.671c0.62,0.221,1.286,0.343,1.98,0.343c3.284,0,5.955,-2.694,5.955,-6.005c0,-0.682,-0.115,-1.338,-0.324,-1.949l-1.686,1.686C19.952,15.818,19.955,15.906,19.955,15.995zM31.459,15.909c-0.846,-1.05,-2.827,-3.507,-5.468,-5.694c-0.097,-0.08,-0.194,-0.159,-0.291,-0.238l-1.424,1.424c1.668,1.33,3.378,3.048,5.125,5.151c-2.634,3.019,-7.878,7.432,-13.227,7.432c-1.363,0,-2.664,-0.213,-3.896,-0.585l-1.579,1.579c1.694,0.63,3.523,1.006,5.476,1.006c7.983,0,14.578,-7.896,15.304,-8.796l0.506,-0.628L31.459,15.909zM12.045,15.995c0,-2.208,1.774,-4.005,3.955,-4.005c0.108,0,0.214,0.006,0.319,0.014l1.669,-1.669c-0.622,-0.223,-1.291,-0.345,-1.988,-0.345c-3.284,0,-5.955,2.694,-5.955,6.005c0,0.685,0.116,1.343,0.327,1.957l1.684,-1.684C12.049,16.178,12.045,16.087,12.045,15.995zM29.707,3.707l-1.414,-1.414l-26.05,26.05l1.414,1.414L29.707,3.707z" fill="#000000"/>
  </g>
</svg>
