<?xml version="1.0" encoding="UTF-8"?>
<!DOCTYPE svg PUBLIC "-//W3C//DTD SVG 1.1//EN" "http://www.w3.org/Graphics/SVG/1.1/DTD/svg11.dtd">
<svg version="1.1" id="Layer_1" xmlns="http://www.w3.org/2000/svg" xmlns:xlink="http://www.w3.org/1999/xlink" x="0px" y="0px" width="32px" height="32px" viewBox="0 0 32 32" enable-background="new 0 0 32 32" xml:space="preserve">
  <g id="icon">
    <path d="M16.174,25.984c-6.96,0,-12.35,-4.779,-15.647,-8.789l-0.522,-0.635l0.522,-0.635C1.7,14.5,3.883,11.845,6.6,9.72C9.757,7.252,12.978,6,16.174,6c3.137,0,6.44,1.418,9.817,4.215c2.641,2.187,4.622,4.645,5.468,5.694l0.525,0.652l-0.506,0.628C30.753,18.089,24.158,25.984,16.174,25.984zM2.602,16.554c3.05,3.529,7.742,7.43,13.572,7.43c5.349,0,10.593,-4.413,13.227,-7.432C24.686,10.877,20.238,8,16.174,8C10.073,8,5.219,13.405,2.602,16.554z" fill="#000000"/>
    <path d="M16,22c-3.284,0,-5.955,-2.694,-5.955,-6.005S12.716,9.989,16,9.989s5.955,2.694,5.955,6.005S19.284,22,16,22zM16,11.989c-2.181,0,-3.955,1.797,-3.955,4.005c0,2.209,1.774,4.005,3.955,4.005s3.955,-1.797,3.955,-4.005C19.955,13.786,18.181,11.989,16,11.989z" fill="#000000"/>
  </g>
</svg>
