<?xml version="1.0" encoding="UTF-8"?>
<!DOCTYPE svg PUBLIC "-//W3C//DTD SVG 1.1//EN" "http://www.w3.org/Graphics/SVG/1.1/DTD/svg11.dtd">
<svg version="1.1" id="Layer_1" xmlns="http://www.w3.org/2000/svg" xmlns:xlink="http://www.w3.org/1999/xlink" x="0px" y="0px" width="32px" height="32px" viewBox="0 0 32 32" enable-background="new 0 0 32 32" xml:space="preserve">
  <g id="icon">
    <path d="M1.507,31.907L0.093,30.493L10.846,19.74C9.072,17.649,8,14.943,8,11.993C8,5.38,13.383,0,20,0s12,5.38,12,11.993s-5.383,11.993,-12,11.993c-2.946,0,-5.648,-1.067,-7.739,-2.834L1.507,31.907zM20,2c-5.514,0,-10,4.483,-10,9.993c0,5.51,4.486,9.993,10,9.993s10,-4.483,10,-9.993C30,6.483,25.514,2,20,2z" fill="#000000"/>
  </g>
</svg>
