<?xml version="1.0" encoding="UTF-8"?>
<!DOCTYPE svg PUBLIC "-//W3C//DTD SVG 1.1//EN" "http://www.w3.org/Graphics/SVG/1.1/DTD/svg11.dtd">
<svg version="1.1" id="Layer_1" xmlns="http://www.w3.org/2000/svg" xmlns:xlink="http://www.w3.org/1999/xlink" x="0px" y="0px" width="32px" height="32px" viewBox="0 0 32 32" enable-background="new 0 0 32 32" xml:space="preserve">
  <g id="icon">
    <path d="M19.773,31.815l-1.525,-1.294l0.647,-0.762c0.295,-0.347,0.856,-1.034,1.192,-1.445l0.208,-0.255c2.683,-3.731,2.495,-7.561,1.116,-9.705c-1.588,-2.47,-3.608,-3.579,-6.181,-3.39c-2.743,0.2,-5.059,3.211,-5.703,4.129c-0.224,0.32,-0.417,0.643,-0.603,0.955c-0.133,0.224,-0.272,0.455,-0.418,0.68c-2.144,3.286,-4.294,5.112,-4.532,5.31l-0.77,0.638l-1.277,-1.54l0.77,-0.638c0.085,-0.071,2.117,-1.771,4.134,-4.863c0.125,-0.191,0.247,-0.395,0.376,-0.612c0.205,-0.344,0.417,-0.699,0.684,-1.08c0.99,-1.41,3.672,-4.717,7.194,-4.975c3.275,-0.24,6.045,1.248,8.009,4.303c1.749,2.72,2.058,7.479,-1.195,11.981l-0.037,0.049l-0.226,0.277c-0.362,0.443,-0.909,1.112,-1.216,1.474L19.773,31.815zM13.63,31.798l-1.498,-1.325l0.662,-0.749c0.509,-0.575,1.034,-1.169,1.525,-1.692c1.921,-2.485,2.82,-4.485,2.673,-5.944c-0.169,-1.67,-0.67,-1.677,-1.364,-1.688l-0.072,-0.001c-1.166,0.002,-1.721,0.769,-2.453,2.376c-0.155,0.339,-0.301,0.659,-0.47,0.94c-0.061,0.101,-0.14,0.241,-0.232,0.402l-0.025,0.044c-0.947,1.669,-2.918,5.142,-6.214,6.77l-0.897,0.443l-0.886,-1.793l0.897,-0.443c2.746,-1.357,4.512,-4.469,5.361,-5.965l0.025,-0.043c0.099,-0.174,0.184,-0.325,0.26,-0.449c0.109,-0.181,0.226,-0.438,0.362,-0.735c0.604,-1.326,1.616,-3.547,4.278,-3.547l0.093,0.001c2.035,0.031,3.091,1.139,3.328,3.486c0.205,2.023,-0.813,4.446,-3.111,7.409l-0.062,0.073c-0.479,0.508,-1.006,1.105,-1.516,1.681L13.63,31.798zM26.777,20.863l-0.027,-1c-0.048,-1.798,-1.076,-5.124,-3.71,-6.915l-0.014,-0.01c-2.035,-1.437,-4.633,-2.322,-7.125,-2.429l-0.017,-0.001c-0.152,-0.009,-0.31,-0.014,-0.47,-0.014c-2.914,0,-6.224,1.582,-7.988,3.145c-0.838,0.743,-1.814,2.059,-2.598,3.116c-0.338,0.456,-0.658,0.887,-0.93,1.223l-0.629,0.777l-1.554,-1.259l0.629,-0.777c0.246,-0.303,0.553,-0.717,0.878,-1.156c0.839,-1.132,1.884,-2.541,2.878,-3.422c1.983,-1.757,5.744,-3.648,9.314,-3.648c0.196,0,0.392,0.006,0.58,0.017c2.861,0.125,5.841,1.141,8.178,2.789c3.504,2.388,4.526,6.61,4.577,8.51l0.027,1L26.777,20.863zM4.609,9.86l-1.28,-1.537l0.769,-0.64c0.844,-0.702,5.087,-3.336,10.447,-3.402l0.021,-0.001c0.395,-0.026,0.801,-0.04,1.208,-0.04c4.954,0,8.952,1.982,10.532,3.153l0.804,0.595l-1.191,1.607l-0.804,-0.595c-1.289,-0.955,-4.9,-2.76,-9.342,-2.76c-0.367,0,-0.732,0.012,-1.087,0.036l-0.104,0.004c-4.753,0.055,-8.637,2.467,-9.205,2.94L4.609,9.86zM8.328,3.51l-0.778,-1.842l0.921,-0.389c1.287,-0.543,3.462,-1.024,5.176,-1.143c0.522,-0.047,1.07,-0.07,1.628,-0.07c2.831,0,5.603,0.596,7.094,1.186l0.93,0.368l-0.736,1.859l-0.93,-0.368c-1.272,-0.504,-3.804,-1.046,-6.357,-1.046c-0.509,0,-0.987,0.021,-1.459,0.063l-0.021,0.002c-1.499,0.103,-3.453,0.529,-4.546,0.991L8.328,3.51z" fill="#000000"/>
  </g>
</svg>
