<?xml version="1.0" encoding="UTF-8"?>
<!DOCTYPE svg PUBLIC "-//W3C//DTD SVG 1.1//EN" "http://www.w3.org/Graphics/SVG/1.1/DTD/svg11.dtd">
<svg version="1.1" id="Layer_1" xmlns="http://www.w3.org/2000/svg" xmlns:xlink="http://www.w3.org/1999/xlink" x="0px" y="0px" width="32px" height="32px" viewBox="0 0 32 32" enable-background="new 0 0 32 32" xml:space="preserve">
  <g id="icon">
    <path d="M14.353,32.005c-1.924,0,-3.735,-0.369,-5.072,-1.104l-0.05,-0.029c-1.716,-1.077,-3.663,-2.415,-5.094,-4.176c-1.612,-1.983,-2.301,-4.144,-2.106,-6.605c0.179,-2.265,0.833,-4.771,1.466,-7.193c0.479,-1.836,0.932,-3.57,1.174,-5.146l0.31,-2.016l1.404,1.479c1.275,1.343,1.883,3.597,2.173,5.458c0.368,-0.799,0.843,-1.923,1.456,-3.503c0.089,-0.23,0.158,-0.407,0.2,-0.511c1.163,-2.845,1.444,-6.666,1.447,-6.704l0.136,-1.933l1.496,1.231c0.236,0.194,4.946,4.109,7.457,9.153c0.048,-1.257,-0.068,-2.668,-0.274,-3.697l-0.592,-2.953l2.241,2.013c4.281,3.846,6.476,9.499,5.728,14.752c-0.655,4.594,-3.431,8.287,-7.819,10.4l-0.061,0.027C18.218,31.653,16.231,32.005,14.353,32.005zM10.269,29.161c1.837,0.995,5.661,1.244,8.928,-0.057c3.75,-1.817,6.12,-4.964,6.676,-8.866c0.531,-3.723,-0.643,-7.691,-3.12,-10.874c0.054,1.719,-0.117,3.751,-1.026,4.919l-1.24,1.593l-0.516,-1.952c-1.081,-4.093,-4.567,-7.928,-6.545,-9.847c-0.22,1.483,-0.631,3.552,-1.361,5.338c-0.04,0.097,-0.103,0.262,-0.187,0.477c-0.32,0.825,-0.916,2.362,-1.536,3.685c-0.914,1.95,-1.65,3.041,-2.703,2.853l-0.798,-0.143l-0.025,-0.81c-0.038,-1.198,-0.239,-3.078,-0.73,-4.656c-0.204,0.856,-0.431,1.726,-0.655,2.581c-0.611,2.339,-1.242,4.757,-1.407,6.846C3.713,24.188,6.294,26.663,10.269,29.161z" fill="#000000"/>
    <path d="M19.855,30.736l-1.77,-0.932c1.879,-3.567,1.258,-7.954,-1.291,-10.967c0.106,1.509,-0.06,3.087,-0.866,4.052l-0.733,0.878l-0.772,-0.843c-0.195,-0.213,-0.445,-0.465,-0.709,-0.732c-0.3,-0.303,-0.634,-0.64,-0.964,-0.998c-0.325,0.638,-0.691,1.236,-1.049,1.822c-0.48,0.786,-0.934,1.528,-1.278,2.333c-0.67,1.568,0.162,3.824,0.445,4.29L9.16,30.68c-0.372,-0.611,-1.644,-3.619,-0.576,-6.116c0.401,-0.938,0.914,-1.778,1.41,-2.59c0.607,-0.993,1.181,-1.932,1.526,-2.994l0.619,-1.904l1.15,1.639c0.406,0.578,0.959,1.168,1.493,1.712c0.127,-1.117,-0.059,-2.692,-0.43,-3.961l-0.773,-2.642l2.288,1.53C20.881,18.705,22.633,25.462,19.855,30.736z" fill="#000000"/>
  </g>
</svg>
