<?xml version="1.0" encoding="UTF-8"?>
<!DOCTYPE svg PUBLIC "-//W3C//DTD SVG 1.1//EN" "http://www.w3.org/Graphics/SVG/1.1/DTD/svg11.dtd">
<svg version="1.1" id="Layer_1" xmlns="http://www.w3.org/2000/svg" xmlns:xlink="http://www.w3.org/1999/xlink" x="0px" y="0px" width="32px" height="32px" viewBox="0 0 32 32" enable-background="new 0 0 32 32" xml:space="preserve">
  <g id="icon">
    <path d="M9.042,32.019c-0.064,0,-0.13,-0.001,-0.195,-0.003c-1.153,-0.035,-2.171,-0.489,-2.944,-1.313c-0.939,-1.001,-1.469,-2.515,-1.418,-4.051l0,0c0.049,-1.462,0.219,-2.483,0.919,-3.053c0.672,-0.547,1.473,-0.409,2.247,-0.275c0.399,0.069,0.851,0.147,1.366,0.163c0.424,0.013,0.801,-0.006,1.135,-0.023c0.835,-0.042,1.624,-0.081,2.238,0.524c0.679,0.668,0.77,1.77,0.706,3.701C13.003,30.488,11.566,32.019,9.042,32.019zM6.484,26.719c-0.033,1.001,0.303,2.004,0.878,2.616c0.407,0.434,0.927,0.663,1.546,0.682c1.263,0.036,2.122,-0.354,2.19,-2.395c0.049,-1.479,-0.04,-1.993,-0.104,-2.171c-0.159,-0.018,-0.478,-0.002,-0.742,0.011c-0.352,0.017,-0.791,0.04,-1.295,0.024c-0.656,-0.02,-1.205,-0.115,-1.646,-0.191c-0.212,-0.037,-0.486,-0.084,-0.647,-0.092C6.607,25.362,6.515,25.762,6.484,26.719L6.484,26.719zM11.604,22.261c-0.179,0,-0.359,-0.029,-0.536,-0.088c-0.785,-0.266,-1.716,-0.444,-2.429,-0.466c-0.69,-0.021,-1.523,0.057,-2.228,0.209c-0.831,0.179,-1.669,-0.301,-1.95,-1.117c-0.36,-1.047,-0.465,-2.5,-0.376,-5.182c0.067,-2.019,0.79,-3.965,2.036,-5.48c1.24,-1.508,2.805,-2.347,4.297,-2.302c1.106,0.034,2.087,0.473,2.836,1.272c1.187,1.265,1.766,3.375,1.675,6.103l0,0c-0.055,1.665,-0.677,4.337,-1.911,6.271C12.703,21.977,12.165,22.261,11.604,22.261zM8.41,19.703c0.098,0,0.194,0.001,0.29,0.004c0.834,0.025,1.848,0.206,2.761,0.49c0.898,-1.525,1.425,-3.706,1.47,-5.054l0,0c0.072,-2.154,-0.332,-3.812,-1.135,-4.668c-0.388,-0.414,-0.859,-0.624,-1.438,-0.641c-0.016,-0.001,-0.033,-0.001,-0.05,-0.001c-1.642,0,-4.11,2.42,-4.224,5.85c-0.071,2.122,-0.012,3.417,0.195,4.219C6.973,19.773,7.723,19.703,8.41,19.703z" fill="#000000"/>
    <path d="M20.148,23.952c-0.403,0,-0.813,-0.06,-1.225,-0.181c-2.526,-0.741,-3.535,-2.667,-2.84,-5.422c0.472,-1.87,0.866,-2.9,1.709,-3.338c0.769,-0.4,1.517,-0.115,2.309,0.188c0.314,0.12,0.67,0.256,1.08,0.376c0.498,0.146,0.951,0.213,1.352,0.271c0.772,0.113,1.571,0.23,2.051,0.949c0.502,0.751,0.382,1.773,0.028,3.18c-0.375,1.485,-1.301,2.773,-2.477,3.445C21.515,23.774,20.843,23.952,20.148,23.952zM18.699,16.829c-0.112,0.168,-0.332,0.646,-0.676,2.01c-0.534,2.115,0.388,2.698,1.464,3.014c0.604,0.177,1.146,0.122,1.656,-0.169c0.703,-0.402,1.289,-1.244,1.53,-2.198c0.247,-0.98,0.258,-1.385,0.243,-1.539c-0.151,-0.045,-0.447,-0.089,-0.673,-0.122c-0.442,-0.065,-0.993,-0.146,-1.625,-0.331h0c-0.485,-0.142,-0.898,-0.3,-1.23,-0.427C19.148,16.976,18.861,16.866,18.699,16.829zM24.877,15.103c-0.285,0,-0.573,-0.073,-0.837,-0.226c-0.634,-0.366,-1.41,-0.702,-2.078,-0.898c-0.688,-0.202,-1.627,-0.321,-2.45,-0.313c-0.006,0,-0.012,0,-0.018,0c-0.749,0,-1.418,-0.506,-1.629,-1.237c-0.645,-2.229,-0.503,-4.975,-0.097,-6.583c0.665,-2.635,1.802,-4.478,3.289,-5.327c0.949,-0.542,2.02,-0.662,3.097,-0.346c1.426,0.419,2.683,1.699,3.447,3.514c0.771,1.831,0.925,3.912,0.433,5.861c-0.655,2.595,-1.157,3.954,-1.793,4.846C25.915,14.854,25.402,15.103,24.877,15.103zM19.731,11.667c0.957,0.012,1.986,0.156,2.795,0.393c0.729,0.214,1.53,0.548,2.242,0.933c0.411,-0.704,0.818,-1.915,1.327,-3.934c0.849,-3.366,-0.906,-6.498,-2.504,-6.967c-0.558,-0.164,-1.062,-0.11,-1.541,0.163c-0.989,0.565,-1.821,2.014,-2.342,4.08C19.377,7.647,19.282,9.921,19.731,11.667z" fill="#000000"/>
  </g>
</svg>
