<?xml version="1.0" encoding="UTF-8"?>
<!DOCTYPE svg PUBLIC "-//W3C//DTD SVG 1.1//EN" "http://www.w3.org/Graphics/SVG/1.1/DTD/svg11.dtd">
<svg version="1.1" id="Layer_1" xmlns="http://www.w3.org/2000/svg" xmlns:xlink="http://www.w3.org/1999/xlink" x="0px" y="0px" width="32px" height="32px" viewBox="0 0 32 32" enable-background="new 0 0 32 32" xml:space="preserve">
  <g id="icon">
    <polygon points="2.707,30.707 1.293,29.293 10.586,20 5.027,20 5.027,18 14,18 14,26.973 12,26.973 12,21.414" fill="#000000" stroke-linejoin="miter"/>
    <polygon points="29.293,30.707 20,21.414 20,26.973 18,26.973 18,18 26.973,18 26.973,20 21.414,20 30.707,29.293" fill="#000000" stroke-linejoin="miter"/>
    <polygon points="14,14 5.027,14 5.027,12 10.586,12 1.293,2.707 2.707,1.293 12,10.586 12,5.027 14,5.027" fill="#000000" stroke-linejoin="miter"/>
    <polygon points="26.973,14 18,14 18,5.027 20,5.027 20,10.586 29.293,1.293 30.707,2.707 21.414,12 26.973,12" fill="#000000" stroke-linejoin="miter"/>
  </g>
</svg>
