<?xml version="1.0" encoding="UTF-8"?>
<!DOCTYPE svg PUBLIC "-//W3C//DTD SVG 1.1//EN" "http://www.w3.org/Graphics/SVG/1.1/DTD/svg11.dtd">
<svg version="1.1" id="Layer_1" xmlns="http://www.w3.org/2000/svg" xmlns:xlink="http://www.w3.org/1999/xlink" x="0px" y="0px" width="32px" height="32px" viewBox="0 0 32 32" enable-background="new 0 0 32 32" xml:space="preserve">
  <g id="icon">
    <polygon points="20.707,12.707 19.293,11.293 28.586,2 22.127,2 22.127,0 32,0 32,9.873 30,9.873 30,3.414" fill="#000000" stroke-linejoin="miter"/>
    <polygon points="11.293,12.707 2,3.414 2,9.873 0,9.873 0,0 9.873,0 9.873,2 3.414,2 12.707,11.293" fill="#000000" stroke-linejoin="miter"/>
    <polygon points="32,32.1 22.127,32.1 22.127,30.1 28.586,30.1 19.293,20.807 20.707,19.393 30,28.686 30,22.227 32,22.227" fill="#000000" stroke-linejoin="miter"/>
    <polygon points="9.873,32.1 0,32.1 0,22.227 2,22.227 2,28.686 11.293,19.393 12.707,20.807 3.414,30.1 9.873,30.1" fill="#000000" stroke-linejoin="miter"/>
  </g>
</svg>
