<?xml version="1.0" encoding="UTF-8"?>
<!DOCTYPE svg PUBLIC "-//W3C//DTD SVG 1.1//EN" "http://www.w3.org/Graphics/SVG/1.1/DTD/svg11.dtd">
<svg version="1.1" id="Layer_1" xmlns="http://www.w3.org/2000/svg" xmlns:xlink="http://www.w3.org/1999/xlink" x="0px" y="0px" width="32px" height="32px" viewBox="0 0 32 32" enable-background="new 0 0 32 32" xml:space="preserve">
  <g id="icon">
    <path d="M5.104,28c-0.873,0,-1.753,-0.267,-2.615,-0.795c-1.157,-0.708,-2.529,-2.155,-2.488,-5.027c0.078,-5.597,1.554,-10.157,4.513,-13.942C5.723,6.69,6.996,6,8.641,6H23.9c1.09,0,2.011,0.421,2.816,1.286c2.737,2.942,4.425,6.669,5.015,11.077c0.214,1.597,0.399,3.464,0.15,5.211c-0.368,2.594,-2.321,4.405,-4.749,4.406c-0.807,0,-1.594,-0.207,-2.339,-0.615c-0.763,-0.418,-1.441,-0.937,-2.158,-1.486c-0.547,-0.418,-1.106,-0.846,-1.681,-1.203c-1.282,-0.795,-2.444,-1.485,-3.68,-1.869c-0.456,-0.142,-0.923,-0.214,-1.387,-0.214c-1.677,0,-3.182,0.923,-4.306,1.728c-0.652,0.466,-1.301,0.96,-1.929,1.438l-0.01,0.008c-0.51,0.388,-1.037,0.789,-1.563,1.173C7.117,27.643,6.115,28,5.104,28zM8.641,8c-0.842,0,-1.598,0.25,-2.552,1.469c-2.679,3.427,-4.017,7.594,-4.088,12.738c-0.022,1.571,0.479,2.648,1.532,3.293c0.543,0.332,1.071,0.501,1.571,0.501c0.578,0,1.183,-0.228,1.797,-0.676c0.511,-0.373,1.03,-0.768,1.533,-1.15l0.01,-0.007c0.639,-0.486,1.301,-0.989,1.976,-1.472c1.367,-0.978,3.224,-2.101,5.47,-2.101c0.666,0,1.332,0.102,1.981,0.304c1.461,0.455,2.739,1.211,4.14,2.079c0.658,0.408,1.257,0.866,1.836,1.309c0.661,0.506,1.28,0.98,1.909,1.325c0.447,0.245,0.91,0.369,1.378,0.369c1.406,0,2.544,-1.105,2.769,-2.687c0.214,-1.506,0.043,-3.203,-0.153,-4.664c-0.534,-3.989,-2.047,-7.347,-4.497,-9.979C24.829,8.194,24.425,8,23.9,8H8.641zM10,20H8v-2H6v-2h2v-2h2v2h2v2h-2V20z" fill="#000000"/>
    <path d="M27,19c0,1.105,-0.895,2,-2,2c-1.105,0,-2,-0.895,-2,-2s0.895,-2,2,-2C26.105,17,27,17.895,27,19zM21,12c-1.105,0,-2,0.895,-2,2s0.895,2,2,2s2,-0.895,2,-2S22.105,12,21,12z" fill="#000000"/>
  </g>
</svg>
