<?xml version="1.0" encoding="UTF-8"?>
<!DOCTYPE svg PUBLIC "-//W3C//DTD SVG 1.1//EN" "http://www.w3.org/Graphics/SVG/1.1/DTD/svg11.dtd">
<svg version="1.1" id="Layer_1" xmlns="http://www.w3.org/2000/svg" xmlns:xlink="http://www.w3.org/1999/xlink" x="0px" y="0px" width="32px" height="32px" viewBox="0 0 32 32" enable-background="new 0 0 32 32" xml:space="preserve">
  <g id="icon">
    <path d="M26,30H6c-2.206,0,-4,-1.794,-4,-4V6c0,-2.206,1.794,-4,4,-4h20c2.206,0,4,1.794,4,4v20C30,28.206,28.206,30,26,30zM6,4c-1.103,0,-2,0.897,-2,2v20c0,1.103,0.897,2,2,2h20c1.103,0,2,-0.897,2,-2V6c0,-1.103,-0.897,-2,-2,-2H6z" fill="#000000"/>
    <path d="M18,16c0,1.105,-0.895,2,-2,2s-2,-0.895,-2,-2s0.895,-2,2,-2S18,14.895,18,16zM23,7c-1.105,0,-2,0.895,-2,2s0.895,2,2,2s2,-0.895,2,-2S24.105,7,23,7zM9,7c-1.105,0,-2,0.895,-2,2s0.895,2,2,2s2,-0.895,2,-2S10.105,7,9,7zM9,21c-1.105,0,-2,0.895,-2,2s0.895,2,2,2s2,-0.895,2,-2S10.105,21,9,21zM23,21c-1.105,0,-2,0.895,-2,2s0.895,2,2,2s2,-0.895,2,-2S24.105,21,23,21z" fill="#000000"/>
  </g>
</svg>
