<?xml version="1.0" encoding="UTF-8"?>
<!DOCTYPE svg PUBLIC "-//W3C//DTD SVG 1.1//EN" "http://www.w3.org/Graphics/SVG/1.1/DTD/svg11.dtd">
<svg version="1.1" id="Layer_1" xmlns="http://www.w3.org/2000/svg" xmlns:xlink="http://www.w3.org/1999/xlink" x="0px" y="0px" width="32px" height="32px" viewBox="0 0 32 32" enable-background="new 0 0 32 32" xml:space="preserve">
  <g id="icon">
    <path d="M7.552,31.978l-1.851,-0.757l0.956,-2.339c-1.498,-0.822,-2.718,-2.041,-3.54,-3.54L0.83,26.278l-0.757,-1.851l2.281,-0.932c-0.484,-1.672,-0.456,-3.397,0.004,-4.987l-2.336,-0.955l0.757,-1.851l2.344,0.958c0.8,-1.454,2.003,-2.697,3.532,-3.539l-1.03,-2.486l1.848,-0.765l1.03,2.485c1.638,-0.477,3.36,-0.477,4.998,0l1.051,-2.537l1.848,0.765l-1.051,2.537c1.495,0.821,2.713,2.039,3.534,3.534l2.485,-1.03l0.765,1.848l-2.486,1.029c0.477,1.638,0.477,3.36,0,4.998l2.537,1.051l-0.765,1.848l-2.537,-1.051c-0.822,1.496,-2.041,2.715,-3.538,3.536l0.935,2.288l-1.851,0.757l-0.932,-2.28c-1.635,0.475,-3.354,0.475,-4.99,0L7.552,31.978zM11,13.998c-0.907,0,-1.815,0.179,-2.678,0.537c-1.727,0.715,-3.072,2.061,-3.788,3.788s-0.715,3.629,0,5.356s2.06,3.072,3.788,3.788c1.727,0.715,3.629,0.715,5.356,0c1.727,-0.715,3.072,-2.061,3.788,-3.788s0.715,-3.629,0,-5.356h0c-0.715,-1.727,-2.06,-3.072,-3.788,-3.788C12.815,14.176,11.907,13.998,11,13.998zM24.983,16h-2v-1.829c-0.932,-0.152,-1.811,-0.516,-2.577,-1.068l-1.479,1.479l-1.414,-1.414l1.479,-1.479c-0.572,-0.794,-0.941,-1.708,-1.083,-2.677H16v-2h1.941c0.161,-0.895,0.518,-1.738,1.05,-2.477l-1.579,-1.579l1.414,-1.414l1.579,1.579c0.767,-0.552,1.645,-0.916,2.577,-1.068V0h2v2.052c0.932,0.152,1.811,0.516,2.577,1.068l1.502,-1.502l1.414,1.414l-1.502,1.502c0.532,0.739,0.889,1.582,1.05,2.477h1.97v2h-1.937c-0.142,0.97,-0.511,1.883,-1.083,2.677l1.502,1.502l-1.414,1.414l-1.502,-1.502c-0.767,0.552,-1.645,0.916,-2.577,1.068V16zM23.983,3.972c-1.106,0,-2.145,0.431,-2.927,1.213c-0.782,0.782,-1.213,1.821,-1.213,2.927s0.431,2.145,1.213,2.927c0.782,0.782,1.821,1.213,2.927,1.213s2.145,-0.431,2.927,-1.213c0.782,-0.782,1.213,-1.821,1.213,-2.927s-0.431,-2.145,-1.213,-2.927v0C26.128,4.402,25.088,3.972,23.983,3.972z" fill="#000000"/>
  </g>
</svg>
