<?xml version="1.0" encoding="UTF-8"?>
<!DOCTYPE svg PUBLIC "-//W3C//DTD SVG 1.1//EN" "http://www.w3.org/Graphics/SVG/1.1/DTD/svg11.dtd">
<svg version="1.1" id="Layer_1" xmlns="http://www.w3.org/2000/svg" xmlns:xlink="http://www.w3.org/1999/xlink" x="0px" y="0px" width="32px" height="32px" viewBox="0 0 32 32" enable-background="new 0 0 32 32" xml:space="preserve">
  <g id="icon">
    <path d="M10.772,31.235l-1.848,-0.765l1.578,-3.809c-2.159,-1.111,-3.992,-2.878,-5.168,-5.16l-3.734,1.546l-0.765,-1.848l3.734,-1.547c-0.783,-2.445,-0.736,-4.991,0.005,-7.303l-3.81,-1.578l0.765,-1.848l3.81,1.578C6.451,8.343,8.217,6.509,10.5,5.334L8.953,1.601l1.848,-0.765l1.547,3.734c2.445,-0.783,4.991,-0.735,7.303,0.005l1.578,-3.809l1.848,0.765l-1.578,3.809c2.159,1.111,3.992,2.878,5.168,5.16l3.734,-1.547l0.765,1.848l-3.733,1.546c0.767,2.386,0.767,4.92,0,7.305l3.804,1.575l-0.765,1.848L26.666,21.5c-1.145,2.229,-2.937,4.021,-5.166,5.166l1.546,3.733l-1.848,0.765l-1.547,-3.734c-2.445,0.783,-4.991,0.735,-7.303,-0.005L10.772,31.235zM15.987,6c-1.273,0,-2.566,0.245,-3.814,0.761c-5.094,2.11,-7.522,7.971,-5.412,13.066c2.11,5.094,7.971,7.522,13.066,5.412c2.468,-1.022,4.39,-2.944,5.412,-5.412c1.022,-2.468,1.022,-5.186,0,-7.654C23.645,8.326,19.913,6,15.987,6zM16,21c-2.757,0,-5,-2.243,-5,-5s2.243,-5,5,-5s5,2.243,5,5S18.757,21,16,21zM16,13c-1.654,0,-3,1.346,-3,3s1.346,3,3,3s3,-1.346,3,-3S17.654,13,16,13z" fill="#000000"/>
  </g>
</svg>
