<?xml version="1.0" encoding="UTF-8"?>
<!DOCTYPE svg PUBLIC "-//W3C//DTD SVG 1.1//EN" "http://www.w3.org/Graphics/SVG/1.1/DTD/svg11.dtd">
<svg version="1.1" id="Layer_1" xmlns="http://www.w3.org/2000/svg" xmlns:xlink="http://www.w3.org/1999/xlink" x="0px" y="0px" width="32px" height="32px" viewBox="0 0 32 32" enable-background="new 0 0 32 32" xml:space="preserve">
  <g id="icon">
    <path d="M28,32H4V18H2V8h7.548c-0.808,-0.738,-1.375,-1.408,-1.788,-1.897l-0.112,-0.132c-0.956,-1.126,-1.327,-2.585,-0.99,-3.902c0.233,-0.913,0.787,-1.598,1.518,-1.878c1.583,-0.607,3.691,0.266,5.248,2.172c0.731,0.896,1.946,2.936,2.679,5.005c0.741,-2.068,1.92,-4.141,2.625,-5.005c1.556,-1.906,3.665,-2.779,5.247,-2.172c0.731,0.28,1.284,0.965,1.518,1.878c0.337,1.317,-0.033,2.776,-0.99,3.902l-0.112,0.133c-0.413,0.488,-0.979,1.158,-1.788,1.896H30v10h-2V32zM17,30h9V18h-9V30zM6,30h9V18H6V30zM17,16h11v-6H17V16zM4,16h11v-6H4V16zM18.001,8h1.33c1.839,-1.183,2.852,-2.381,3.534,-3.188l0.115,-0.136c0.633,-0.745,0.713,-1.579,0.577,-2.112c-0.081,-0.317,-0.225,-0.479,-0.296,-0.506c-0.628,-0.241,-1.887,0.228,-2.982,1.57C19.755,4.268,18.677,6.13,18.001,8zM12.822,8h1.386c-0.667,-1.878,-1.779,-3.694,-2.333,-4.372c-1.096,-1.342,-2.355,-1.81,-2.982,-1.57c-0.071,0.027,-0.215,0.189,-0.296,0.506c-0.136,0.532,-0.056,1.367,0.577,2.112l0.115,0.136C9.97,5.618,10.983,6.817,12.822,8z" fill="#000000"/>
  </g>
</svg>
