<?xml version="1.0" encoding="UTF-8"?>
<!DOCTYPE svg PUBLIC "-//W3C//DTD SVG 1.1//EN" "http://www.w3.org/Graphics/SVG/1.1/DTD/svg11.dtd">
<svg version="1.1" id="Layer_1" xmlns="http://www.w3.org/2000/svg" xmlns:xlink="http://www.w3.org/1999/xlink" x="0px" y="0px" width="32px" height="32px" viewBox="0 0 32 32" enable-background="new 0 0 32 32" xml:space="preserve">
  <g id="icon">
    <path d="M16,32C7.178,32,0,24.822,0,16C0,7.178,7.178,0,16,0c8.822,0,16,7.178,16,16C32,24.822,24.822,32,16,32zM22.853,25.231c-0.016,0.03,-0.031,0.059,-0.047,0.089c-0.869,1.624,-1.874,3.024,-2.958,4.143c2.122,-0.607,4.039,-1.704,5.621,-3.159C24.592,25.891,23.719,25.533,22.853,25.231zM6.528,26.3c1.565,1.44,3.456,2.529,5.55,3.141c-1.077,-1.115,-2.073,-2.507,-2.938,-4.122c-0.014,-0.026,-0.028,-0.053,-0.042,-0.079C8.246,25.54,7.389,25.893,6.528,26.3zM11.056,24.645c1.1,1.967,2.479,3.648,3.944,4.687v-5.305C13.703,24.098,12.387,24.304,11.056,24.645zM17,24.028v5.266c1.446,-1.043,2.807,-2.71,3.894,-4.656C19.576,24.302,18.276,24.098,17,24.028zM23.714,23.414c1.057,0.378,2.12,0.832,3.188,1.36c1.741,-2.159,2.855,-4.844,3.063,-7.774h-4.662C25.17,19.042,24.615,21.273,23.714,23.414zM2.035,17c0.208,2.93,1.322,5.614,3.061,7.772c1.05,-0.523,2.097,-0.973,3.14,-1.348c-0.904,-2.144,-1.46,-4.379,-1.593,-6.424H2.035zM8.648,17c0.138,1.911,0.686,3.934,1.503,5.816c1.633,-0.449,3.252,-0.713,4.849,-0.791V17H8.648zM17,22.025c1.575,0.078,3.177,0.34,4.799,0.784c0.816,-1.879,1.362,-3.9,1.5,-5.809H17V22.025zM25.292,15h4.672c-0.204,-2.883,-1.286,-5.528,-2.978,-7.669c-0.868,0.423,-1.991,0.911,-3.307,1.353C24.579,10.798,25.141,12.991,25.292,15zM17,15h6.287c-0.158,-1.884,-0.715,-3.881,-1.536,-5.746c-1.446,0.368,-3.049,0.643,-4.751,0.723V15zM8.662,15H15V9.977c-1.698,-0.079,-3.298,-0.351,-4.761,-0.73C9.37,11.182,8.821,13.182,8.662,15zM2.035,15h4.62c0.155,-2.01,0.731,-4.21,1.654,-6.334c-1.231,-0.423,-2.33,-0.902,-3.269,-1.368C3.333,9.444,2.241,12.102,2.035,15zM11.168,7.418c1.195,0.285,2.48,0.488,3.832,0.557V2.819C13.627,3.859,12.287,5.458,11.168,7.418zM17,2.787v5.187c1.358,-0.07,2.649,-0.275,3.835,-0.554C19.759,5.51,18.422,3.858,17,2.787zM19.679,2.49c1.12,1.145,2.162,2.584,3.066,4.256c0.022,0.04,0.043,0.08,0.065,0.121c1.058,-0.344,1.99,-0.725,2.759,-1.077C23.926,4.249,21.912,3.099,19.679,2.49zM6.46,5.762c0.809,0.379,1.726,0.757,2.733,1.092c0.021,-0.038,0.042,-0.076,0.062,-0.114c0.921,-1.674,1.977,-3.115,3.11,-4.262C10.127,3.081,8.109,4.225,6.46,5.762z" fill="#000000"/>
  </g>
</svg>
