<?xml version="1.0" encoding="UTF-8"?>
<!DOCTYPE svg PUBLIC "-//W3C//DTD SVG 1.1//EN" "http://www.w3.org/Graphics/SVG/1.1/DTD/svg11.dtd">
<svg version="1.1" id="Layer_1" xmlns="http://www.w3.org/2000/svg" xmlns:xlink="http://www.w3.org/1999/xlink" x="0px" y="0px" width="32px" height="32px" viewBox="0 0 32 32" enable-background="new 0 0 32 32" xml:space="preserve">
  <g id="icon">
    <path d="M3.5,28c-1.93,0,-3.5,-1.57,-3.5,-3.5s1.57,-3.5,3.5,-3.5c0.397,0,0.78,0.067,1.136,0.189l4.435,-6.209c-0.462,-0.593,-0.738,-1.339,-0.738,-2.147c0,-1.93,1.57,-3.5,3.5,-3.5c1.93,0,3.5,1.57,3.5,3.5c0,0.465,-0.091,0.908,-0.256,1.314l3.096,2.477c0.566,-0.394,1.253,-0.625,1.994,-0.625c0.322,0,0.634,0.044,0.93,0.125l4.779,-7.646c-0.544,-0.617,-0.875,-1.427,-0.875,-2.313c0,-1.93,1.57,-3.5,3.5,-3.5s3.5,1.57,3.5,3.5s-1.57,3.5,-3.5,3.5c-0.322,0,-0.634,-0.044,-0.93,-0.125l-4.779,7.646c0.545,0.617,0.875,1.427,0.875,2.313c0,1.93,-1.57,3.5,-3.5,3.5s-3.5,-1.57,-3.5,-3.5c0,-0.465,0.091,-0.908,0.256,-1.314l-3.096,-2.477c-0.566,0.394,-1.253,0.625,-1.993,0.625c-0.397,0,-0.78,-0.067,-1.136,-0.189l-4.435,6.209C6.724,22.946,7,23.692,7,24.5C7,26.43,5.43,28,3.5,28zM3.5,23c-0.827,0,-1.5,0.673,-1.5,1.5s0.673,1.5,1.5,1.5s1.5,-0.673,1.5,-1.5S4.327,23,3.5,23zM20.167,18c-0.827,0,-1.5,0.673,-1.5,1.5s0.673,1.5,1.5,1.5s1.5,-0.673,1.5,-1.5S20.994,18,20.167,18zM11.833,11.333c-0.827,0,-1.5,0.673,-1.5,1.5c0,0.827,0.673,1.5,1.5,1.5s1.5,-0.673,1.5,-1.5C13.333,12.006,12.66,11.333,11.833,11.333zM28.5,4.667c-0.827,0,-1.5,0.673,-1.5,1.5s0.673,1.5,1.5,1.5s1.5,-0.673,1.5,-1.5S29.327,4.667,28.5,4.667z" fill="#000000"/>
  </g>
</svg>
