<?xml version="1.0" encoding="UTF-8"?>
<!DOCTYPE svg PUBLIC "-//W3C//DTD SVG 1.1//EN" "http://www.w3.org/Graphics/SVG/1.1/DTD/svg11.dtd">
<svg version="1.1" id="Layer_1" xmlns="http://www.w3.org/2000/svg" xmlns:xlink="http://www.w3.org/1999/xlink" x="0px" y="0px" width="32px" height="32px" viewBox="0 0 32 32" enable-background="new 0 0 32 32" xml:space="preserve">
  <g id="icon">
    <path d="M2.965,31.238l-1.943,-0.476c0.145,-0.591,0.226,-1.046,0.32,-1.573c0.14,-0.787,0.294,-1.65,0.686,-3.152c-0.046,-0.58,-0.226,-1.807,-0.387,-2.91c-0.299,-2.039,-0.638,-4.351,-0.68,-5.818C0.884,14.66,2.201,7.148,9.124,4.235c4.533,-1.907,9.044,-1.517,12.338,-1.232c1.559,0.135,2.905,0.251,3.862,0.105c1.716,-0.262,2.93,-1.108,3.647,-1.771c0.419,-0.388,1.047,-0.445,1.527,-0.139c0.486,0.309,0.703,0.91,0.527,1.461C29.123,8.602,21.75,27.889,6.709,26.517c-2.412,-0.24,-2.803,0.313,-2.806,0.319l-0.027,0.046c-0.31,1.226,-0.443,1.973,-0.565,2.659C3.216,30.077,3.125,30.585,2.965,31.238zM5.601,24.456c0.4,0,0.832,0.023,1.298,0.07c5.811,0.53,11.063,-2.435,15.599,-8.814c2.833,-3.984,4.751,-8.407,5.893,-11.536c-0.769,0.404,-1.69,0.744,-2.765,0.909h0c-1.192,0.182,-2.649,0.056,-4.336,-0.09c-3.258,-0.282,-7.313,-0.632,-11.39,1.083c-2.543,1.07,-4.456,2.975,-5.687,5.661c-0.981,2.143,-1.289,4.309,-1.254,5.513c0.03,1.028,0.236,2.633,0.455,4.172c0.473,-1.394,1.078,-3.023,1.616,-3.996c0.769,-1.388,1.711,-2.529,2.724,-3.303c1.056,-0.876,2.053,-1.563,3.047,-2.1c1.798,-0.964,3.28,-1.286,3.913,-1.423c0.046,-0.01,0.086,-0.019,0.12,-0.026l0.022,-0.005c0.138,-0.028,0.308,-0.064,0.505,-0.105c0.481,-0.101,1.141,-0.24,1.885,-0.38l0.029,-0.005c0.841,-0.134,2.076,-0.385,3.185,-0.824l0.736,1.86c-1.271,0.503,-2.652,0.787,-3.592,0.937c-0.718,0.136,-1.36,0.271,-1.83,0.37c-0.198,0.042,-0.369,0.078,-0.509,0.106c-0.037,0.008,-0.078,0.017,-0.125,0.027c-0.551,0.12,-1.841,0.399,-3.39,1.229c-0.879,0.475,-1.774,1.094,-2.733,1.891l-0.035,0.028c-0.8,0.607,-1.561,1.538,-2.201,2.692c-0.792,1.431,-1.906,4.94,-2.255,6.125C4.853,24.478,5.212,24.456,5.601,24.456z" fill="#000000"/>
  </g>
</svg>
