<?xml version="1.0" encoding="UTF-8"?>
<!DOCTYPE svg PUBLIC "-//W3C//DTD SVG 1.1//EN" "http://www.w3.org/Graphics/SVG/1.1/DTD/svg11.dtd">
<svg version="1.1" id="Layer_1" xmlns="http://www.w3.org/2000/svg" xmlns:xlink="http://www.w3.org/1999/xlink" x="0px" y="0px" width="32px" height="32px" viewBox="0 0 32 32" enable-background="new 0 0 32 32" xml:space="preserve">
  <g id="icon">
    <path d="M32,32H0V0h32V32zM22,30h8v-8h-8V30zM12,30h8v-8h-8V30zM2,30h8v-8H2V30zM22,20h8v-8h-8V20zM12,20h8v-8h-8V20zM2,20h8v-8H2V20zM22,10h8V2h-8V10zM12,10h8V2h-8V10zM2,10h8V2H2V10z" fill="#000000"/>
  </g>
</svg>
