<?xml version="1.0" encoding="UTF-8"?>
<!DOCTYPE svg PUBLIC "-//W3C//DTD SVG 1.1//EN" "http://www.w3.org/Graphics/SVG/1.1/DTD/svg11.dtd">
<svg version="1.1" id="Layer_1" xmlns="http://www.w3.org/2000/svg" xmlns:xlink="http://www.w3.org/1999/xlink" x="0px" y="0px" width="32px" height="32px" viewBox="0 0 32 32" enable-background="new 0 0 32 32" xml:space="preserve">
  <g id="icon">
    <path d="M16.014,31.998c-0.318,0,-0.635,-0.118,-0.877,-0.354c-1.658,-1.611,-3.188,-3.059,-4.537,-4.337C3.578,20.658,0.053,17.321,0.053,11.393l0,-0.012C0.106,7.127,2.811,3.497,6.786,2.35c3.439,-0.993,6.88,0.19,9.213,3.096c2.286,-2.901,5.71,-4.09,9.171,-3.113c1.864,0.526,3.563,1.662,4.786,3.197c1.319,1.657,2.031,3.68,2.058,5.851l0,0.012c0,2.853,-2.367,6.956,-7.034,12.196c-3.598,4.04,-7.407,7.453,-8.134,8.096C16.609,31.894,16.311,31.998,16.014,31.998zM2.053,11.399c0.002,5.063,3.112,8.008,9.922,14.456c1.218,1.153,2.583,2.445,4.058,3.873c1.313,-1.187,4.458,-4.107,7.453,-7.469c5.388,-6.049,6.525,-9.244,6.527,-10.86c-0.051,-3.897,-2.742,-6.395,-5.387,-7.142c-2.967,-0.838,-5.805,0.352,-7.591,3.184c-0.223,0.353,-0.605,0.565,-1.023,0.567c-0.418,0.006,-0.802,-0.205,-1.029,-0.555c-1.84,-2.843,-4.698,-4.032,-7.644,-3.182C4.745,5.021,2.104,7.515,2.053,11.399z" fill="#000000"/>
  </g>
</svg>
