<?xml version="1.0" encoding="UTF-8"?>
<!DOCTYPE svg PUBLIC "-//W3C//DTD SVG 1.1//EN" "http://www.w3.org/Graphics/SVG/1.1/DTD/svg11.dtd">
<svg version="1.1" id="Layer_1" xmlns="http://www.w3.org/2000/svg" xmlns:xlink="http://www.w3.org/1999/xlink" x="0px" y="0px" width="32px" height="32px" viewBox="0 0 32 32" enable-background="new 0 0 32 32" xml:space="preserve">
  <g id="icon">
    <path d="M28,32H2v-6h2.437c0.114,-2.294,0.649,-4.14,1.626,-5.622c1.238,-1.879,3.135,-3.132,5.8,-3.829c0.113,-0.034,0.236,-0.284,0.234,-0.594c-0.002,-0.236,-0.086,-0.501,-0.224,-0.537c-2.671,-0.697,-4.571,-1.951,-5.81,-3.832C5.091,10.112,4.557,8.278,4.438,6H2V0h26v6h-2.425c-0.118,2.278,-0.652,4.112,-1.624,5.587c-1.239,1.881,-3.139,3.134,-5.808,3.831c-0.14,0.036,-0.225,0.302,-0.226,0.537c-0.002,0.309,0.121,0.56,0.234,0.594c2.665,0.697,4.562,1.95,5.8,3.829c0.976,1.482,1.511,3.328,1.626,5.622H28V32zM4,30h22v-2H4V30zM6.44,26h17.133c-0.239,-4.18,-2.098,-6.516,-5.936,-7.518l-0.011,-0.003c-1.031,-0.281,-1.718,-1.301,-1.71,-2.537c0.008,-1.207,0.7,-2.195,1.723,-2.46c3.825,-0.999,5.684,-3.324,5.932,-7.482H6.442c0.248,4.159,2.107,6.484,5.934,7.483c1.021,0.264,1.713,1.253,1.721,2.46c0.008,1.236,-0.679,2.255,-1.71,2.537l-0.011,0.003C8.538,19.484,6.679,21.82,6.44,26zM4,4h22V2H4V4z" fill="#000000"/>
  </g>
</svg>
