<?xml version="1.0" encoding="UTF-8"?>
<!DOCTYPE svg PUBLIC "-//W3C//DTD SVG 1.1//EN" "http://www.w3.org/Graphics/SVG/1.1/DTD/svg11.dtd">
<svg version="1.1" id="Layer_1" xmlns="http://www.w3.org/2000/svg" xmlns:xlink="http://www.w3.org/1999/xlink" x="0px" y="0px" width="32px" height="32px" viewBox="0 0 32 32" enable-background="new 0 0 32 32" xml:space="preserve">
  <g id="icon">
    <path d="M20,32h-8v-2H0v-2h12v-2h3v-2.065c-6.15,-0.504,-11,-5.67,-11,-11.947C4,5.378,9.378,0,15.988,0c6.61,0,11.988,5.378,11.988,11.988c0,6.269,-4.837,11.43,-10.976,11.946V26h3v2h12v2H20V32zM14,30h4v-2h-4V30zM12.766,17c0.65,2.181,1.729,4.068,3.202,4.88c1.461,-0.807,2.579,-2.692,3.261,-4.88H12.766zM21.318,17c-0.174,0.639,-0.378,1.258,-0.612,1.84c-0.389,0.972,-0.846,1.827,-1.363,2.556c2.234,-0.799,4.103,-2.373,5.282,-4.396H21.318zM7.351,17c1.175,2.016,3.034,3.586,5.258,4.387c-0.866,-1.241,-1.504,-2.773,-1.926,-4.387H7.351zM21.748,15h3.763c0.301,-0.951,0.464,-1.963,0.464,-3.012c0,-1.04,-0.16,-2.044,-0.456,-2.988h-3.791c0.173,1.02,0.264,2.05,0.264,3.039C21.992,13.006,21.908,14.009,21.748,15zM12.302,15h7.416c0.18,-0.994,0.274,-2.002,0.274,-2.961c0,-0.981,-0.1,-2.017,-0.292,-3.039h-7.365c-0.191,1.022,-0.29,2.057,-0.29,3.039C12.045,12.995,12.131,14.003,12.302,15zM6.464,15h3.808c-0.152,-1.004,-0.227,-2.006,-0.227,-2.961c0,-0.986,0.085,-2.015,0.254,-3.039H6.456C6.16,9.944,6,10.947,6,11.988C6,13.037,6.163,14.049,6.464,15zM21.28,7h3.359c-1.198,-2.069,-3.116,-3.671,-5.41,-4.46c0.541,0.75,1.022,1.634,1.431,2.641C20.896,5.759,21.103,6.37,21.28,7zM12.833,7h6.363c-0.679,-2.127,-1.771,-3.976,-3.192,-4.843C14.593,3.022,13.508,4.871,12.833,7zM7.337,7h3.402c0.462,-1.659,1.151,-3.223,2.062,-4.479C10.483,3.304,8.544,4.915,7.337,7z" fill="#000000"/>
  </g>
</svg>
