<?xml version="1.0" encoding="UTF-8"?>
<!DOCTYPE svg PUBLIC "-//W3C//DTD SVG 1.1//EN" "http://www.w3.org/Graphics/SVG/1.1/DTD/svg11.dtd">
<svg version="1.1" id="Layer_1" xmlns="http://www.w3.org/2000/svg" xmlns:xlink="http://www.w3.org/1999/xlink" x="0px" y="0px" width="32px" height="32px" viewBox="0 0 32 32" enable-background="new 0 0 32 32" xml:space="preserve">
  <g id="icon">
    <path d="M16,32C7.178,32,0,24.822,0,16C0,7.178,7.178,0,16,0c8.822,0,16,7.178,16,16C32,24.822,24.822,32,16,32zM10.822,22c0.96,3.542,2.741,6.703,5.152,7.918c2.448,-1.228,4.256,-4.386,5.234,-7.918H10.822zM23.271,22c-0.726,2.857,-1.962,5.581,-3.673,7.531c4,-1.064,7.301,-3.859,9.05,-7.531H23.271zM3.352,22c1.739,3.652,5.015,6.437,8.985,7.514c-0.983,-1.133,-1.839,-2.574,-2.54,-4.288c-0.415,-1.013,-0.765,-2.103,-1.042,-3.226H3.352zM23.693,20h5.725c0.379,-1.268,0.582,-2.611,0.582,-4s-0.203,-2.732,-0.582,-4h-5.762c0.246,1.373,0.377,2.753,0.377,4.07C24.033,17.334,23.919,18.665,23.693,20zM10.374,20h11.292c0.242,-1.325,0.368,-2.66,0.368,-3.93c0,-1.297,-0.143,-2.685,-0.415,-4.07h-11.19c-0.272,1.384,-0.415,2.772,-0.415,4.07C10.014,17.341,10.137,18.676,10.374,20zM2.582,20h5.763c-0.217,-1.319,-0.331,-2.65,-0.331,-3.93c0,-1.317,0.13,-2.697,0.377,-4.07H2.582C2.203,13.268,2,14.611,2,16S2.203,18.732,2.582,20zM23.214,10h5.435c-1.769,-3.715,-5.128,-6.532,-9.191,-7.568c1.222,1.381,2.092,3.019,2.678,4.399C22.562,7.834,22.924,8.903,23.214,10zM10.914,10h10.218c-0.994,-3.422,-2.767,-6.535,-5.109,-7.844C13.681,3.465,11.908,6.578,10.914,10zM3.352,10h5.481c0.29,-1.097,0.652,-2.166,1.078,-3.169c0.589,-1.385,1.463,-3.03,2.692,-4.414C8.513,3.44,5.13,6.267,3.352,10z" fill="#000000"/>
  </g>
</svg>
