<?xml version="1.0" encoding="UTF-8"?>
<!DOCTYPE svg PUBLIC "-//W3C//DTD SVG 1.1//EN" "http://www.w3.org/Graphics/SVG/1.1/DTD/svg11.dtd">
<svg version="1.1" id="Layer_1" xmlns="http://www.w3.org/2000/svg" xmlns:xlink="http://www.w3.org/1999/xlink" x="0px" y="0px" width="32px" height="32px" viewBox="0 0 32 32" enable-background="new 0 0 32 32" xml:space="preserve">
  <g id="icon">
    <path d="M23.489,12.125c-1.993,0,-3.615,-1.621,-3.615,-3.615c0,-1.993,1.621,-3.615,3.615,-3.615c1.993,0,3.615,1.621,3.615,3.615C27.104,10.504,25.483,12.125,23.489,12.125zM23.489,6.896c-0.89,0,-1.615,0.724,-1.615,1.615s0.724,1.615,1.615,1.615c0.89,0,1.615,-0.724,1.615,-1.615S24.38,6.896,23.489,6.896z" fill="#000000"/>
    <path d="M8.384,32H0v-6.188c0,-0.432,0.167,-0.84,0.47,-1.147l0.01,-0.01c0.077,-0.076,7.321,-7.226,10.4,-10.298c-0.385,-1.126,-0.58,-2.303,-0.58,-3.508C10.3,4.867,15.167,0,21.15,0S32,4.867,32,10.85S27.133,21.7,21.15,21.7c-1.322,0,-2.605,-0.233,-3.825,-0.693c-0.438,0.43,-0.803,0.808,-0.808,0.813l-0.03,0.029c-0.562,0.535,-1.389,0.594,-2.008,0.185l-0.35,0.36v3.223h-2.553v3.192H8.384V32zM2,30h4.384v-3.192h3.192v-3.192h2.553v-2.034l2.345,-2.413l0.9,0.96c0.259,-0.263,0.654,-0.657,1.042,-1.023l0.487,-0.46l0.611,0.276c1.145,0.517,2.369,0.779,3.637,0.779c4.88,0,8.85,-3.97,8.85,-8.85S26.03,2,21.15,2S12.3,5.97,12.3,10.85c0,1.169,0.225,2.305,0.668,3.377l0.255,0.617l-0.472,0.472C10.185,17.884,3,24.979,2,25.965V30z" fill="#000000"/>
  </g>
</svg>
