<?xml version="1.0" encoding="UTF-8"?>
<!DOCTYPE svg PUBLIC "-//W3C//DTD SVG 1.1//EN" "http://www.w3.org/Graphics/SVG/1.1/DTD/svg11.dtd">
<svg version="1.1" id="Layer_1" xmlns="http://www.w3.org/2000/svg" xmlns:xlink="http://www.w3.org/1999/xlink" x="0px" y="0px" width="32px" height="32px" viewBox="0 0 32 32" enable-background="new 0 0 32 32" xml:space="preserve">
  <g id="icon">
    <path d="M15.958,16.545L1.003,9.716l14.956,-6.899L31.01,9.716L15.958,16.545zM5.797,9.707l10.164,4.64l10.229,-4.64L15.961,5.018L5.797,9.707zM31.01,16.716L25.5,14.2l-2.4,1.1l3.09,1.407l-10.229,4.64l-10.164,-4.64L8.9,15.3l-2.4,-1.1l-5.497,2.516l14.956,6.829L31.01,16.716zM31.01,23.716L25.5,21.2l-2.4,1.1l3.09,1.407l-10.229,4.64l-10.164,-4.64L8.9,22.3l-2.4,-1.1l-5.497,2.516l14.956,6.829L31.01,23.716z" fill="#000000"/>
  </g>
</svg>
