<?xml version="1.0" encoding="UTF-8"?>
<!DOCTYPE svg PUBLIC "-//W3C//DTD SVG 1.1//EN" "http://www.w3.org/Graphics/SVG/1.1/DTD/svg11.dtd">
<svg version="1.1" id="Layer_1" xmlns="http://www.w3.org/2000/svg" xmlns:xlink="http://www.w3.org/1999/xlink" x="0px" y="0px" width="32px" height="32px" viewBox="0 0 32 32" enable-background="new 0 0 32 32" xml:space="preserve">
  <g id="icon">
    <path d="M16,32C7.178,32,0,24.822,0,16C0,7.178,7.178,0,16,0c8.822,0,16,7.178,16,16C32,24.822,24.822,32,16,32zM16,2C8.28,2,2,8.28,2,16s6.28,14,14,14s14,-6.28,14,-14S23.72,2,16,2zM14,23.967h-2V8h4c3.925,0,5.915,1.593,5.915,4.734c0,0.95,-0.288,1.873,-0.81,2.6c-0.306,0.425,-1.179,1.442,-2.19,2.047L22.5,22.816l-1.67,1.101L16.928,18H14V23.967zM14,16h2.877l0.654,-0.164c0.648,-0.207,1.596,-1.178,1.95,-1.67c0.276,-0.384,0.434,-0.906,0.434,-1.432c0,-1.022,0,-2.734,-3.915,-2.734h-2V16z" fill="#000000"/>
  </g>
</svg>
