<?xml version="1.0" encoding="UTF-8"?>
<!DOCTYPE svg PUBLIC "-//W3C//DTD SVG 1.1//EN" "http://www.w3.org/Graphics/SVG/1.1/DTD/svg11.dtd">
<svg version="1.1" id="Layer_1" xmlns="http://www.w3.org/2000/svg" xmlns:xlink="http://www.w3.org/1999/xlink" x="0px" y="0px" width="32px" height="32px" viewBox="0 0 32 32" enable-background="new 0 0 32 32" xml:space="preserve">
  <g id="icon">
    <path d="M16,32C7.178,32,0,24.822,0,16C0,7.178,7.178,0,16,0c8.822,0,16,7.178,16,16C32,24.822,24.822,32,16,32zM16,2C8.28,2,2,8.28,2,16s6.28,14,14,14s14,-6.28,14,-14S23.72,2,16,2z" fill="#000000"/>
    <path d="M16.313,23.588c-4.322,0,-7.582,-3.264,-7.582,-7.593c0,-1.9,0.72,-3.794,1.974,-5.196c1.418,-1.586,3.442,-2.459,5.701,-2.459c1.024,0,1.991,0.145,2.873,0.432l0.951,0.309l-0.617,1.902l-0.951,-0.309c-0.683,-0.222,-1.442,-0.334,-2.256,-0.334c-3.686,0,-5.675,2.914,-5.675,5.656c0,3.188,2.4,5.593,5.582,5.593c0.848,0,1.626,-0.113,2.379,-0.346l0.955,-0.296l0.592,1.91l-0.955,0.296C18.337,23.446,17.365,23.588,16.313,23.588z" fill="#000000"/>
  </g>
</svg>
