<?xml version="1.0" encoding="UTF-8"?>
<!DOCTYPE svg PUBLIC "-//W3C//DTD SVG 1.1//EN" "http://www.w3.org/Graphics/SVG/1.1/DTD/svg11.dtd">
<svg version="1.1" id="Layer_1" xmlns="http://www.w3.org/2000/svg" xmlns:xlink="http://www.w3.org/1999/xlink" x="0px" y="0px" width="32px" height="32px" viewBox="0 0 32 32" enable-background="new 0 0 32 32" xml:space="preserve">
  <g id="icon">
    <path d="M16,32C7.178,32,0,24.822,0,16C0,7.178,7.178,0,16,0c8.822,0,16,7.178,16,16C32,24.822,24.822,32,16,32zM16,2C8.28,2,2,8.28,2,16s6.28,14,14,14s14,-6.28,14,-14S23.72,2,16,2z" fill="#000000"/>
    <path d="M22.52,22.755c-3.687,0,-6.467,-2.875,-6.467,-6.688c0,-1.665,0.609,-3.327,1.67,-4.56c1.211,-1.407,2.942,-2.181,4.874,-2.181c0.872,0,1.697,0.129,2.45,0.383l0.948,0.319l-0.639,1.895l-0.948,-0.319c-0.547,-0.184,-1.156,-0.278,-1.811,-0.278c-2.952,0,-4.545,2.443,-4.545,4.742c0,2.716,1.879,4.688,4.467,4.688c0.684,0,1.31,-0.095,1.916,-0.29l0.952,-0.306l0.613,1.904l-0.952,0.306C24.242,22.629,23.415,22.755,22.52,22.755zM11.697,22.755c-3.687,0,-6.467,-2.875,-6.467,-6.688c0,-1.665,0.609,-3.327,1.67,-4.56C8.111,10.1,9.842,9.325,11.775,9.325c0.872,0,1.697,0.129,2.45,0.383l0.948,0.319l-0.639,1.895l-0.948,-0.319c-0.547,-0.184,-1.156,-0.278,-1.811,-0.278c-2.952,0,-4.545,2.443,-4.545,4.742c0,2.716,1.879,4.688,4.467,4.688c0.684,0,1.31,-0.095,1.916,-0.29l0.952,-0.306l0.613,1.904l-0.952,0.306C13.419,22.629,12.592,22.755,11.697,22.755z" fill="#000000"/>
  </g>
</svg>
