<?xml version="1.0" encoding="UTF-8"?>
<!DOCTYPE svg PUBLIC "-//W3C//DTD SVG 1.1//EN" "http://www.w3.org/Graphics/SVG/1.1/DTD/svg11.dtd">
<svg version="1.1" id="Layer_1" xmlns="http://www.w3.org/2000/svg" xmlns:xlink="http://www.w3.org/1999/xlink" x="0px" y="0px" width="32px" height="32px" viewBox="0 0 32 32" enable-background="new 0 0 32 32" xml:space="preserve">
  <g id="icon">
    <path d="M16,32.03c-0.79,0,-1.58,-0.299,-2.182,-0.898L11,28.426v-4.86c-0.956,-0.559,-1.6,-1.604,-1.6,-2.797v-0.729c0,-1.037,-0.549,-2.655,-1.175,-3.462c-0.09,-0.116,-2.229,-2.901,-2.229,-6.184c0,-5.744,4.503,-10.417,10.039,-10.417c5.536,0,10.039,4.673,10.039,10.417c0,3.373,-2.284,6.241,-2.381,6.361c-0.635,0.788,-1.192,2.385,-1.192,3.418v0.596c0,1.15,-0.599,2.162,-1.5,2.735V29h-0.598l-2.22,2.132C17.58,31.73,16.79,32.03,16,32.03zM14.485,29l0.739,0.71c0.428,0.428,1.124,0.428,1.552,0l0.014,-0.014l0.724,-0.695H14.485zM13,27h6v-3h-6V27zM19,22h0.296c0.675,0,1.204,-0.541,1.204,-1.231v-0.596c0,-1.483,0.719,-3.536,1.636,-4.674c0.019,-0.023,1.938,-2.45,1.938,-5.106c0,-4.641,-3.606,-8.417,-8.039,-8.417c-4.433,0,-8.039,3.776,-8.039,8.417c0,2.604,1.79,4.933,1.808,4.956c0.895,1.154,1.596,3.214,1.596,4.69v0.729c0,0.69,0.528,1.231,1.202,1.231H19z" fill="#000000"/>
  </g>
</svg>
