<?xml version="1.0" encoding="UTF-8"?>
<!DOCTYPE svg PUBLIC "-//W3C//DTD SVG 1.1//EN" "http://www.w3.org/Graphics/SVG/1.1/DTD/svg11.dtd">
<svg version="1.1" id="Layer_1" xmlns="http://www.w3.org/2000/svg" xmlns:xlink="http://www.w3.org/1999/xlink" x="0px" y="0px" width="32px" height="32px" viewBox="0 0 32 32" enable-background="new 0 0 32 32" xml:space="preserve">
  <g id="icon">
    <path d="M8.63,30.011c-1.382,0,-2.764,-0.526,-3.816,-1.578l-1.24,-1.24C2.559,26.178,2,24.822,2,23.378c0,-1.445,0.559,-2.8,1.575,-3.816l4.885,-4.885l1.414,1.414l-4.885,4.885c-0.638,0.638,-0.989,1.491,-0.989,2.401c0,0.911,0.351,1.763,0.989,2.401l1.24,1.24c1.324,1.324,3.479,1.324,4.803,0l6.735,-6.735c1.324,-1.324,1.324,-3.479,0,-4.803L15.886,13.6L17.3,12.185l1.881,1.881c2.104,2.104,2.104,5.527,0,7.631l-6.735,6.735C11.394,29.485,10.012,30.011,8.63,30.011zM14.683,19.847l-1.881,-1.881c-2.104,-2.104,-2.104,-5.527,0,-7.631l6.76,-6.76C20.578,2.559,21.933,2,23.378,2c1.445,0,2.8,0.559,3.816,1.575l1.24,1.24c2.104,2.104,2.104,5.527,0,7.631l-4.91,4.91l-1.414,-1.414l4.91,-4.91c1.324,-1.324,1.324,-3.479,0,-4.803l-1.24,-1.24c-0.638,-0.638,-1.491,-0.989,-2.401,-0.989c-0.911,0,-1.763,0.351,-2.401,0.989l-6.76,6.76c-1.324,1.324,-1.324,3.479,0,4.803l1.881,1.881L14.683,19.847z" fill="#000000"/>
  </g>
</svg>
