<?xml version="1.0" encoding="UTF-8"?>
<!DOCTYPE svg PUBLIC "-//W3C//DTD SVG 1.1//EN" "http://www.w3.org/Graphics/SVG/1.1/DTD/svg11.dtd">
<svg version="1.1" id="Layer_1" xmlns="http://www.w3.org/2000/svg" xmlns:xlink="http://www.w3.org/1999/xlink" x="0px" y="0px" width="32px" height="32px" viewBox="0 0 32 32" enable-background="new 0 0 32 32" xml:space="preserve">
  <g id="icon">
    <path d="M22.51,18.405l-1.414,-1.414l5.936,-5.936c0.642,-0.642,0.996,-1.501,0.996,-2.418s-0.354,-1.776,-0.996,-2.418L25.81,4.996c-0.642,-0.643,-1.501,-0.996,-2.418,-0.996c-0.917,0,-1.776,0.354,-2.418,0.996l-5.883,5.883l-1.414,-1.414l5.883,-5.883C20.58,2.562,21.941,2,23.392,2c1.451,0,2.812,0.562,3.832,1.582l1.222,1.222c1.02,1.02,1.582,2.381,1.582,3.832s-0.562,2.812,-1.582,3.832L22.51,18.405z" fill="#000000"/>
    <path d="M8.637,30.003c-1.388,0,-2.776,-0.528,-3.833,-1.585l-1.222,-1.222C2.562,26.176,2,24.815,2,23.364c0,-1.451,0.562,-2.812,1.582,-3.832L9.4,13.742l1.411,1.418l-5.816,5.788c-0.641,0.641,-0.995,1.5,-0.995,2.417c0,0.917,0.354,1.776,0.996,2.418l1.222,1.222c1.333,1.333,3.503,1.333,4.836,0l5.809,-5.78l1.411,1.418l-5.807,5.779C11.411,29.475,10.024,30.003,8.637,30.003z" fill="#000000"/>
    <path d="M22,30h-2v-5h2V30zM27.024,28.414l-3.627,-3.628l1.414,-1.414L28.438,27L27.024,28.414zM30,22h-5v-2h5V22z" fill="#000000"/>
    <path d="M7,12H2v-2h5V12zM7.189,8.627L3.562,5l1.414,-1.414l3.627,3.628L7.189,8.627zM12,7h-2V2h2V7z" fill="#000000"/>
  </g>
</svg>
