<?xml version="1.0" encoding="UTF-8"?>
<!DOCTYPE svg PUBLIC "-//W3C//DTD SVG 1.1//EN" "http://www.w3.org/Graphics/SVG/1.1/DTD/svg11.dtd">
<svg version="1.1" id="Layer_1" xmlns="http://www.w3.org/2000/svg" xmlns:xlink="http://www.w3.org/1999/xlink" x="0px" y="0px" width="32px" height="32px" viewBox="0 0 32 32" enable-background="new 0 0 32 32" xml:space="preserve">
  <g id="icon">
    <circle cx="15.986" cy="10.009" r="4.097" fill="#000000"/>
    <path d="M31.618,32H0.382l6,-12H9v2H7.618l-4,8h24.764l-4,-8H23v-2h2.618L31.618,32zM15.984,26.648l-0.792,-1.034c-0.235,-0.307,-5.772,-7.536,-7.396,-9.841c-1.193,-1.693,-1.824,-3.686,-1.824,-5.764c0,-5.522,4.492,-10.014,10.014,-10.014C21.508,-0.005,26,4.487,26,10.009c0,2.054,-0.618,4.028,-1.786,5.709c-1.623,2.335,-7.199,9.589,-7.436,9.897L15.984,26.648zM15.986,1.995c-4.419,0,-8.014,3.595,-8.014,8.014c0,1.663,0.504,3.258,1.459,4.612c1.239,1.758,4.925,6.602,6.557,8.74c1.64,-2.142,5.35,-7.007,6.585,-8.784c0.934,-1.344,1.428,-2.924,1.428,-4.568C24,5.59,20.405,1.995,15.986,1.995z" fill="#000000"/>
  </g>
</svg>
