<?xml version="1.0" encoding="UTF-8"?>
<!DOCTYPE svg PUBLIC "-//W3C//DTD SVG 1.1//EN" "http://www.w3.org/Graphics/SVG/1.1/DTD/svg11.dtd">
<svg version="1.1" id="Layer_1" xmlns="http://www.w3.org/2000/svg" xmlns:xlink="http://www.w3.org/1999/xlink" x="0px" y="0px" width="32px" height="32px" viewBox="0 0 32 32" enable-background="new 0 0 32 32" xml:space="preserve">
  <g id="icon">
    <circle cx="16" cy="12" r="5" fill="#000000"/>
    <path d="M15.999,31.942l-0.792,-1.034c-0.287,-0.374,-7.041,-9.193,-9.02,-12.001C4.756,16.878,4,14.49,4,12C4,5.383,9.383,0,16,0c6.617,0,12,5.383,12,12c0,2.461,-0.74,4.827,-2.14,6.841c-1.978,2.845,-8.779,11.693,-9.067,12.068L15.999,31.942zM16,2C10.486,2,6,6.486,6,12c0,2.075,0.63,4.065,1.821,5.754c1.56,2.213,6.29,8.425,8.181,10.901c1.9,-2.48,6.661,-8.717,8.217,-10.955c1.166,-1.677,1.782,-3.648,1.782,-5.7C26,6.486,21.514,2,16,2z" fill="#000000"/>
  </g>
</svg>
