<?xml version="1.0" encoding="UTF-8"?>
<!DOCTYPE svg PUBLIC "-//W3C//DTD SVG 1.1//EN" "http://www.w3.org/Graphics/SVG/1.1/DTD/svg11.dtd">
<svg version="1.1" id="Layer_1" xmlns="http://www.w3.org/2000/svg" xmlns:xlink="http://www.w3.org/1999/xlink" x="0px" y="0px" width="32px" height="32px" viewBox="0 0 32 32" enable-background="new 0 0 32 32" xml:space="preserve">
  <g id="icon">
    <path d="M1.407,32.008l-1.414,-1.414l18.32,-18.32l-5.54,-1.584L18.2,6.678l-0.24,-6.731l5.503,3.908l6.344,-2.303l-2.022,6.424l4.164,5.311l-6.757,0.063l-3.771,5.58l-1.748,-5.187L1.407,32.008zM17.228,9.884l3.602,1.03l1.196,3.549l1.949,-2.885l0.441,-0.221l3.452,-0.032l-2.308,-2.944l1.123,-3.567l-3.079,1.118l-0.512,0.128l-0.371,-0.278l-2.618,-1.859l0.133,3.738L17.228,9.884z" fill="#010101"/>
  </g>
</svg>
