<?xml version="1.0" encoding="UTF-8"?>
<!DOCTYPE svg PUBLIC "-//W3C//DTD SVG 1.1//EN" "http://www.w3.org/Graphics/SVG/1.1/DTD/svg11.dtd">
<svg version="1.1" id="Layer_1" xmlns="http://www.w3.org/2000/svg" xmlns:xlink="http://www.w3.org/1999/xlink" x="0px" y="0px" width="32px" height="32px" viewBox="0 0 32 32" enable-background="new 0 0 32 32" xml:space="preserve">
  <g id="icon">
    <path d="M16,23.7c-1.175,0,-2.271,-0.341,-3.197,-0.926l1.467,-1.467c0.524,0.252,1.11,0.394,1.729,0.394c2.206,0,4,-1.794,4,-4v-2.123l2,-2V17.7C22,21.008,19.308,23.7,16,23.7zM12,16.223V6c0,-2.206,1.794,-4,4,-4s4,1.794,4,4v2.223l2,-2V6c0,-3.308,-2.692,-6,-6,-6s-6,2.692,-6,6v11.7c0,0.169,0.009,0.335,0.022,0.501L12,16.223zM16.364,26h-0.61c-1.711,-0.062,-3.29,-0.643,-4.589,-1.589L9.737,25.84c1.486,1.153,3.294,1.91,5.263,2.111V30h-3v2h8v-2h-3v-2.036c2.401,-0.216,4.62,-1.259,6.327,-2.992c1.917,-1.946,2.973,-4.54,2.973,-7.305h-2C24.3,22.162,20.767,25.838,16.364,26zM8.094,20.129c-0.241,-0.779,-0.372,-1.605,-0.372,-2.462h-2c0,1.425,0.29,2.784,0.814,4.02L8.094,20.129zM3.657,29.657l-1.414,-1.414l26.05,-26.05l1.414,1.414L3.657,29.657z" fill="#000000"/>
  </g>
</svg>
