<?xml version="1.0" encoding="UTF-8"?>
<!DOCTYPE svg PUBLIC "-//W3C//DTD SVG 1.1//EN" "http://www.w3.org/Graphics/SVG/1.1/DTD/svg11.dtd">
<svg version="1.1" id="Layer_1" xmlns="http://www.w3.org/2000/svg" xmlns:xlink="http://www.w3.org/1999/xlink" x="0px" y="0px" width="32px" height="32px" viewBox="0 0 32 32" enable-background="new 0 0 32 32" xml:space="preserve">
  <g id="icon">
    <path d="M16,23.7c-3.308,0,-6,-2.692,-6,-6V6c0,-3.308,2.692,-6,6,-6s6,2.692,6,6v11.7C22,21.008,19.308,23.7,16,23.7zM16,2c-2.206,0,-4,1.794,-4,4v11.7c0,2.206,1.794,4,4,4s4,-1.794,4,-4V6C20,3.794,18.206,2,16,2z" fill="#000000"/>
    <path d="M16.061,28.006c-5.701,0,-10.339,-4.638,-10.339,-10.339h2c0,4.598,3.741,8.339,8.339,8.339c4.543,0,8.239,-3.741,8.239,-8.339h2c0,2.765,-1.056,5.359,-2.973,7.305C21.4,26.928,18.819,28.006,16.061,28.006z" fill="#000000"/>
    <rect x="15" y="26" width="2" height="5" fill="#000000"/>
    <rect x="12" y="30" width="8" height="2" fill="#000000"/>
  </g>
</svg>
