<?xml version="1.0" encoding="UTF-8"?>
<!DOCTYPE svg PUBLIC "-//W3C//DTD SVG 1.1//EN" "http://www.w3.org/Graphics/SVG/1.1/DTD/svg11.dtd">
<svg version="1.1" id="Layer_1" xmlns="http://www.w3.org/2000/svg" xmlns:xlink="http://www.w3.org/1999/xlink" x="0px" y="0px" width="32px" height="32px" viewBox="0 0 32 32" enable-background="new 0 0 32 32" xml:space="preserve">
  <g id="icon">
    <path d="M16,31.992c-4.097,0,-8.194,-1.56,-11.314,-4.679c-6.238,-6.238,-6.238,-16.389,0,-22.627c6.238,-6.238,16.389,-6.238,22.627,0v0c6.238,6.238,6.238,16.389,0,22.627C24.195,30.433,20.097,31.992,16,31.992zM16,2.007c-3.585,0,-7.17,1.365,-9.899,4.094c-5.459,5.459,-5.459,14.34,0,19.799c5.459,5.459,14.341,5.459,19.799,0c5.459,-5.459,5.459,-14.34,0,-19.799C23.17,3.371,19.585,2.007,16,2.007z" fill="#000000"/>
    <path d="M16.395,25c-0.975,0,-1.885,-0.168,-2.705,-0.501c-0.835,-0.338,-1.572,-0.843,-2.191,-1.502c-0.608,-0.646,-1.101,-1.451,-1.466,-2.393c-0.2,-0.516,-0.368,-1.019,-0.494,-1.605H6.614v-2h2.669l-0.028,-0.306l0.033,-0.003c-0.005,-0.224,-0.008,-0.446,-0.008,-0.625c0,-0.235,0.004,-0.466,0.013,-0.688l0.005,-0.145l-0.041,-0.004l0.023,-0.226H7.205v-2H9.55c0.127,-0.587,0.303,-1.145,0.534,-1.702c0.378,-0.909,0.876,-1.69,1.482,-2.321c0.619,-0.645,1.354,-1.139,2.185,-1.468c0.815,-0.323,1.72,-0.487,2.692,-0.487c0.584,0,1.123,0.051,1.602,0.153c0.471,0.1,0.895,0.228,1.262,0.38c0.373,0.155,0.703,0.33,0.981,0.519c0.256,0.175,0.468,0.336,0.648,0.491c0.167,0.145,0.3,0.265,0.405,0.368l0.714,0.7l-1.4,1.428l-0.714,-0.7c-0.074,-0.073,-0.179,-0.168,-0.312,-0.283c-0.12,-0.104,-0.278,-0.223,-0.469,-0.353c-0.164,-0.112,-0.373,-0.221,-0.62,-0.324c-0.253,-0.105,-0.559,-0.196,-0.91,-0.27c-0.343,-0.073,-0.743,-0.109,-1.188,-0.109c-0.718,0,-1.376,0.116,-1.955,0.346c-0.57,0.226,-1.054,0.551,-1.479,0.994c-0.433,0.451,-0.796,1.024,-1.078,1.704c-0.13,0.312,-0.236,0.619,-0.323,0.934h7.055v2h-7.356c-0.004,0.097,-0.007,0.195,-0.01,0.276l-0.006,0.175c-0.008,0.197,-0.011,0.403,-0.011,0.612c0,0.264,0.006,0.632,0.018,0.934h6.922v2h-6.621c0.084,0.302,0.184,0.586,0.299,0.883c0.271,0.7,0.627,1.288,1.058,1.746c0.426,0.453,0.911,0.786,1.485,1.018c0.581,0.235,1.238,0.354,1.954,0.354c0.478,0,0.901,-0.043,1.255,-0.127c0.364,-0.086,0.684,-0.194,0.953,-0.32c0.263,-0.123,0.485,-0.255,0.661,-0.392c0.21,-0.163,0.388,-0.313,0.529,-0.446c0.15,-0.14,0.268,-0.257,0.353,-0.346l0.687,-0.726l1.452,1.375l-0.688,0.726c-0.112,0.118,-0.258,0.262,-0.436,0.429c-0.186,0.175,-0.412,0.366,-0.671,0.567c-0.292,0.227,-0.642,0.437,-1.038,0.623c-0.393,0.184,-0.844,0.338,-1.341,0.455C17.607,24.939,17.029,25,16.395,25z" fill="#000000"/>
  </g>
</svg>
