<?xml version="1.0" encoding="UTF-8"?>
<!DOCTYPE svg PUBLIC "-//W3C//DTD SVG 1.1//EN" "http://www.w3.org/Graphics/SVG/1.1/DTD/svg11.dtd">
<svg version="1.1" id="Layer_1" xmlns="http://www.w3.org/2000/svg" xmlns:xlink="http://www.w3.org/1999/xlink" x="0px" y="0px" width="32px" height="32px" viewBox="0 0 32 32" enable-background="new 0 0 32 32" xml:space="preserve">
  <g id="icon">
    <path d="M16,31.992c-4.097,0,-8.194,-1.56,-11.314,-4.679c-6.238,-6.238,-6.238,-16.389,0,-22.627c6.238,-6.238,16.389,-6.238,22.627,0v0c6.238,6.238,6.238,16.389,0,22.627C24.195,30.433,20.097,31.992,16,31.992zM16,2.007c-3.585,0,-7.17,1.365,-9.899,4.094c-5.459,5.459,-5.459,14.34,0,19.799c5.459,5.459,14.341,5.459,19.799,0c5.459,-5.459,5.459,-14.34,0,-19.799C23.17,3.371,19.585,2.007,16,2.007zM17,27h-2v-1.773c-0.413,-0.014,-0.802,-0.054,-1.161,-0.118c-0.554,-0.1,-1.073,-0.249,-1.543,-0.445c-0.479,-0.199,-0.93,-0.454,-1.34,-0.757c-0.383,-0.282,-0.76,-0.605,-1.117,-0.958l1.405,-1.423c0.289,0.286,0.592,0.545,0.899,0.772c0.281,0.208,0.591,0.382,0.921,0.52c0.337,0.14,0.717,0.249,1.129,0.323c0.246,0.044,0.516,0.073,0.806,0.085v-7.224c-0.428,-0.121,-0.846,-0.251,-1.249,-0.387c-0.597,-0.201,-1.14,-0.465,-1.613,-0.785c-0.516,-0.349,-0.942,-0.789,-1.264,-1.309c-0.341,-0.549,-0.528,-1.214,-0.556,-1.976c-0.023,-0.622,0.081,-1.233,0.308,-1.817c0.231,-0.592,0.59,-1.124,1.067,-1.581c0.462,-0.443,1.035,-0.805,1.701,-1.077c0.482,-0.197,1.021,-0.334,1.606,-0.41V5h2v1.647c0.367,0.042,0.701,0.111,1.008,0.207c0.548,0.171,0.996,0.361,1.371,0.581c0.371,0.217,0.656,0.419,0.872,0.617c0.114,0.104,0.273,0.236,0.325,0.278L19.32,9.885c-0.01,-0.008,-0.237,-0.192,-0.42,-0.359c-0.075,-0.069,-0.228,-0.188,-0.532,-0.366c-0.239,-0.14,-0.561,-0.274,-0.957,-0.398c-0.124,-0.039,-0.261,-0.071,-0.411,-0.096v5.804c0.361,0.099,0.719,0.201,1.07,0.304c0.682,0.201,1.309,0.469,1.863,0.799c0.605,0.36,1.109,0.826,1.497,1.385c0.417,0.601,0.645,1.352,0.677,2.233c0.029,0.789,-0.089,1.546,-0.352,2.248c-0.266,0.711,-0.675,1.349,-1.216,1.896c-0.533,0.541,-1.194,0.982,-1.965,1.311c-0.482,0.206,-1.009,0.359,-1.574,0.457V27zM17,16.547v6.516c0.281,-0.066,0.545,-0.152,0.789,-0.256c0.53,-0.226,0.976,-0.521,1.326,-0.876c0.347,-0.351,0.597,-0.742,0.767,-1.194c0.17,-0.453,0.246,-0.948,0.227,-1.472c-0.018,-0.493,-0.126,-0.886,-0.322,-1.167c-0.227,-0.327,-0.514,-0.591,-0.876,-0.807c-0.41,-0.244,-0.883,-0.445,-1.405,-0.599C17.339,16.644,17.17,16.595,17,16.547zM15,8.685c-0.312,0.055,-0.596,0.135,-0.851,0.239c-0.432,0.176,-0.793,0.402,-1.073,0.67c-0.269,0.258,-0.461,0.54,-0.587,0.863c-0.129,0.332,-0.186,0.664,-0.173,1.016c0.015,0.41,0.102,0.745,0.257,0.994c0.176,0.283,0.4,0.514,0.685,0.707c0.324,0.219,0.704,0.403,1.131,0.546c0.2,0.067,0.403,0.133,0.611,0.197V8.685z" fill="#000000"/>
  </g>
</svg>
