<?xml version="1.0" encoding="UTF-8"?>
<!DOCTYPE svg PUBLIC "-//W3C//DTD SVG 1.1//EN" "http://www.w3.org/Graphics/SVG/1.1/DTD/svg11.dtd">
<svg version="1.1" id="Layer_1" xmlns="http://www.w3.org/2000/svg" xmlns:xlink="http://www.w3.org/1999/xlink" x="0px" y="0px" width="32px" height="32px" viewBox="0 0 32 32" enable-background="new 0 0 32 32" xml:space="preserve">
  <g id="icon">
    <path d="M16,30h-2v-2.262l-0.065,0.004l-0.002,-0.04c-0.625,-0.008,-1.206,-0.06,-1.736,-0.155c-0.699,-0.126,-1.353,-0.314,-1.944,-0.56c-0.6,-0.25,-1.166,-0.568,-1.679,-0.948c-0.487,-0.359,-0.965,-0.769,-1.42,-1.218l-0.712,-0.703l1.405,-1.423l0.712,0.703c0.386,0.381,0.79,0.728,1.202,1.031c0.385,0.284,0.809,0.523,1.26,0.711c0.458,0.191,0.973,0.338,1.531,0.438c0.433,0.078,0.919,0.12,1.449,0.125v-9.908l-0.338,-0.088l0.003,-0.012c-0.528,-0.151,-1.045,-0.312,-1.541,-0.479c-0.751,-0.253,-1.432,-0.584,-2.025,-0.985c-0.636,-0.43,-1.16,-0.972,-1.557,-1.611c-0.415,-0.669,-0.644,-1.483,-0.678,-2.421c-0.029,-0.767,0.099,-1.521,0.38,-2.241c0.284,-0.728,0.727,-1.384,1.315,-1.947c0.574,-0.549,1.286,-1,2.117,-1.339c0.659,-0.269,1.404,-0.449,2.22,-0.537l0,-0.052l0.103,-0.001V2h2v2.116c0.546,0.049,1.033,0.142,1.473,0.279c0.68,0.213,1.259,0.458,1.72,0.728c0.464,0.272,0.818,0.522,1.083,0.765c0.217,0.199,0.478,0.45,0.489,0.461l0.721,0.693l-1.387,1.441l-0.721,-0.693c-0.003,-0.002,-0.256,-0.246,-0.455,-0.428c-0.108,-0.099,-0.325,-0.269,-0.742,-0.513c-0.331,-0.194,-0.77,-0.377,-1.306,-0.544c-0.255,-0.08,-0.548,-0.139,-0.876,-0.177v8.126c0.526,0.143,1.047,0.291,1.558,0.441c0.863,0.254,1.655,0.593,2.353,1.009c0.75,0.446,1.373,1.023,1.853,1.714c0.508,0.733,0.787,1.656,0.827,2.743c0.037,0.986,-0.111,1.93,-0.439,2.805c-0.331,0.884,-0.841,1.678,-1.513,2.36c-0.666,0.675,-1.493,1.226,-2.458,1.639c-0.663,0.283,-1.393,0.486,-2.181,0.607V30zM16,16.329v9.214c0.504,-0.097,0.971,-0.236,1.395,-0.417c0.725,-0.31,1.338,-0.715,1.82,-1.204c0.481,-0.487,0.829,-1.029,1.064,-1.657c0.235,-0.626,0.34,-1.309,0.313,-2.03c-0.026,-0.699,-0.185,-1.264,-0.471,-1.677c-0.32,-0.461,-0.723,-0.832,-1.232,-1.135c-0.555,-0.33,-1.192,-0.602,-1.895,-0.809C16.667,16.517,16.335,16.422,16,16.329zM14,6.136c-0.585,0.071,-1.11,0.201,-1.568,0.388c-0.597,0.243,-1.098,0.557,-1.489,0.932c-0.382,0.366,-0.655,0.768,-0.835,1.229c-0.183,0.47,-0.264,0.942,-0.245,1.44c0.022,0.586,0.149,1.071,0.378,1.44c0.251,0.404,0.571,0.734,0.978,1.01c0.443,0.3,0.962,0.551,1.543,0.746c0.4,0.135,0.814,0.265,1.238,0.389V6.136z" fill="#000000"/>
  </g>
</svg>
