<?xml version="1.0" encoding="UTF-8"?>
<!DOCTYPE svg PUBLIC "-//W3C//DTD SVG 1.1//EN" "http://www.w3.org/Graphics/SVG/1.1/DTD/svg11.dtd">
<svg version="1.1" id="Layer_1" xmlns="http://www.w3.org/2000/svg" xmlns:xlink="http://www.w3.org/1999/xlink" x="0px" y="0px" width="32px" height="32px" viewBox="0 0 32 32" enable-background="new 0 0 32 32" xml:space="preserve">
  <g id="icon">
    <path d="M32,26H0V6h32V26zM2,24h28V8H2V24zM16,22c-3.308,0,-6,-2.692,-6,-6s2.692,-6,6,-6s6,2.692,6,6S19.308,22,16,22zM16,12c-2.206,0,-4,1.794,-4,4s1.794,4,4,4s4,-1.794,4,-4S18.206,12,16,12z" fill="#000000"/>
    <path d="M1,11.976V7h5l0,0.714C6,10.081,4.081,12,1.714,12L1,11.976zM31,11.976V7h-5l0,0.714c0,2.367,1.919,4.286,4.286,4.286L31,11.976zM26.024,25H31v-5l-0.714,0c-2.367,0,-4.286,1.919,-4.286,4.286L26.024,25zM1,20.024V25h5l0,-0.714C6,21.919,4.081,20,1.714,20L1,20.024zM5.5,14.5c-0.828,0,-1.5,0.672,-1.5,1.5s0.672,1.5,1.5,1.5s1.5,-0.672,1.5,-1.5S6.328,14.5,5.5,14.5zM26.5,14.5c-0.828,0,-1.5,0.672,-1.5,1.5s0.672,1.5,1.5,1.5s1.5,-0.672,1.5,-1.5S27.328,14.5,26.5,14.5z" fill="#000000"/>
  </g>
</svg>
