<?xml version="1.0" encoding="UTF-8"?>
<!DOCTYPE svg PUBLIC "-//W3C//DTD SVG 1.1//EN" "http://www.w3.org/Graphics/SVG/1.1/DTD/svg11.dtd">
<svg version="1.1" id="Layer_1" xmlns="http://www.w3.org/2000/svg" xmlns:xlink="http://www.w3.org/1999/xlink" x="0px" y="0px" width="32px" height="32px" viewBox="0 0 32 32" enable-background="new 0 0 32 32" xml:space="preserve">
  <g id="icon">
    <path d="M15,28c-1.654,0,-3,-1.346,-3,-3s1.346,-3,3,-3s3,1.346,3,3S16.654,28,15,28zM15,24c-0.551,0,-1,0.449,-1,1s0.449,1,1,1s1,-0.449,1,-1S15.551,24,15,24zM15,19c-1.654,0,-3,-1.346,-3,-3s1.346,-3,3,-3s3,1.346,3,3S16.654,19,15,19zM15,15c-0.551,0,-1,0.449,-1,1s0.449,1,1,1s1,-0.449,1,-1S15.551,15,15,15zM15,10c-1.654,0,-3,-1.346,-3,-3s1.346,-3,3,-3s3,1.346,3,3S16.654,10,15,10zM15,6c-0.551,0,-1,0.449,-1,1s0.449,1,1,1s1,-0.449,1,-1S15.551,6,15,6z" fill="#000000"/>
  </g>
</svg>
