<?xml version="1.0" encoding="UTF-8"?>
<!DOCTYPE svg PUBLIC "-//W3C//DTD SVG 1.1//EN" "http://www.w3.org/Graphics/SVG/1.1/DTD/svg11.dtd">
<svg version="1.1" id="Layer_1" xmlns="http://www.w3.org/2000/svg" xmlns:xlink="http://www.w3.org/1999/xlink" x="0px" y="0px" width="32px" height="32px" viewBox="0 0 32 32" enable-background="new 0 0 32 32" xml:space="preserve">
  <g id="icon">
    <path d="M25,18c-1.654,0,-3,-1.346,-3,-3s1.346,-3,3,-3s3,1.346,3,3S26.654,18,25,18zM25,14c-0.551,0,-1,0.449,-1,1s0.449,1,1,1s1,-0.449,1,-1S25.551,14,25,14zM16,18c-1.654,0,-3,-1.346,-3,-3s1.346,-3,3,-3s3,1.346,3,3S17.654,18,16,18zM16,14c-0.551,0,-1,0.449,-1,1s0.449,1,1,1s1,-0.449,1,-1S16.551,14,16,14zM7,18c-1.654,0,-3,-1.346,-3,-3s1.346,-3,3,-3s3,1.346,3,3S8.654,18,7,18zM7,14c-0.551,0,-1,0.449,-1,1s0.449,1,1,1s1,-0.449,1,-1S7.551,14,7,14z" fill="#000000"/>
  </g>
</svg>
