<?xml version="1.0" encoding="UTF-8"?>
<!DOCTYPE svg PUBLIC "-//W3C//DTD SVG 1.1//EN" "http://www.w3.org/Graphics/SVG/1.1/DTD/svg11.dtd">
<svg version="1.1" id="Layer_1" xmlns="http://www.w3.org/2000/svg" xmlns:xlink="http://www.w3.org/1999/xlink" x="0px" y="0px" width="32px" height="32px" viewBox="0 0 32 32" enable-background="new 0 0 32 32" xml:space="preserve">
  <g id="icon">
    <path d="M6.53,30.02c-1.564,0,-2.952,-0.617,-3.701,-1.794c-0.515,-0.808,-0.659,-1.805,-0.405,-2.806c0.358,-1.416,1.442,-2.716,2.973,-3.568c2.685,-1.494,5.783,-1.105,7.051,0.886v0c0.515,0.808,0.659,1.805,0.405,2.806c-0.358,1.416,-1.442,2.716,-2.973,3.568C8.781,29.724,7.613,30.02,6.53,30.02zM8.762,22.948c-0.756,0,-1.607,0.215,-2.393,0.652c-1.036,0.576,-1.786,1.44,-2.007,2.311c-0.12,0.475,-0.069,0.892,0.153,1.241c0.677,1.063,2.688,1.161,4.391,0.213c1.036,-0.576,1.786,-1.44,2.007,-2.311c0.12,-0.475,0.069,-0.892,-0.153,-1.241l0,0C10.396,23.24,9.644,22.948,8.762,22.948z" fill="#000000"/>
    <path d="M23.554,28.401c-1.564,0,-2.952,-0.617,-3.701,-1.794c-0.515,-0.808,-0.659,-1.805,-0.405,-2.806c0.358,-1.416,1.442,-2.716,2.973,-3.568c2.686,-1.494,5.783,-1.105,7.051,0.887l0,0c0.515,0.808,0.659,1.805,0.405,2.806c-0.358,1.416,-1.442,2.716,-2.973,3.568C25.805,28.105,24.637,28.401,23.554,28.401zM25.786,21.329c-0.756,0,-1.607,0.215,-2.393,0.652c-1.036,0.576,-1.786,1.44,-2.007,2.311c-0.12,0.475,-0.069,0.892,0.153,1.241c0.677,1.063,2.688,1.161,4.392,0.213c1.036,-0.576,1.786,-1.44,2.007,-2.311c0.12,-0.475,0.069,-0.892,-0.153,-1.241C27.42,21.621,26.668,21.329,25.786,21.329z" fill="#000000"/>
    <polygon points="13,24.5 11,24.5 11,5.269 30,2.016 30,22.4 28,22.4 28,4.387 13,6.956" fill="#000000" stroke-linejoin="miter"/>
    <rect x="11.842" y="8.178" width="17.272" height="2" fill="#000000"/>
  </g>
</svg>
