<?xml version="1.0" encoding="UTF-8"?>
<!DOCTYPE svg PUBLIC "-//W3C//DTD SVG 1.1//EN" "http://www.w3.org/Graphics/SVG/1.1/DTD/svg11.dtd">
<svg version="1.1" id="Layer_1" xmlns="http://www.w3.org/2000/svg" xmlns:xlink="http://www.w3.org/1999/xlink" x="0px" y="0px" width="32px" height="32px" viewBox="0 0 32 32" enable-background="new 0 0 32 32" xml:space="preserve">
  <g id="icon">
    <path d="M29.124,32.003c-0.048,0,-0.097,-0.001,-0.146,-0.003H4.033C1.621,32,0,30.303,0,27.778V1.548C0,0.694,0.694,0,1.548,0h24.908C27.307,0,28,0.693,28,1.544V16h4v12.627c0,1.108,-0.35,2.05,-0.984,2.652c-0.414,0.393,-0.931,0.631,-1.516,0.702V32h-0.232C29.22,32.002,29.172,32.003,29.124,32.003zM29.027,30h0.186c0.234,-0.017,0.353,-0.103,0.425,-0.172c0.226,-0.215,0.361,-0.664,0.361,-1.202V18h-2v10.442c0,0.562,0.127,1.511,0.976,1.555L29.027,30zM2,2v25.778c0,0.83,0.264,2.222,2.033,2.222h22.218c-0.164,-0.458,-0.252,-0.982,-0.252,-1.558V2H2z" fill="#000000"/>
    <rect x="4" y="4" width="20" height="2" fill="#000000"/>
    <path d="M13,18H4V8h9V18zM6,16h5v-6H6V16z" fill="#000000"/>
    <rect x="15" y="8" width="9" height="2" fill="#000000"/>
    <rect x="15" y="12" width="9" height="2" fill="#000000"/>
    <rect x="15" y="16" width="9" height="2" fill="#000000"/>
    <rect x="4" y="20" width="20" height="2" fill="#000000"/>
    <rect x="4" y="24" width="20" height="2" fill="#000000"/>
  </g>
</svg>
