<?xml version="1.0" encoding="UTF-8"?>
<!DOCTYPE svg PUBLIC "-//W3C//DTD SVG 1.1//EN" "http://www.w3.org/Graphics/SVG/1.1/DTD/svg11.dtd">
<svg version="1.1" id="Layer_1" xmlns="http://www.w3.org/2000/svg" xmlns:xlink="http://www.w3.org/1999/xlink" x="0px" y="0px" width="32px" height="32px" viewBox="0 0 32 32" enable-background="new 0 0 32 32" xml:space="preserve">
  <g id="icon">
    <path d="M30,30H4v-4H2v-2h2v-2H2v-2h2v-2H2v-2h2v-2H2v-2h2v-2H2V8h2V6H2V4h2V0h23v2H6v2h2v2H6v2h2v2H6v2h2v2H6v2h2v2H6v2h2v2H6v2h2v2H6v2h22V15.033h2V30zM11.366,23.658l2.489,-6.528l0.152,-0.151L27.27,3.739c0.96,-0.96,2.523,-0.959,3.483,0.001l0.543,0.543c0.466,0.466,0.722,1.085,0.722,1.743s-0.257,1.277,-0.723,1.743L17.876,21.15L11.366,23.658zM15.572,18.243l-0.738,1.936l1.929,-0.744l9.875,-9.848l-1.181,-1.213L15.572,18.243zM26.874,6.961l1.181,1.214l1.827,-1.822c0.118,-0.118,0.136,-0.256,0.136,-0.328s-0.018,-0.21,-0.136,-0.328l-0.543,-0.543c-0.181,-0.181,-0.475,-0.181,-0.656,0L26.874,6.961z" fill="#000000"/>
  </g>
</svg>
