<?xml version="1.0" encoding="UTF-8"?>
<!DOCTYPE svg PUBLIC "-//W3C//DTD SVG 1.1//EN" "http://www.w3.org/Graphics/SVG/1.1/DTD/svg11.dtd">
<svg version="1.1" id="Layer_1" xmlns="http://www.w3.org/2000/svg" xmlns:xlink="http://www.w3.org/1999/xlink" x="0px" y="0px" width="32px" height="32px" viewBox="0 0 32 32" enable-background="new 0 0 32 32" xml:space="preserve">
  <g id="icon">
    <path d="M16,32C7.178,32,0,24.822,0,16C0,7.178,7.178,0,16,0c8.822,0,16,7.178,16,16C32,24.822,24.822,32,16,32zM16,2C8.28,2,2,8.28,2,16s6.28,14,14,14s14,-6.28,14,-14S23.72,2,16,2zM16.015,24c-2.304,0,-3.508,-1.046,-4.113,-1.923c-0.785,-1.138,-0.902,-2.461,-0.902,-3.148c0,-0.164,0.007,-0.364,0.028,-0.59v-3.777c-0.001,-1.768,-0.001,-3.772,1.49,-5.143c1.291,-1.187,3.38,-1.614,6.574,-1.343l0.07,0.008l0.883,0.138l-0.308,1.976l-0.847,-0.132c-2.506,-0.208,-4.194,0.069,-5.017,0.826c-0.845,0.776,-0.844,2.182,-0.844,3.67v0.109c0.693,-0.464,1.657,-0.812,2.987,-0.812c2.304,0,3.508,1.046,4.113,1.923c0.785,1.138,0.902,2.461,0.902,3.148s-0.117,2.009,-0.902,3.148C19.523,22.954,18.319,24,16.015,24zM13,18.9c0,0.01,0,0.02,0,0.03c0,1.401,0.523,3.07,3.015,3.07c2.492,0,3.015,-1.67,3.015,-3.07s-0.523,-3.07,-3.015,-3.07c-2.179,0,-2.853,1.277,-2.987,2.534V18.9H13z" fill="#000000"/>
  </g>
</svg>
