<?xml version="1.0" encoding="UTF-8"?>
<!DOCTYPE svg PUBLIC "-//W3C//DTD SVG 1.1//EN" "http://www.w3.org/Graphics/SVG/1.1/DTD/svg11.dtd">
<svg version="1.1" id="Layer_1" xmlns="http://www.w3.org/2000/svg" xmlns:xlink="http://www.w3.org/1999/xlink" x="0px" y="0px" width="32px" height="32px" viewBox="0 0 32 32" enable-background="new 0 0 32 32" xml:space="preserve">
  <g id="icon">
    <path d="M16,32C7.178,32,0,24.822,0,16C0,7.178,7.178,0,16,0c8.822,0,16,7.178,16,16C32,24.822,24.822,32,16,32zM16,2C8.28,2,2,8.28,2,16s6.28,14,14,14s14,-6.28,14,-14S23.72,2,16,2zM15.997,23.992c-3.51,0,-4.882,-2.197,-4.995,-4.253l1.997,-0.11c0.087,1.568,1.095,2.363,2.998,2.363c2.482,0,3.003,-1.378,3.003,-2.534c0,-1.151,-1.167,-2.051,-3.051,-2.358h-0.272v-2.2h0.271c1.41,-0.23,3.052,-0.829,3.052,-2.366c0,-1.156,-0.521,-2.534,-3.003,-2.534c-1.903,0,-2.912,0.795,-2.998,2.363l-1.997,-0.11C11.115,10.197,12.487,8,15.997,8c2.264,0,3.46,0.91,4.064,1.673c0.817,1.032,0.939,2.235,0.939,2.861c0,1.5,-0.753,2.698,-2.132,3.481c1.356,0.795,2.132,2.002,2.132,3.444c0,0.625,-0.122,1.829,-0.939,2.861C19.456,23.082,18.261,23.992,15.997,23.992z" fill="#000000"/>
  </g>
</svg>
