<?xml version="1.0" encoding="UTF-8"?>
<!DOCTYPE svg PUBLIC "-//W3C//DTD SVG 1.1//EN" "http://www.w3.org/Graphics/SVG/1.1/DTD/svg11.dtd">
<svg version="1.1" id="Layer_1" xmlns="http://www.w3.org/2000/svg" xmlns:xlink="http://www.w3.org/1999/xlink" x="0px" y="0px" width="32px" height="32px" viewBox="0 0 32 32" enable-background="new 0 0 32 32" xml:space="preserve">
  <g id="icon">
    <path d="M15.998,32.004c-8.824,0,-16.002,-7.179,-16.002,-16.002S7.174,0,15.998,0S32,7.179,32,16.002S24.821,32.004,15.998,32.004zM15.998,2C8.277,2,1.996,8.281,1.996,16.002s6.281,14.002,14.002,14.002c7.721,0,14.002,-6.281,14.002,-14.002S23.719,2,15.998,2zM21,24H10.979l0.051,-2.454c0.022,-1.045,0.514,-2.05,1.35,-2.758L18.5,13.608c0.258,-0.329,0.484,-0.714,0.484,-1.265c0,-1.292,-1.332,-2.344,-2.969,-2.344c-1.575,0,-2.905,1.01,-2.966,2.252l-1.998,-0.098C11.165,9.825,13.346,8,16.015,8c2.74,0,4.969,1.949,4.969,4.344c0,1.239,-0.564,2.076,-0.988,2.597l-0.059,0.072l-6.264,5.302c-0.405,0.343,-0.633,0.795,-0.643,1.273l-0.009,0.412H21V24z" fill="#000000"/>
  </g>
</svg>
