<?xml version="1.0" encoding="UTF-8"?>
<!DOCTYPE svg PUBLIC "-//W3C//DTD SVG 1.1//EN" "http://www.w3.org/Graphics/SVG/1.1/DTD/svg11.dtd">
<svg version="1.1" id="Layer_1" xmlns="http://www.w3.org/2000/svg" xmlns:xlink="http://www.w3.org/1999/xlink" x="0px" y="0px" width="32px" height="32px" viewBox="0 0 32 32" enable-background="new 0 0 32 32" xml:space="preserve">
  <g id="icon">
    <path d="M16,32C7.178,32,0,24.822,0,16C0,7.178,7.178,0,16,0c8.822,0,16,7.178,16,16C32,24.822,24.822,32,16,32zM16,2C8.28,2,2,8.28,2,16s6.28,14,14,14s14,-6.28,14,-14S23.72,2,16,2z" fill="#000000"/>
    <path d="M18,18V8h-1.875L10,18.585V20h6v4h2v-4h3v-2H18zM16,18h-3.328L16,11.714V18z" fill="#000000"/>
  </g>
</svg>
