<?xml version="1.0" encoding="UTF-8"?>
<!DOCTYPE svg PUBLIC "-//W3C//DTD SVG 1.1//EN" "http://www.w3.org/Graphics/SVG/1.1/DTD/svg11.dtd">
<svg version="1.1" id="Layer_1" xmlns="http://www.w3.org/2000/svg" xmlns:xlink="http://www.w3.org/1999/xlink" x="0px" y="0px" width="32px" height="32px" viewBox="0 0 32 32" enable-background="new 0 0 32 32" xml:space="preserve">
  <g id="icon">
    <path d="M16,32C7.178,32,0,24.822,0,16C0,7.178,7.178,0,16,0c8.822,0,16,7.178,16,16C32,24.822,24.822,32,16,32zM16,2C8.28,2,2,8.28,2,16s6.28,14,14,14s14,-6.28,14,-14S23.72,2,16,2z" fill="#000000"/>
    <path d="M15.945,24c-3.65,0,-4.945,-2.451,-4.945,-4.55c0,-0.62,0.12,-1.813,0.927,-2.837c0.171,-0.217,0.39,-0.446,0.668,-0.663c-0.278,-0.216,-0.497,-0.445,-0.668,-0.663C11.12,14.263,11,13.07,11,12.45c0,-2.151,1.299,-4.45,4.945,-4.45c2.229,0,3.434,0.877,4.053,1.613C20.87,10.65,21,11.836,21,12.45c0,0.496,-0.097,1.767,-0.997,2.856c-0.175,0.211,-0.395,0.434,-0.673,0.644c0.277,0.211,0.498,0.433,0.673,0.644c0.9,1.089,0.997,2.36,0.997,2.856c0,0.497,-0.097,1.772,-0.992,2.874C19.387,23.089,18.178,24,15.945,24zM15.945,16.95c-2.434,0,-2.945,1.359,-2.945,2.5c0,1.163,0.511,2.55,2.945,2.55c2.758,0,3.055,-1.783,3.055,-2.55C19,18.698,18.702,16.95,15.945,16.95zM15.945,10c-2.434,0,-2.945,1.332,-2.945,2.45c0,1.141,0.511,2.5,2.945,2.5c2.758,0,3.055,-1.748,3.055,-2.5C19,11.713,18.702,10,15.945,10z" fill="#000000"/>
  </g>
</svg>
