<?xml version="1.0" encoding="UTF-8"?>
<!DOCTYPE svg PUBLIC "-//W3C//DTD SVG 1.1//EN" "http://www.w3.org/Graphics/SVG/1.1/DTD/svg11.dtd">
<svg version="1.1" id="Layer_1" xmlns="http://www.w3.org/2000/svg" xmlns:xlink="http://www.w3.org/1999/xlink" x="0px" y="0px" width="32px" height="32px" viewBox="0 0 32 32" enable-background="new 0 0 32 32" xml:space="preserve">
  <g id="icon">
    <path d="M16,31.9C7.178,31.9,0,24.722,0,15.9C0,7.078,7.178,-0.1,16,-0.1c8.822,0,16,7.178,16,16C32,24.722,24.822,31.9,16,31.9zM16,1.9C8.28,1.9,2,8.18,2,15.9s6.28,14,14,14s14,-6.28,14,-14S23.72,1.9,16,1.9zM10.319,23.999c-0.463,0,-0.957,-0.026,-1.482,-0.077l-0.08,-0.011l-0.763,-0.138l0.355,-1.968l0.722,0.13c1.988,0.19,3.352,-0.037,4.054,-0.674c0.836,-0.759,0.841,-2.229,0.841,-3.79c-0.602,0.395,-1.404,0.675,-2.47,0.675c-2.085,0,-3.164,-1.075,-3.702,-1.976c-0.668,-1.12,-0.768,-2.417,-0.768,-3.09s0.1,-1.969,0.768,-3.09c0.538,-0.902,1.617,-1.976,3.702,-1.976c2.085,0,3.164,1.075,3.702,1.976c0.668,1.12,0.768,2.417,0.768,3.09v4.362c0,1.847,0.001,3.941,-1.497,5.3C13.542,23.584,12.177,23.999,10.319,23.999zM11.497,10.015c-2.041,0,-2.469,1.667,-2.469,3.066c0,1.399,0.428,3.066,2.469,3.066c2.041,0,2.47,-1.667,2.47,-3.066C13.967,11.682,13.538,10.015,11.497,10.015zM23,20h-2v-3h-3v-2h3v-3h2v3h3v2h-3V20z" fill="#000000"/>
  </g>
</svg>
