<?xml version="1.0" encoding="UTF-8"?>
<!DOCTYPE svg PUBLIC "-//W3C//DTD SVG 1.1//EN" "http://www.w3.org/Graphics/SVG/1.1/DTD/svg11.dtd">
<svg version="1.1" id="Layer_1" xmlns="http://www.w3.org/2000/svg" xmlns:xlink="http://www.w3.org/1999/xlink" x="0px" y="0px" width="32px" height="32px" viewBox="0 0 32 32" enable-background="new 0 0 32 32" xml:space="preserve">
  <g id="icon">
    <path d="M16,32C7.178,32,0,24.822,0,16C0,7.178,7.178,0,16,0c8.822,0,16,7.178,16,16C32,24.822,24.822,32,16,32zM16,2C8.28,2,2,8.28,2,16s6.28,14,14,14s14,-6.28,14,-14S23.72,2,16,2zM16,24c-1.958,0,-3.406,-0.912,-4.188,-2.637C11.25,20.124,11,18.47,11,16s0.25,-4.124,0.812,-5.363C12.594,8.912,14.042,8,16,8c1.958,0,3.406,0.912,4.188,2.637C20.75,11.876,21,13.53,21,16s-0.25,4.124,-0.812,5.363C19.406,23.088,17.958,24,16,24zM16,10c-1.852,0,-3,1.004,-3,6s1.148,6,3,6s3,-1.004,3,-6S17.852,10,16,10z" fill="#000000"/>
  </g>
</svg>
