<?xml version="1.0" encoding="UTF-8"?>
<!DOCTYPE svg PUBLIC "-//W3C//DTD SVG 1.1//EN" "http://www.w3.org/Graphics/SVG/1.1/DTD/svg11.dtd">
<svg version="1.1" id="Layer_1" xmlns="http://www.w3.org/2000/svg" xmlns:xlink="http://www.w3.org/1999/xlink" x="0px" y="0px" width="32px" height="32px" viewBox="0 0 32 32" enable-background="new 0 0 32 32" xml:space="preserve">
  <g id="icon">
    <path d="M16,32c-3.74,0,-7.255,-1.456,-9.9,-4.1C0.642,22.441,0.642,13.559,6.1,8.101c1.576,-1.576,3.524,-2.765,5.634,-3.438l0.608,1.905c-1.833,0.585,-3.457,1.576,-4.827,2.947c-4.679,4.679,-4.679,12.292,0,16.971C9.781,28.752,12.795,30,16,30s6.219,-1.248,8.485,-3.515c4.679,-4.679,4.679,-12.292,0,-16.971c-1.359,-1.359,-2.967,-2.345,-4.782,-2.932l0.615,-1.903C22.438,5.365,24.315,6.516,25.9,8.1c5.459,5.459,5.459,14.34,0,19.799C23.255,30.544,19.74,32,16,32zM17,20h-2V0h2V20z" fill="#000000"/>
  </g>
</svg>
