<?xml version="1.0" encoding="UTF-8"?>
<!DOCTYPE svg PUBLIC "-//W3C//DTD SVG 1.1//EN" "http://www.w3.org/Graphics/SVG/1.1/DTD/svg11.dtd">
<svg version="1.1" id="Layer_1" xmlns="http://www.w3.org/2000/svg" xmlns:xlink="http://www.w3.org/1999/xlink" x="0px" y="0px" width="32px" height="32px" viewBox="0 0 32 32" enable-background="new 0 0 32 32" xml:space="preserve">
  <g id="icon">
    <path d="M25.534,32.036l-0.044,-0.003c-1.48,-0.098,-2.919,-0.453,-4.399,-1.086c-1.986,-0.849,-3.976,-2.057,-6.083,-3.693c-2.461,-1.91,-4.828,-4.103,-7.236,-6.704c-2.346,-2.533,-4.069,-4.775,-5.422,-7.053C1.12,11.425,0.408,9.623,0.108,7.824c-0.143,-0.856,-0.145,-1.537,-0.007,-2.143c0.162,-0.712,0.633,-1.285,0.976,-1.703c0.965,-1.175,2.145,-2.244,3.715,-3.366c0.939,-0.671,2.034,-0.796,3.085,-0.353c0.456,0.192,0.864,0.522,1.122,0.906c0.7,1.042,1.401,2.107,2.078,3.136c0.602,0.915,1.225,1.861,1.844,2.785c0.644,0.962,0.672,2.046,0.085,3.222c-0.38,0.761,-0.821,1.564,-1.343,2.447c0.347,0.391,0.693,0.788,1.028,1.173c0.831,0.954,1.691,1.941,2.579,2.851c0.874,0.895,1.849,1.747,2.793,2.572c0.261,0.228,0.521,0.456,0.781,0.685c0.099,0.087,0.231,0.204,0.332,0.287c0.11,-0.055,0.258,-0.136,0.394,-0.21l0.01,-0.006c0.239,-0.131,0.484,-0.27,0.72,-0.404c0.361,-0.205,0.735,-0.418,1.118,-0.617c0.694,-0.361,1.631,-0.731,2.726,-0.388c0.239,0.075,0.475,0.187,0.685,0.325c0.619,0.407,1.244,0.824,1.849,1.227c1.258,0.838,2.558,1.705,3.854,2.519c0.771,0.485,1.261,1.168,1.416,1.976c0.16,0.834,-0.057,1.713,-0.613,2.475c-0.867,1.19,-2.062,2.711,-3.614,3.911c-0.565,0.437,-1.262,0.887,-2.144,0.906L25.534,32.036zM6.632,1.999c-0.23,0,-0.452,0.08,-0.677,0.24C4.532,3.257,3.473,4.212,2.623,5.248c-0.205,0.249,-0.515,0.627,-0.572,0.878c-0.077,0.34,-0.068,0.788,0.029,1.37c0.258,1.546,0.89,3.129,1.989,4.98c1.279,2.154,2.922,4.288,5.17,6.716c2.333,2.52,4.621,4.641,6.995,6.483c1.97,1.529,3.816,2.653,5.643,3.434c1.251,0.535,2.459,0.838,3.691,0.926c0.293,-0.023,0.633,-0.258,0.929,-0.487c1.344,-1.04,2.383,-2.356,3.221,-3.507c0.222,-0.305,0.319,-0.641,0.265,-0.92c-0.049,-0.253,-0.222,-0.475,-0.516,-0.66c-1.318,-0.828,-2.63,-1.703,-3.898,-2.548c-0.603,-0.402,-1.226,-0.817,-1.84,-1.221c-0.056,-0.037,-0.121,-0.067,-0.183,-0.087c-0.321,-0.101,-0.659,-0.029,-1.204,0.254c-0.35,0.182,-0.692,0.376,-1.053,0.582c-0.244,0.139,-0.496,0.282,-0.75,0.421l-0.01,0.006c-0.593,0.324,-1.021,0.559,-1.567,0.502c-0.564,-0.058,-0.952,-0.401,-1.443,-0.835c-0.256,-0.227,-0.514,-0.452,-0.772,-0.677c-0.973,-0.85,-1.979,-1.729,-2.908,-2.681c-0.928,-0.95,-1.806,-1.959,-2.656,-2.934c-0.391,-0.449,-0.795,-0.913,-1.196,-1.361c-0.512,-0.573,-0.574,-1.258,-0.173,-1.929c0.554,-0.929,1.013,-1.758,1.402,-2.538c0.304,-0.608,0.236,-0.926,0.042,-1.216c-0.622,-0.93,-1.247,-1.88,-1.852,-2.797C8.732,4.375,8.034,3.315,7.339,2.28c-0.03,-0.045,-0.13,-0.132,-0.239,-0.178C6.938,2.034,6.783,1.999,6.632,1.999z" fill="#000000"/>
  </g>
</svg>
