<?xml version="1.0" encoding="UTF-8"?>
<!DOCTYPE svg PUBLIC "-//W3C//DTD SVG 1.1//EN" "http://www.w3.org/Graphics/SVG/1.1/DTD/svg11.dtd">
<svg version="1.1" id="Layer_1" xmlns="http://www.w3.org/2000/svg" xmlns:xlink="http://www.w3.org/1999/xlink" x="0px" y="0px" width="32px" height="32px" viewBox="0 0 32 32" enable-background="new 0 0 32 32" xml:space="preserve">
  <g id="icon">
    <path d="M10,6H6V2h4V6zM18,2h-4v4h4V2zM26,2h-4v4h4V2zM10,10H6v4h4V10zM18,10h-4v4h4V10zM26,10h-4v4h4V10zM10,18H6v4h4V18zM18,18h-4v4h4V18zM18,26h-4v4h4V26zM26,18h-4v4h4V18z" fill="#000000"/>
  </g>
</svg>
