<?xml version="1.0" encoding="UTF-8"?>
<!DOCTYPE svg PUBLIC "-//W3C//DTD SVG 1.1//EN" "http://www.w3.org/Graphics/SVG/1.1/DTD/svg11.dtd">
<svg version="1.1" id="Layer_1" xmlns="http://www.w3.org/2000/svg" xmlns:xlink="http://www.w3.org/1999/xlink" x="0px" y="0px" width="32px" height="32px" viewBox="0 0 32 32" enable-background="new 0 0 32 32" xml:space="preserve">
  <g id="icon">
    <path d="M1.789,31.665L0.375,30.251L11.497,19.13l-6.538,-6.538l0.707,-0.707c1.517,-1.517,3.225,-2.447,4.939,-2.689c1.513,-0.214,2.959,0.141,4.163,1.006l3.183,-3.183c-1.14,-1.969,-0.174,-4.553,1.582,-6.309l0.707,-0.707l11.798,11.798l-0.707,0.707c-0.962,0.962,-2.175,1.669,-3.328,1.938c-1.096,0.257,-2.123,0.128,-2.977,-0.36l-3.179,3.179c0.99,1.331,1.337,2.881,1.006,4.534c-0.314,1.568,-1.26,3.204,-2.663,4.608l-0.707,0.707l-6.571,-6.571L1.789,31.665zM7.823,12.628l11.623,11.623c0.754,-0.926,1.258,-1.912,1.445,-2.843c0.262,-1.31,-0.113,-2.482,-1.116,-3.485l-0.707,-0.707l5.864,-5.864l0.707,0.707c0.477,0.477,1.118,0.625,1.908,0.44c0.528,-0.124,1.084,-0.389,1.604,-0.757l-8.846,-8.846c-0.757,1.08,-1.272,2.557,-0.322,3.506l0.707,0.707l-5.864,5.864l-0.707,-0.707c-0.899,-0.899,-1.987,-1.266,-3.233,-1.09C9.878,11.318,8.816,11.825,7.823,12.628z" fill="#000000"/>
  </g>
</svg>
