<?xml version="1.0" encoding="UTF-8"?>
<!DOCTYPE svg PUBLIC "-//W3C//DTD SVG 1.1//EN" "http://www.w3.org/Graphics/SVG/1.1/DTD/svg11.dtd">
<svg version="1.1" id="Layer_1" xmlns="http://www.w3.org/2000/svg" xmlns:xlink="http://www.w3.org/1999/xlink" x="0px" y="0px" width="32px" height="32px" viewBox="0 0 32 32" enable-background="new 0 0 32 32" xml:space="preserve">
  <g id="icon">
    <path d="M1.693,31.721L0.279,30.307l10.395,-10.395C9.4,18.321,8.707,16.36,8.707,14.293c0,-2.404,0.936,-4.664,2.636,-6.364l4.95,-4.95l2.828,2.828l5.657,-5.657l1.414,1.414l-5.657,5.657l4.243,4.243l5.657,-5.657l1.414,1.414l-5.657,5.657l2.829,2.828l-4.95,4.95c-1.7,1.7,-3.96,2.636,-6.364,2.636c-2.067,0,-4.029,-0.692,-5.618,-1.967L1.693,31.721zM16.293,5.808l-3.536,3.536c-1.322,1.322,-2.05,3.08,-2.05,4.95c0,1.87,0.728,3.628,2.05,4.95l0,0c1.322,1.322,3.08,2.05,4.95,2.05c1.87,0,3.628,-0.728,4.95,-2.05l3.536,-3.535L16.293,5.808z" fill="#000000"/>
  </g>
</svg>
