<?xml version="1.0" encoding="UTF-8"?>
<!DOCTYPE svg PUBLIC "-//W3C//DTD SVG 1.1//EN" "http://www.w3.org/Graphics/SVG/1.1/DTD/svg11.dtd">
<svg version="1.1" id="Layer_1" xmlns="http://www.w3.org/2000/svg" xmlns:xlink="http://www.w3.org/1999/xlink" x="0px" y="0px" width="32px" height="32px" viewBox="0 0 32 32" enable-background="new 0 0 32 32" xml:space="preserve">
  <g id="icon">
    <path d="M1.781,31.973l-1.762,-0.946c2.791,-5.202,6.344,-9.896,10.879,-14.321C8.16,12.57,8.867,6.927,12.727,3.615c0.981,-0.842,2.094,-1.476,3.309,-1.886C19.509,0.557,30.272,0.318,30.729,0.308l1.216,-0.026l-0.21,1.198c-0.079,0.451,-1.952,11.073,-3.65,14.333l-0.887,-0.462l0.887,0.462c-0.588,1.13,-1.381,2.127,-2.356,2.964c-2.025,1.737,-4.604,2.582,-7.264,2.379c-2.403,-0.184,-4.612,-1.204,-6.297,-2.894C7.841,22.509,4.447,27.005,1.781,31.973zM13.618,16.883c1.343,1.33,3.095,2.133,5,2.279c2.126,0.163,4.189,-0.513,5.808,-1.902c0.78,-0.669,1.414,-1.467,1.884,-2.37c1.242,-2.384,2.689,-9.652,3.233,-12.547c-2.941,0.098,-10.328,0.424,-12.869,1.28c-0.97,0.327,-1.86,0.835,-2.645,1.508c-2.995,2.57,-3.617,6.895,-1.651,10.172c2.525,-2.325,5.335,-4.581,8.462,-6.804l1.159,1.63C18.893,12.338,16.11,14.577,13.618,16.883z" fill="#000000"/>
  </g>
</svg>
