<?xml version="1.0" encoding="UTF-8"?>
<!DOCTYPE svg PUBLIC "-//W3C//DTD SVG 1.1//EN" "http://www.w3.org/Graphics/SVG/1.1/DTD/svg11.dtd">
<svg version="1.1" id="Layer_1" xmlns="http://www.w3.org/2000/svg" xmlns:xlink="http://www.w3.org/1999/xlink" x="0px" y="0px" width="32px" height="32px" viewBox="0 0 32 32" enable-background="new 0 0 32 32" xml:space="preserve">
  <g id="icon">
    <path d="M20,32h-8v-2H0v-2h12v-2h3v-3H8v-4H2V6h6V0h16v6h6v13h-6v4h-7v3h3v2h12v2H20V32zM14,30h4v-2h-4V30zM10,21h12v-6H10V21zM24,17h4V8H4v9h4v-4h16V17zM10,6h12V2H10V6z" fill="#000000"/>
    <circle cx="24.5" cy="10.5" r="1.5" fill="#000000"/>
  </g>
</svg>
