<?xml version="1.0" encoding="UTF-8"?>
<!DOCTYPE svg PUBLIC "-//W3C//DTD SVG 1.1//EN" "http://www.w3.org/Graphics/SVG/1.1/DTD/svg11.dtd">
<svg version="1.1" id="Layer_1" xmlns="http://www.w3.org/2000/svg" xmlns:xlink="http://www.w3.org/1999/xlink" x="0px" y="0px" width="32px" height="32px" viewBox="0 0 32 32" enable-background="new 0 0 32 32" xml:space="preserve">
  <g id="icon">
    <path d="M16,32C7.178,32,0,24.822,0,16C0,7.178,7.178,0,16,0c8.822,0,16,7.178,16,16C32,24.822,24.822,32,16,32zM16,2C8.28,2,2,8.28,2,16s6.28,14,14,14s14,-6.28,14,-14S23.72,2,16,2zM17,24h-2v-2h2V24zM17,19.967h-2l0.003,-2.006c0.118,-1.508,1.439,-2.288,2.604,-2.977c1.566,-0.925,2.517,-1.593,2.517,-3.07c0,-1.985,-2.914,-2.826,-4.074,-2.826c-1.228,0,-4.084,0.275,-4.084,2.818h-2c0,-3.552,3.143,-4.818,6.084,-4.818c0.867,0,2.348,0.276,3.669,1.052c1.551,0.912,2.405,2.252,2.405,3.774c0,2.725,-2.023,3.92,-3.5,4.792c-0.801,0.473,-1.559,0.921,-1.624,1.383V19.967z" fill="#000000"/>
  </g>
</svg>
