<?xml version="1.0" encoding="UTF-8"?>
<!DOCTYPE svg PUBLIC "-//W3C//DTD SVG 1.1//EN" "http://www.w3.org/Graphics/SVG/1.1/DTD/svg11.dtd">
<svg version="1.1" id="Layer_1" xmlns="http://www.w3.org/2000/svg" xmlns:xlink="http://www.w3.org/1999/xlink" x="0px" y="0px" width="32px" height="32px" viewBox="0 0 32 32" enable-background="new 0 0 32 32" xml:space="preserve">
  <g id="icon">
    <path d="M16,32C7.178,32,0,24.822,0,16C0,7.178,7.178,0,16,0c8.822,0,16,7.178,16,16C32,24.822,24.822,32,16,32zM16,2C8.28,2,2,8.28,2,16s6.28,14,14,14s14,-6.28,14,-14S23.72,2,16,2z" fill="#000000"/>
    <path d="M16,24c-4.411,0,-8,-3.589,-8,-8s3.589,-8,8,-8c2.275,0,4.459,0.926,6,2.441V7h2v7h-1.675v-0.857V14H17v-2h3.723c-1.179,-1.224,-2.935,-2,-4.723,-2c-3.308,0,-6,2.692,-6,6s2.692,6,6,6c2.641,0,5.008,-1.767,5.755,-4.297l1.918,0.567c-0.479,1.622,-1.488,3.08,-2.842,4.107C19.432,23.439,17.761,24,16,24z" fill="#000000"/>
  </g>
</svg>
