<?xml version="1.0" encoding="UTF-8"?>
<!DOCTYPE svg PUBLIC "-//W3C//DTD SVG 1.1//EN" "http://www.w3.org/Graphics/SVG/1.1/DTD/svg11.dtd">
<svg version="1.1" id="Layer_1" xmlns="http://www.w3.org/2000/svg" xmlns:xlink="http://www.w3.org/1999/xlink" x="0px" y="0px" width="32px" height="32px" viewBox="0 0 32 32" enable-background="new 0 0 32 32" xml:space="preserve">
  <g id="icon">
    <path d="M27.95,30H6.667L2,25.426V4.05C2,2.92,2.92,2,4.05,2h23.9c1.13,0,2.05,0.92,2.05,2.05v23.9C30,29.08,29.08,30,27.95,30zM22,28h5.95c0.028,0,0.05,-0.022,0.05,-0.05v-23.9c0,-0.028,-0.022,-0.05,-0.05,-0.05H24v10H8V4H4.05c-0.028,0,-0.05,0.022,-0.05,0.05v20.536L7.483,28H8V18h14V28zM10,28h10v-8H10V28zM10,12h12V4H10V12zM14,26h-2v-4h2V26z" fill="#000000"/>
  </g>
</svg>
