<?xml version="1.0" encoding="UTF-8"?>
<!DOCTYPE svg PUBLIC "-//W3C//DTD SVG 1.1//EN" "http://www.w3.org/Graphics/SVG/1.1/DTD/svg11.dtd">
<svg version="1.1" id="Layer_1" xmlns="http://www.w3.org/2000/svg" xmlns:xlink="http://www.w3.org/1999/xlink" x="0px" y="0px" width="32px" height="32px" viewBox="0 0 32 32" enable-background="new 0 0 32 32" xml:space="preserve">
  <g id="icon">
    <path d="M22,32H6v-2h7v-2H0V6h18.6v2H2v18h24V14.4h2v13.6H15v2h7V32zM11,21H4v-2h4.385c0.061,-0.041,0.128,-0.076,0.199,-0.105l0.054,-0.022c0.892,-0.358,1.262,-0.512,1.484,-0.733c0.255,-0.254,0.515,-0.792,0.987,-1.767c0.178,-0.367,0.379,-0.783,0.625,-1.277c0.92,-1.849,2.33,-2.165,3.089,-2.189c0.225,-0.007,0.452,0.009,0.679,0.047l1.534,-1.522l0.26,-0.774l9.862,-9.787c1.108,-1.099,2.909,-1.099,4.017,0c0.539,0.535,0.836,1.246,0.836,2.004c0,0.757,-0.297,1.469,-0.836,2.004l-9.835,9.76l-0.78,0.258L19,16.443c0.044,0.543,-0.075,1.067,-0.36,1.528l0,0c-1.335,2.161,-2.632,2.945,-7.64,3.023V21zM14.927,14.905c-0.014,0,-0.028,0,-0.042,0.001c-0.555,0.017,-1.013,0.381,-1.361,1.08c-0.241,0.485,-0.44,0.895,-0.615,1.258c-0.37,0.765,-0.643,1.308,-0.911,1.72c3.777,-0.16,4.209,-0.86,4.941,-2.045l0,0c0.165,-0.267,0,-0.636,-0.114,-0.832C16.437,15.417,15.611,14.905,14.927,14.905zM17.454,13.833c0.247,0.193,0.476,0.412,0.678,0.653l0.93,-0.923l-0.668,-0.663L17.454,13.833zM19.555,11.232l1.188,1.179l9.022,-8.953c0.158,-0.156,0.245,-0.364,0.245,-0.584c0,-0.22,-0.087,-0.428,-0.245,-0.584c-0.33,-0.328,-0.868,-0.328,-1.199,0L19.555,11.232z" fill="#000000"/>
  </g>
</svg>
