<?xml version="1.0" encoding="UTF-8"?>
<!DOCTYPE svg PUBLIC "-//W3C//DTD SVG 1.1//EN" "http://www.w3.org/Graphics/SVG/1.1/DTD/svg11.dtd">
<svg version="1.1" id="Layer_1" xmlns="http://www.w3.org/2000/svg" xmlns:xlink="http://www.w3.org/1999/xlink" x="0px" y="0px" width="32px" height="32px" viewBox="0 0 32 32" enable-background="new 0 0 32 32" xml:space="preserve">
  <g id="icon">
    <path d="M32,30H0V2h32V30zM2,28h28V10H2V28zM2,8h28V4H2V8z" fill="#000000"/>
    <path d="M13.816,26.904l-1.83,-0.807l0.889,-2.017c-0.785,-0.494,-1.44,-1.162,-1.921,-1.957l-1.983,0.839l-0.779,-1.842l2.024,-0.856c-0.186,-0.864,-0.177,-1.754,0.027,-2.616l-2.092,-0.952l0.828,-1.821l2.039,0.928c0.474,-0.75,1.105,-1.38,1.856,-1.853l-0.875,-1.981l1.829,-0.808l0.891,2.017c0.895,-0.21,1.82,-0.21,2.715,0l0.917,-2.081l1.83,0.807l-0.902,2.046c0.725,0.457,1.339,1.06,1.807,1.777l2.106,-0.94l0.815,1.826l-2.118,0.946c0.234,0.926,0.242,1.886,0.024,2.814l2.081,0.917l-0.806,1.83l-2.046,-0.902c-0.472,0.75,-1.102,1.381,-1.85,1.855l0.874,1.899l-1.817,0.836l-0.901,-1.959c-0.899,0.213,-1.829,0.214,-2.728,0.003L13.816,26.904zM16.079,15.021c-0.517,0,-1.035,0.102,-1.527,0.306c-0.985,0.408,-1.752,1.175,-2.16,2.16c-0.408,0.985,-0.408,2.07,0,3.055c0.408,0.985,1.175,1.752,2.16,2.16c0.985,0.408,2.07,0.408,3.055,0c0.985,-0.408,1.752,-1.175,2.16,-2.16c0.408,-0.985,0.408,-2.07,0,-3.055s-1.175,-1.752,-2.16,-2.16C17.114,15.123,16.596,15.021,16.079,15.021z" fill="#000000"/>
  </g>
</svg>
